<svg xmlns="http://www.w3.org/2000/svg" xmlns:xlink="http://www.w3.org/1999/xlink" viewBox="0 0 511.68 150.93"><defs/><style>.st0{fill:#006c66}</style><g id="de"><path class="st0" d="M21.99 124.4h-.28a.48.48 0 01-.48-.49v-5.36s-.06.3-.25.65l-.77 1.41h-.32c-.2 0-.32-.14-.38-.25l-.64-1.16c-.2-.35-.25-.65-.25-.65v5.36c0 .27-.22.48-.48.48h-.28a.48.48 0 01-.48-.48v-7.13c0-.28.15-.5.44-.5h.36c.19 0 .33.11.43.3l1.32 2.39 1.32-2.4c.1-.18.24-.29.43-.29h.79v7.63c0 .27-.22.48-.48.48zM27.86 124.4h-.41l-.29-.43a.24.24 0 00-.22-.1c-.3 0-.5.56-1.24.56h-.17c-.84 0-1.4-.7-1.4-1.47v-.79c0-.77.56-1.45 1.4-1.45h.17c.74 0 .95.59 1.25.59.08 0 .1-.1.1-.2v-.83c0-.25-.2-.47-.48-.47h-2.01v-.74c0-.22.2-.36.47-.36h1.72c1.08 0 1.54.62 1.54 1.4v3.84c0 .16-.11.44-.43.44zm-.8-2.02a.51.51 0 00-.52-.52h-.66a.51.51 0 00-.52.52v.4c0 .28.23.5.52.5h.66c.28 0 .51-.22.51-.5v-.4zM33.93 124.17l-.22.17c-.2.15-.49.11-.63-.1l-1.31-1.78-1.3 1.79a.44.44 0 01-.63.1c-.2-.16-.41-.27-.41-.56 0-.08.02-.17.08-.25l1.53-2.08-1.4-1.9c-.14-.2-.1-.5.1-.64l.23-.15c.2-.15.48-.11.62.1l1.2 1.59 1.15-1.6c.15-.21.44-.24.64-.1l.22.16c.2.15.24.44.1.64l-1.39 1.9 1.51 2.08a.4.4 0 01.09.25c0 .14-.06.29-.18.38zM38.03 121.66h-2.72a.42.42 0 01-.42-.42v-.27c0-.23.2-.42.42-.42h2.72c.23 0 .44.2.44.42v.27c0 .22-.2.42-.44.42zM42.65 120.89H41.2v3.02c0 .27-.21.48-.48.48h-.27a.48.48 0 01-.48-.48v-7.16c0-.26.17-.47.44-.47h.4l.3.45c.06.08.13.1.19.1.27 0 .55-.58 1.27-.58h.23c.86 0 1.35.68 1.35 1.46v1.68c0 .83-.67 1.5-1.5 1.5zm.27-3.02a.48.48 0 00-.48-.48h-.76a.48.48 0 00-.48.48v1.91h1.24c.26 0 .48-.21.48-.47v-1.44zM46.07 124.4a.48.48 0 01-.48-.49v-7.15c0-.26.22-.47.48-.47h.28c.26 0 .48.21.48.47v7.63h-.76zM52.14 124.4h-.4l-.3-.43a.24.24 0 00-.2-.1c-.3 0-.51.56-1.25.56h-.17c-.84 0-1.4-.7-1.4-1.47v-.79c0-.77.56-1.45 1.4-1.45h.17c.74 0 .94.59 1.24.59.09 0 .11-.1.11-.2v-.83c0-.25-.2-.47-.48-.47h-2.01v-.74c0-.22.2-.36.46-.36h1.73c1.08 0 1.54.62 1.54 1.4v3.84c0 .16-.11.44-.44.44zm-.8-2.02a.51.51 0 00-.52-.52h-.65a.51.51 0 00-.52.52v.4c0 .28.23.5.52.5h.65c.3 0 .52-.22.52-.5v-.4zM57.94 124.4h-.28a.48.48 0 01-.47-.49v-3.58a.51.51 0 00-.52-.52h-.66a.51.51 0 00-.52.52v3.58c0 .27-.21.48-.47.48h-.28a.48.48 0 01-.48-.48v-4.76c0-.17.1-.44.43-.44h.41l.3.43c.06.08.13.12.2.12.26 0 .6-.59 1.31-.59h.18c.85 0 1.33.69 1.33 1.45v3.8c0 .25-.22.47-.48.47zM63.03 124.4H61.6a1.5 1.5 0 01-1.5-1.5v-2.7c0-.82.67-1.5 1.5-1.5h1.3c.26 0 .48.17.48.44v.67h-1.5c-.3 0-.54.24-.54.54v2.4c0 .3.24.54.54.54h1.63v.67c0 .26-.22.43-.48.43zM68.45 124.34a.5.5 0 01-.67-.12l-1.47-2.12-.33.32v1.5c0 .25-.21.47-.48.47h-.27a.48.48 0 01-.48-.48v-7.14c0-.26.21-.49.48-.49h.75v4.48l1.95-1.95c.19-.19.47-.19.67 0l.2.2c.2.19.17.43-.02.62l-1.61 1.6 1.88 2.7-.6.41zM72.82 121.66H70.1a.42.42 0 01-.42-.42v-.27c0-.23.19-.42.42-.42h2.72c.23 0 .43.2.43.42v.27c0 .22-.2.42-.43.42zM75.63 124.4h-.28a.48.48 0 01-.47-.49v-7.15c0-.26.21-.47.47-.47h.28c.26 0 .48.21.48.47v7.15c0 .27-.22.48-.48.48zM81.77 124.4h-.27a.48.48 0 01-.48-.49v-3.58a.51.51 0 00-.52-.52h-.66a.51.51 0 00-.52.52v3.58c0 .27-.21.48-.47.48h-.28a.48.48 0 01-.48-.48v-4.76c0-.17.1-.44.43-.44h.41l.3.43c.06.08.13.12.2.12.26 0 .6-.59 1.31-.59h.18c.85 0 1.33.69 1.33 1.45v3.8c0 .25-.21.47-.48.47zM86.02 124.4H84.2c-.27 0-.48-.18-.48-.44v-.67h2.03c.34 0 .54-.3.54-.6 0-.33-.17-.69-.54-.69H85c-.79 0-1.36-.54-1.36-1.34v-.46c0-.82.67-1.5 1.5-1.5h1.56c.26 0 .46.17.46.44v.67h-1.75c-.35 0-.52.3-.52.61 0 .3.16.6.52.6h.76c.83 0 1.35.58 1.35 1.4v.47c0 .83-.68 1.5-1.5 1.5zM90.7 119.81v4.1c0 .27-.22.48-.48.48h-.27a.48.48 0 01-.48-.48v-4.1h-.53c-.27 0-.48-.17-.48-.43v-.24c0-.27.22-.43.48-.43h.53v-1.95c0-.26.21-.48.48-.48h.27c.27 0 .48.22.48.48v1.95h.92c.27 0 .48.16.48.43v.67h-1.4zM93.87 117.8h-.28a.48.48 0 01-.48-.47v-.57c0-.26.22-.48.48-.48h.28c.26 0 .48.22.48.48v.57c0 .26-.22.48-.48.48zm0 6.6h-.28a.48.48 0 01-.48-.49v-4.72c0-.27.22-.48.48-.48h.28c.26 0 .48.21.48.48v4.72c0 .27-.22.48-.48.48zM97.91 119.81v4.1c0 .27-.21.48-.48.48h-.27a.48.48 0 01-.48-.48v-4.1h-.53c-.26 0-.48-.17-.48-.43v-.24c0-.27.22-.43.48-.43h.53v-1.95c0-.26.21-.48.48-.48h.27c.27 0 .48.22.48.48v1.95h.93c.26 0 .48.16.48.43v.67h-1.4zM103.95 124.4h-.41l-.29-.43a.24.24 0 00-.21-.1c-.3 0-.5.56-1.25.56h-.17c-.84 0-1.4-.7-1.4-1.47v-3.77c0-.27.21-.48.48-.48h.27c.27 0 .48.21.48.48v3.58c0 .29.23.52.52.52h.66c.28 0 .51-.23.51-.52v-3.58c0-.27.22-.48.48-.48h.28c.26 0 .48.21.48.48v4.76c0 .16-.1.44-.43.44zM107.84 119.81v4.1c0 .27-.22.48-.48.48h-.28a.48.48 0 01-.48-.48v-4.1h-.52c-.27 0-.48-.17-.48-.43v-.24c0-.27.21-.43.47-.43h.53v-1.95c0-.26.22-.48.48-.48h.28c.26 0 .48.22.48.48v1.95h.92c.27 0 .48.16.48.43v.67h-1.4zM116.06 117.39h-1.17c-.3 0-.54.24-.54.54v.78h1.2c.27 0 .48.16.48.43v.24c0 .26-.21.43-.48.43h-1.2v4.1c0 .27-.21.48-.48.48h-.27a.48.48 0 01-.48-.48v-6.13c0-.82.67-1.5 1.5-1.5h1.92v.68c0 .26-.22.43-.48.43zM120.75 124.4h-.41l-.29-.43a.24.24 0 00-.21-.1c-.3 0-.5.56-1.25.56h-.17c-.84 0-1.4-.7-1.4-1.47v-3.77c0-.27.21-.48.48-.48h.27c.27 0 .48.21.48.48v3.58c0 .29.23.52.52.52h.66c.29 0 .51-.23.51-.52v-3.58c0-.27.22-.48.48-.48h.28c.26 0 .48.21.48.48v4.76c0 .16-.1.44-.43.44zm-2.56-6.52h-.3c-.19 0-.42-.12-.42-.4v-.8c0-.2.15-.4.41-.4h.35c.26 0 .4.2.4.4v.8c0 .28-.22.4-.44.4zm2 0h-.3c-.2 0-.43-.12-.43-.4v-.8c0-.2.15-.4.41-.4h.35c.26 0 .4.2.4.4v.8c0 .28-.22.4-.44.4zM124.59 119.81c-.23 0-.5.2-.5.5v3.6c0 .27-.2.48-.47.48h-.28a.48.48 0 01-.48-.48v-4.76c0-.17.11-.44.44-.44h.4l.3.43c.06.08.14.12.2.12.26 0 .41-.55 1.12-.55h.76c.26 0 .48.17.48.43v.67h-1.97zM133.57 122.02h-2.18v.78c0 .3.22.49.5.49h1.82v.67c0 .26-.22.43-.48.43h-1.57a1.5 1.5 0 01-1.5-1.5v-2.68c0-.84.67-1.5 1.5-1.5h1.16c.83 0 1.5.67 1.5 1.5v1.06c0 .41-.34.75-.75.75zm-.49-1.73a.48.48 0 00-.48-.48h-.73a.48.48 0 00-.48.48v.73h1.7v-.73zM139.91 119.34l-1.57 4.53c-.08.24-.35.52-.62.52h-.3c-.28 0-.54-.27-.63-.51l-1.57-4.54c-.02-.06-.02-.1-.02-.17 0-.18.14-.33.32-.4l.31-.09c.24-.07.47.05.56.29l.76 2.18c.22.63.4 2.13.4 2.13h.04s.18-1.5.4-2.13l.76-2.18a.44.44 0 01.55-.29l.31.1c.18.06.33.21.33.4 0 .05 0 .1-.03.16zM143.74 124.4h-1.16a1.5 1.5 0 01-1.5-1.5v-2.7c0-.82.67-1.5 1.5-1.5h1.16c.83 0 1.5.68 1.5 1.5v2.7c0 .82-.67 1.5-1.5 1.5zm.26-4.05c0-.3-.24-.54-.54-.54h-.6c-.3 0-.55.24-.55.54v2.4c0 .3.24.54.54.54h.61c.3 0 .54-.24.54-.54v-2.4zM147.5 124.4a.48.48 0 01-.47-.49v-7.15c0-.26.21-.47.48-.47h.27c.27 0 .48.21.48.47v7.63h-.75zM153.78 124.4h-.4l-.3-.43a.24.24 0 00-.2-.1c-.3 0-.51.56-1.26.56h-.16c-.84 0-1.4-.7-1.4-1.47v-3.77c0-.27.2-.48.47-.48h.28c.26 0 .48.21.48.48v3.58c0 .29.23.52.51.52h.66c.29 0 .52-.23.52-.52v-3.58c0-.27.21-.48.48-.48h.27c.27 0 .48.21.48.48v4.76c0 .16-.1.44-.43.44zM157.67 119.81v4.1c0 .27-.21.48-.48.48h-.27a.48.48 0 01-.48-.48v-4.1h-.53c-.26 0-.48-.17-.48-.43v-.24c0-.27.22-.43.48-.43h.53v-1.95c0-.26.21-.48.48-.48h.27c.27 0 .48.22.48.48v1.95h.93c.26 0 .48.16.48.43v.67h-1.4zM160.84 117.8h-.28a.48.48 0 01-.47-.47v-.57c0-.26.21-.48.47-.48h.28c.27 0 .48.22.48.48v.57c0 .26-.22.48-.48.48zm0 6.6h-.28a.48.48 0 01-.47-.49v-4.72c0-.27.21-.48.47-.48h.28c.27 0 .48.21.48.48v4.72c0 .27-.22.48-.48.48zM165.77 124.4h-1.16a1.5 1.5 0 01-1.5-1.5v-2.7c0-.82.67-1.5 1.5-1.5h1.16c.83 0 1.5.68 1.5 1.5v2.7c0 .82-.67 1.5-1.5 1.5zm.26-4.05c0-.3-.24-.54-.54-.54h-.6c-.3 0-.55.24-.55.54v2.4c0 .3.24.54.54.54h.62c.3 0 .54-.24.54-.54v-2.4zM172.63 124.4h-.27a.48.48 0 01-.48-.49v-3.58a.51.51 0 00-.52-.52h-.66a.51.51 0 00-.51.52v3.58c0 .27-.22.48-.48.48h-.28a.48.48 0 01-.48-.48v-4.76c0-.17.11-.44.43-.44h.41l.3.43c.06.08.13.12.2.12.26 0 .6-.59 1.31-.59h.18c.85 0 1.33.69 1.33 1.45v3.8c0 .25-.21.47-.48.47zM178.32 124.4h-.4l-.3-.43a.24.24 0 00-.2-.1c-.3 0-.51.56-1.26.56H176c-.84 0-1.4-.7-1.4-1.47v-.79c0-.77.56-1.45 1.4-1.45h.16c.75 0 .95.59 1.25.59.08 0 .1-.1.1-.2v-.83c0-.25-.2-.47-.47-.47h-2.02v-.74c0-.22.2-.36.47-.36h1.73c1.08 0 1.53.62 1.53 1.4v3.84c0 .16-.1.44-.43.44zm-2.34-6.52h-.3c-.19 0-.42-.12-.42-.4v-.8c0-.2.15-.4.41-.4h.35c.26 0 .4.2.4.4v.8c0 .28-.22.4-.44.4zm1.54 4.5a.51.51 0 00-.52-.52h-.66a.51.51 0 00-.51.52v.4c0 .28.23.5.51.5h.66c.29 0 .52-.22.52-.5v-.4zm.45-4.5h-.3c-.19 0-.42-.12-.42-.4v-.8c0-.2.15-.4.41-.4h.35c.26 0 .4.2.4.4v.8c0 .28-.22.4-.44.4zM182.16 119.81c-.22 0-.49.2-.49.5v3.6c0 .27-.21.48-.48.48h-.27a.48.48 0 01-.48-.48v-4.76c0-.17.1-.44.43-.44h.4l.3.43c.07.08.14.12.2.12.26 0 .42-.55 1.13-.55h.75c.27 0 .48.17.48.43v.67h-1.97zM188.3 122.02h-2.19v.78c0 .3.22.49.5.49h1.81v.67c0 .26-.21.43-.47.43h-1.57a1.5 1.5 0 01-1.5-1.5v-2.68c0-.84.67-1.5 1.5-1.5h1.16c.83 0 1.5.67 1.5 1.5v1.06c0 .41-.34.75-.75.75zm-.5-1.73a.48.48 0 00-.48-.48h-.73a.48.48 0 00-.48.48v.73h1.7v-.73zM197.67 124.36l-.27.06a.45.45 0 01-.55-.34l-.48-1.95h-1.83l-.48 1.95c-.06.25-.3.4-.56.34l-.26-.06c-.18-.04-.35-.24-.35-.45l.01-.12 1.72-7.16c.06-.25.26-.35.51-.35h1.07l1.8 7.51.01.1c0 .22-.15.42-.34.47zm-1.9-4.81c-.18-.75-.3-2.21-.3-2.21h-.04s-.12 1.46-.3 2.2l-.34 1.48h1.33l-.35-1.47zM202.96 124.4h-.28a.48.48 0 01-.48-.49v-3.58a.51.51 0 00-.51-.52h-.66a.51.51 0 00-.52.52v3.58c0 .27-.21.48-.48.48h-.27a.48.48 0 01-.48-.48v-4.76c0-.17.1-.44.43-.44h.4l.3.43c.07.08.14.12.2.12.26 0 .61-.59 1.32-.59h.18c.85 0 1.33.69 1.33 1.45v3.8c0 .25-.22.47-.48.47zM206.9 119.81v4.1c0 .27-.22.48-.49.48h-.27a.48.48 0 01-.48-.48v-4.1h-.53c-.26 0-.48-.17-.48-.43v-.24c0-.27.22-.43.48-.43h.53v-1.95c0-.26.22-.48.48-.48h.27c.27 0 .48.22.48.48v1.95h.93c.26 0 .48.16.48.43v.67h-1.4zM212.88 124.4h-.27a.48.48 0 01-.48-.49v-3.58a.51.51 0 00-.52-.52h-.66a.51.51 0 00-.51.52v3.58c0 .27-.22.48-.48.48h-.28a.48.48 0 01-.48-.48v-7.15c0-.26.22-.47.48-.47h.76v2.77c0 .1.02.2.1.2.3 0 .5-.59 1.25-.59h.17c.84 0 1.4.69 1.4 1.45v3.8c0 .25-.22.47-.48.47zM216.77 119.81c-.23 0-.5.2-.5.5v3.6c0 .27-.2.48-.47.48h-.28a.48.48 0 01-.48-.48v-4.76c0-.17.11-.44.44-.44h.4l.3.43c.06.08.14.12.2.12.26 0 .42-.55 1.12-.55h.76c.26 0 .48.17.48.43v.67h-1.97zM222.15 124.4h-1.17a1.5 1.5 0 01-1.5-1.5v-2.7c0-.82.68-1.5 1.5-1.5h1.17c.82 0 1.5.68 1.5 1.5v2.7c0 .82-.68 1.5-1.5 1.5zm.26-4.05c0-.3-.24-.54-.54-.54h-.61c-.3 0-.54.24-.54.54v2.4c0 .3.24.54.54.54h.61c.3 0 .54-.24.54-.54v-2.4zM228.09 124.43h-.17c-.75 0-.95-.57-1.25-.57-.06 0-.1.03-.1.14v2.55c0 .27-.22.48-.49.48h-.27a.48.48 0 01-.48-.48v-7.4c0-.17.1-.44.43-.44h.4l.3.43c.07.1.15.12.21.12.3 0 .5-.59 1.25-.59h.17c.84 0 1.4.69 1.4 1.45v2.85c0 .76-.57 1.46-1.4 1.46zm.16-4.1a.51.51 0 00-.51-.52h-.66a.51.51 0 00-.52.51v2.45c0 .29.23.52.52.52h.66c.28 0 .51-.23.51-.52v-2.44zM233.75 124.4h-1.16a1.5 1.5 0 01-1.5-1.5v-2.7c0-.82.67-1.5 1.5-1.5h1.16c.83 0 1.5.68 1.5 1.5v2.7c0 .82-.67 1.5-1.5 1.5zm.26-4.05c0-.3-.24-.54-.54-.54h-.6c-.3 0-.55.24-.55.54v2.4c0 .3.24.54.54.54h.61c.3 0 .54-.24.54-.54v-2.4zM237.52 124.4a.48.48 0 01-.48-.49v-7.15c0-.26.22-.47.48-.47h.27c.27 0 .48.21.48.47v7.63h-.75zM242.72 124.4h-1.16a1.5 1.5 0 01-1.5-1.5v-2.7c0-.82.67-1.5 1.5-1.5h1.16c.83 0 1.5.68 1.5 1.5v2.7c0 .82-.67 1.5-1.5 1.5zm.27-4.05c0-.3-.24-.54-.54-.54h-.61c-.3 0-.54.24-.54.54v2.4c0 .3.24.54.54.54h.61c.3 0 .54-.24.54-.54v-2.4zM248.57 127.03h-1.54c-.26 0-.48-.17-.48-.43v-.68h1.74c.3 0 .54-.24.54-.54V124c0-.1-.05-.13-.1-.13-.3 0-.5.56-1.25.56h-.17c-.84 0-1.4-.69-1.4-1.46v-2.84c0-.77.56-1.45 1.4-1.45h.17c.74 0 .95.59 1.25.59.06 0 .14-.02.21-.12l.29-.44h.4c.33 0 .44.28.44.45v6.38c0 .83-.67 1.5-1.5 1.5zm.26-6.7a.51.51 0 00-.51-.52h-.66a.51.51 0 00-.52.51v2.45c0 .29.23.52.52.52h.66c.29 0 .51-.23.51-.52v-2.44zM252.61 117.8h-.27a.48.48 0 01-.48-.47v-.57c0-.26.21-.48.48-.48h.27c.27 0 .48.22.48.48v.57c0 .26-.21.48-.48.48zm0 6.6h-.27a.48.48 0 01-.48-.49v-4.72c0-.27.21-.48.48-.48h.27c.27 0 .48.21.48.48v4.72c0 .27-.21.48-.48.48zM258.3 122.02h-2.18v.78c0 .3.21.49.49.49h1.82v.67c0 .26-.22.43-.48.43h-1.57a1.5 1.5 0 01-1.5-1.5v-2.68c0-.84.67-1.5 1.5-1.5h1.16c.83 0 1.5.67 1.5 1.5v1.06c0 .41-.33.75-.74.75zm-.5-1.73a.48.48 0 00-.47-.48h-.73a.48.48 0 00-.48.48v.73h1.69v-.73zM264.26 122h-.47a.48.48 0 01-.48-.49v-.8c0-.27.21-.48.48-.48h.47c.27 0 .48.21.48.48v.8c0 .27-.21.48-.48.48zM273.62 124.36l-.26.06a.45.45 0 01-.55-.34l-.48-1.95h-1.84l-.48 1.95c-.06.25-.3.4-.55.34l-.26-.06c-.18-.04-.35-.24-.35-.45l.01-.12 1.72-7.16c.06-.25.26-.35.51-.35h1.07l1.8 7.51.01.1c0 .22-.16.42-.35.47zm-1.9-4.81c-.17-.75-.3-2.21-.3-2.21h-.03s-.12 1.46-.3 2.2l-.35 1.48h1.34l-.35-1.47zM278 124.43h-.18c-.74 0-.94-.57-1.24-.57a.24.24 0 00-.22.11l-.29.42h-.4c-.33 0-.44-.27-.44-.44v-7.19c0-.26.22-.48.48-.48h.76v2.78c0 .1.02.2.1.2.3 0 .51-.59 1.25-.59h.17c.84 0 1.4.69 1.4 1.45v2.84c0 .77-.56 1.47-1.4 1.47zm.16-4.1a.51.51 0 00-.52-.52H277a.51.51 0 00-.52.51v2.45c0 .29.23.52.51.52h.66c.3 0 .52-.23.52-.52v-2.44zM282.85 119.81v4.1c0 .27-.21.48-.48.48h-.27a.48.48 0 01-.48-.48v-4.1h-.53c-.26 0-.48-.17-.48-.43v-.24c0-.27.22-.43.48-.43h.53v-1.95c0-.26.22-.48.48-.48h.27c.27 0 .48.22.48.48v1.95h.93c.26 0 .47.16.47.43v.67h-1.4zM288.58 122.02h-2.19v.78c0 .3.22.49.5.49h1.82v.67c0 .26-.22.43-.48.43h-1.57a1.5 1.5 0 01-1.5-1.5v-2.68c0-.84.67-1.5 1.5-1.5h1.16c.83 0 1.5.67 1.5 1.5v1.06c0 .41-.34.75-.74.75zm-.5-1.73a.48.48 0 00-.48-.48h-.73a.48.48 0 00-.48.48v.73h1.7v-.73zM291.6 117.8h-.27a.48.48 0 01-.48-.47v-.57c0-.26.21-.48.48-.48h.27c.26 0 .48.22.48.48v.57c0 .26-.21.48-.48.48zm0 6.6h-.27a.48.48 0 01-.48-.49v-4.72c0-.27.21-.48.48-.48h.27c.26 0 .48.21.48.48v4.72c0 .27-.21.48-.48.48zM294.46 124.4a.48.48 0 01-.48-.49v-7.15c0-.26.21-.47.48-.47h.27c.27 0 .48.21.48.47v7.63h-.75zM300.73 124.4h-.4l-.3-.43a.24.24 0 00-.21-.1c-.3 0-.5.56-1.25.56h-.17c-.84 0-1.4-.7-1.4-1.47v-3.77c0-.27.22-.48.48-.48h.28c.26 0 .48.21.48.48v3.58c0 .29.22.52.51.52h.66c.29 0 .52-.23.52-.52v-3.58c0-.27.21-.48.48-.48h.27c.27 0 .48.21.48.48v4.76c0 .16-.1.44-.43.44zM306.53 124.4h-.28a.48.48 0 01-.48-.49v-3.58a.51.51 0 00-.51-.52h-.66a.51.51 0 00-.52.52v3.58c0 .27-.21.48-.48.48h-.27a.48.48 0 01-.48-.48v-4.76c0-.17.1-.44.43-.44h.4l.3.43c.07.08.14.12.2.12.26 0 .6-.59 1.32-.59h.18c.85 0 1.33.69 1.33 1.45v3.8c0 .25-.22.47-.48.47zM311.35 127.03h-1.53c-.27 0-.48-.17-.48-.43v-.68h1.74c.3 0 .54-.24.54-.54V124c0-.1-.05-.13-.11-.13-.3 0-.5.56-1.25.56h-.17c-.84 0-1.4-.69-1.4-1.46v-2.84c0-.77.56-1.45 1.4-1.45h.17c.74 0 .95.59 1.25.59.06 0 .14-.02.21-.12l.3-.44h.4c.32 0 .43.28.43.45v6.38c0 .83-.67 1.5-1.5 1.5zm.27-6.7a.51.51 0 00-.52-.52h-.66a.51.51 0 00-.52.51v2.45c0 .29.23.52.52.52h.66c.29 0 .52-.23.52-.52v-2.44zM320.45 117.39h-1.17c-.3 0-.53.24-.53.54v.78h1.2c.26 0 .47.16.47.43v.24c0 .26-.21.43-.48.43h-1.2v4.1c0 .27-.21.48-.48.48H318a.48.48 0 01-.48-.48v-6.13c0-.82.67-1.5 1.5-1.5h1.92v.68c0 .26-.22.43-.48.43zM325.14 124.4h-.4l-.3-.43a.24.24 0 00-.21-.1c-.3 0-.5.56-1.25.56h-.17c-.84 0-1.4-.7-1.4-1.47v-3.77c0-.27.21-.48.48-.48h.27c.27 0 .48.21.48.48v3.58c0 .29.23.52.52.52h.66c.29 0 .51-.23.51-.52v-3.58c0-.27.22-.48.48-.48h.28c.26 0 .48.21.48.48v4.76c0 .16-.1.44-.43.44zm-2.56-6.52h-.3c-.19 0-.41-.12-.41-.4v-.8c0-.2.14-.4.4-.4h.35c.26 0 .4.2.4.4v.8c0 .28-.22.4-.44.4zm2 0h-.3c-.2 0-.42-.12-.42-.4v-.8c0-.2.14-.4.4-.4h.35c.26 0 .4.2.4.4v.8c0 .28-.22.4-.44.4zM328.98 119.81c-.23 0-.5.2-.5.5v3.6c0 .27-.2.48-.47.48h-.28a.48.48 0 01-.47-.48v-4.76c0-.17.1-.44.43-.44h.4l.3.43c.07.08.14.12.2.12.26 0 .42-.55 1.12-.55h.76c.26 0 .48.17.48.43v.67h-1.97zM339.25 116.9l-1.63 6.82c-.08.32-.43.67-.74.67h-.36c-.32 0-.66-.35-.75-.67l-1.63-6.81-.01-.11c0-.22.17-.43.37-.48l.27-.06c.26-.06.51.1.57.36l.97 4.04c.23.96.37 2.54.37 2.54h.03s.14-1.58.37-2.54l.97-4.04a.47.47 0 01.58-.36l.26.06c.2.05.37.26.37.48l-.01.1zM343.46 122.02h-2.18v.78c0 .3.22.49.5.49h1.81v.67c0 .26-.21.43-.47.43h-1.58a1.5 1.5 0 01-1.5-1.5v-2.68c0-.84.68-1.5 1.5-1.5h1.17c.83 0 1.5.67 1.5 1.5v1.06c0 .41-.34.75-.75.75zm-.49-1.73a.48.48 0 00-.48-.48h-.73a.48.48 0 00-.48.48v.73h1.7v-.73zM347.35 119.81c-.23 0-.49.2-.49.5v3.6c0 .27-.22.48-.48.48h-.27a.48.48 0 01-.48-.48v-4.76c0-.17.1-.44.43-.44h.4l.3.43c.07.08.14.12.2.12.26 0 .42-.55 1.13-.55h.75c.26 0 .48.17.48.43v.67h-1.97zM352.73 127.03h-1.54c-.26 0-.48-.17-.48-.43v-.68h1.74c.3 0 .54-.24.54-.54V124c0-.1-.05-.13-.1-.13-.3 0-.51.56-1.25.56h-.17c-.84 0-1.4-.69-1.4-1.46v-2.84c0-.77.56-1.45 1.4-1.45h.17c.74 0 .94.59 1.24.59.06 0 .15-.02.22-.12l.29-.44h.4c.33 0 .44.28.44.45v6.38c0 .83-.68 1.5-1.5 1.5zm.26-6.7a.51.51 0 00-.52-.52h-.65a.51.51 0 00-.52.51v2.45c0 .29.23.52.52.52h.65c.3 0 .52-.23.52-.52v-2.44zM356.5 124.4a.48.48 0 01-.48-.49v-7.15c0-.26.21-.47.48-.47h.27c.27 0 .48.21.48.47v7.63h-.75zM362.46 122.02h-2.18v.78c0 .3.21.49.49.49h1.82v.67c0 .26-.22.43-.48.43h-1.57a1.5 1.5 0 01-1.5-1.5v-2.68c0-.84.67-1.5 1.5-1.5h1.16c.83 0 1.5.67 1.5 1.5v1.06c0 .41-.33.75-.74.75zm-.5-1.73a.48.48 0 00-.47-.48h-.73a.48.48 0 00-.48.48v.73h1.69v-.73zM365.48 117.8h-.27a.48.48 0 01-.48-.47v-.57c0-.26.21-.48.48-.48h.27c.27 0 .48.22.48.48v.57c0 .26-.21.48-.48.48zm0 6.6h-.27a.48.48 0 01-.48-.49v-4.72c0-.27.21-.48.48-.48h.27c.27 0 .48.21.48.48v4.72c0 .27-.21.48-.48.48zM370.68 124.4h-1.43a1.5 1.5 0 01-1.5-1.5v-2.7c0-.82.67-1.5 1.5-1.5h1.3c.26 0 .48.17.48.44v.67h-1.5c-.3 0-.54.24-.54.54v2.4c0 .3.24.54.54.54h1.63v.67c0 .26-.22.43-.48.43zM376.08 124.4h-.28a.48.48 0 01-.48-.49v-3.58a.51.51 0 00-.51-.52h-.66a.51.51 0 00-.52.52v3.58c0 .27-.21.48-.48.48h-.27a.48.48 0 01-.48-.48v-7.15c0-.26.21-.47.48-.47h.75v2.77c0 .1.03.2.11.2.3 0 .5-.59 1.25-.59h.17c.83 0 1.4.69 1.4 1.45v3.8c0 .25-.22.47-.48.47zM381.66 122.02h-2.19v.78c0 .3.22.49.5.49h1.82v.67c0 .26-.22.43-.48.43h-1.57a1.5 1.5 0 01-1.5-1.5v-2.68c0-.84.67-1.5 1.5-1.5h1.16c.83 0 1.5.67 1.5 1.5v1.06c0 .41-.33.75-.74.75zm-.5-1.73a.48.48 0 00-.47-.48h-.73a.48.48 0 00-.48.48v.73h1.69v-.73zM387.5 124.4h-.27a.48.48 0 01-.48-.49v-3.58a.51.51 0 00-.52-.52h-.66a.51.51 0 00-.51.52v3.58c0 .27-.22.48-.48.48h-.28a.48.48 0 01-.48-.48v-4.76c0-.17.1-.44.43-.44h.41l.3.43c.06.08.13.12.2.12.26 0 .6-.59 1.31-.59h.18c.85 0 1.33.69 1.33 1.45v3.8c0 .25-.22.47-.48.47zM393.4 124.4h-.41l-.3-.43a.24.24 0 00-.2-.1c-.3 0-.51.56-1.26.56h-.16c-.84 0-1.4-.7-1.4-1.47v-2.84c0-.77.56-1.45 1.4-1.45h.16c.75 0 .95.59 1.25.59.09 0 .11-.1.11-.2v-2.3c0-.26.22-.48.48-.48h.75v7.67c0 .16-.1.44-.43.44zm-.81-4.08a.51.51 0 00-.52-.51h-.66a.51.51 0 00-.51.51v2.45c0 .29.23.52.51.52h.66c.3 0 .52-.23.52-.52v-2.44zM398.93 122.02h-2.19v.78c0 .3.22.49.5.49h1.82v.67c0 .26-.22.43-.48.43H397a1.5 1.5 0 01-1.5-1.5v-2.68c0-.84.67-1.5 1.5-1.5h1.16c.83 0 1.5.67 1.5 1.5v1.06c0 .41-.34.75-.74.75zm-.5-1.73a.48.48 0 00-.47-.48h-.74a.48.48 0 00-.47.48v.73h1.69v-.73zM408.75 124.14l-.2.18a.5.5 0 01-.68-.06l-2.51-2.95v2.6c0 .27-.22.48-.48.48h-.28a.48.48 0 01-.48-.48v-7.15c0-.26.22-.48.48-.48h.76v3l2.24-2.85c.17-.2.45-.25.65-.09l.6.47-2.73 3.47 2.7 3.19c.07.08.1.18.1.29 0 .14-.05.28-.17.38zM413.61 124.4h-.4l-.3-.43a.24.24 0 00-.2-.1c-.3 0-.51.56-1.25.56h-.17c-.84 0-1.4-.7-1.4-1.47v-3.77c0-.27.21-.48.47-.48h.28c.26 0 .48.21.48.48v3.58c0 .29.23.52.51.52h.66c.3 0 .52-.23.52-.52v-3.58c0-.27.22-.48.48-.48h.27c.27 0 .48.21.48.48v4.76c0 .16-.1.44-.43.44zM416.32 124.4a.48.48 0 01-.48-.49v-7.15c0-.26.21-.47.48-.47h.27c.26 0 .48.21.48.47v7.63h-.75zM420.63 119.81v4.1c0 .27-.21.48-.48.48h-.27a.48.48 0 01-.48-.48v-4.1h-.53c-.26 0-.48-.17-.48-.43v-.24c0-.27.22-.43.48-.43h.53v-1.95c0-.26.22-.48.48-.48h.28c.26 0 .47.22.47.48v1.95h.93c.26 0 .48.16.48.43v.67h-1.4zM426.67 124.4h-.4l-.3-.43a.24.24 0 00-.21-.1c-.3 0-.5.56-1.25.56h-.17c-.84 0-1.4-.7-1.4-1.47v-3.77c0-.27.22-.48.48-.48h.28c.26 0 .47.21.47.48v3.58c0 .29.23.52.52.52h.66c.29 0 .52-.23.52-.52v-3.58c0-.27.21-.48.48-.48h.27c.26 0 .48.21.48.48v4.76c0 .16-.1.44-.43.44zM430.51 119.81c-.23 0-.5.2-.5.5v3.6c0 .27-.2.48-.47.48h-.28a.48.48 0 01-.47-.48v-4.76c0-.17.1-.44.43-.44h.4l.3.43c.07.08.14.12.2.12.26 0 .42-.55 1.12-.55h.76c.26 0 .48.17.48.43v.67h-1.97zM435.98 124.43h-.17c-.74 0-.94-.57-1.24-.57-.06 0-.11.03-.11.14v2.55c0 .27-.22.48-.48.48h-.28a.48.48 0 01-.47-.48v-7.4c0-.17.1-.44.43-.44h.4l.3.43c.06.1.15.12.2.12.3 0 .51-.59 1.26-.59h.16c.84 0 1.4.69 1.4 1.45v2.85c0 .76-.56 1.46-1.4 1.46zm.17-4.1a.51.51 0 00-.52-.52h-.66a.51.51 0 00-.51.51v2.45c0 .29.23.52.51.52h.66c.3 0 .52-.23.52-.52v-2.44zM441.07 124.4h-1.82c-.27 0-.48-.18-.48-.44v-.67h2.02c.35 0 .54-.3.54-.6 0-.33-.16-.69-.54-.69h-.73c-.79 0-1.36-.54-1.36-1.34v-.46c0-.82.67-1.5 1.5-1.5h1.56c.26 0 .46.17.46.44v.67h-1.75c-.35 0-.53.3-.53.61 0 .3.17.6.53.6h.76c.83 0 1.35.58 1.35 1.4v.47c0 .83-.68 1.5-1.51 1.5zM448.42 119.38l-2.8 7.33a.46.46 0 01-.6.26l-.18-.07a.46.46 0 01-.27-.6l.72-1.92c-.07-.06-.1-.15-.12-.23l-1.82-4.75a.33.33 0 01-.04-.14c0-.2.11-.39.3-.46l.26-.1c.24-.1.5.02.6.26l.8 2.05c.26.67.64 2.07.64 2.07h.03s.35-1.37.63-2.06l.81-2.06c.1-.24.36-.35.6-.25l.18.07c.2.08.29.24.29.44 0 .06 0 .1-.03.16zM452.4 124.4h-1.43a1.5 1.5 0 01-1.5-1.5v-2.7c0-.82.67-1.5 1.5-1.5h1.3c.26 0 .48.17.48.44v.67h-1.5c-.3 0-.54.24-.54.54v2.4c0 .3.23.54.54.54h1.63v.67c0 .26-.22.43-.48.43zM457.8 124.4h-.28a.48.48 0 01-.48-.49v-3.58a.51.51 0 00-.51-.52h-.66a.51.51 0 00-.52.52v3.58c0 .27-.21.48-.48.48h-.27a.48.48 0 01-.48-.48v-7.15c0-.26.21-.47.48-.47h.75v2.77c0 .1.03.2.1.2.3 0 .51-.59 1.26-.59h.17c.83 0 1.4.69 1.4 1.45v3.8c0 .25-.22.47-.48.47zM462.62 124.4h-1.16a1.5 1.5 0 01-1.5-1.5v-2.7c0-.82.67-1.5 1.5-1.5h1.16c.83 0 1.5.68 1.5 1.5v2.7c0 .82-.67 1.5-1.5 1.5zm.26-4.05c0-.3-.24-.54-.54-.54h-.6c-.3 0-.55.24-.55.54v2.4c0 .3.24.54.54.54h.61c.3 0 .54-.24.54-.54v-2.4zM466.4 124.4a.48.48 0 01-.49-.49v-7.15c0-.26.22-.47.48-.47h.28c.26 0 .47.21.47.47v7.63h-.75zM471.6 124.4h-1.17a1.5 1.5 0 01-1.5-1.5v-2.7c0-.82.68-1.5 1.5-1.5h1.17c.82 0 1.5.68 1.5 1.5v2.7c0 .82-.68 1.5-1.5 1.5zm.26-4.05c0-.3-.24-.54-.54-.54h-.61c-.3 0-.54.24-.54.54v2.4c0 .3.24.54.54.54h.61c.3 0 .54-.24.54-.54v-2.4zM477.44 127.03h-1.53c-.27 0-.48-.17-.48-.43v-.68h1.74c.3 0 .54-.24.54-.54V124c0-.1-.05-.13-.11-.13-.3 0-.5.56-1.25.56h-.17c-.84 0-1.4-.69-1.4-1.46v-2.84c0-.77.56-1.45 1.4-1.45h.17c.74 0 .95.59 1.25.59.06 0 .14-.02.21-.12l.3-.44h.4c.32 0 .43.28.43.45v6.38c0 .83-.67 1.5-1.5 1.5zm.27-6.7a.51.51 0 00-.52-.52h-.66a.51.51 0 00-.52.51v2.45c0 .29.23.52.52.52h.66c.29 0 .52-.23.52-.52v-2.44zM481.49 117.8h-.28a.48.48 0 01-.48-.47v-.57c0-.26.22-.48.48-.48h.28c.26 0 .47.22.47.48v.57c0 .26-.21.48-.47.48zm0 6.6h-.28a.48.48 0 01-.48-.49v-4.72c0-.27.22-.48.48-.48h.28c.26 0 .47.21.47.48v4.72c0 .27-.21.48-.47.48zM487.17 122.02H485v.78c0 .3.22.49.5.49h1.81v.67c0 .26-.21.43-.48.43h-1.57a1.5 1.5 0 01-1.5-1.5v-2.68c0-.84.68-1.5 1.5-1.5h1.17c.82 0 1.5.67 1.5 1.5v1.06c0 .41-.34.75-.75.75zm-.49-1.73a.48.48 0 00-.48-.48h-.73a.48.48 0 00-.48.48v.73h1.7v-.73zM20 138.8h-2.6v-7.83c0-.12.08-.29.27-.29h.17a.3.3 0 01.25.14l.16.27c.03.06.08.12.18.12.28 0 .62-.56 1.39-.56h.13c.75 0 1.41.42 1.41 1.35v5.53c0 .63-.51 1.26-1.36 1.26zm.48-6.65a.65.65 0 00-.65-.66h-.89c-.4 0-.66.33-.66.66v5.84h1.43c.44 0 .77-.35.77-.78v-5.06zM26.36 136.3h-2.22v.96c0 .44.25.73.78.73h1.23c.2 0 .36.13.36.33v.14c0 .2-.15.33-.36.33h-1.6c-.69 0-1.3-.62-1.3-1.37v-3c0-.73.63-1.31 1.38-1.31h1.04c.73 0 1.38.58 1.38 1.32v1.16c0 .51-.32.72-.7.72zm-.2-1.74c0-.37-.3-.65-.64-.65h-.73a.64.64 0 00-.65.65v1h2.03v-1zM32.07 138.8h-.18c-.12 0-.22-.1-.27-.18l-.1-.2c-.03-.04-.06-.12-.2-.12-.3 0-.55.53-1.27.53h-.18c-.73 0-1.33-.63-1.33-1.36v-4c0-.2.16-.36.36-.36h.17c.2 0 .36.15.36.36v3.76c0 .42.34.76.76.76h.51c.42 0 .76-.34.76-.76v-3.76c0-.2.15-.36.36-.36h.16c.2 0 .36.15.36.36v5.02c0 .14-.1.3-.27.3zM36.8 133.91h-1.25v4.52c0 .2-.17.36-.36.36h-.17a.35.35 0 01-.36-.36v-4.52h-.68c-.2 0-.36-.13-.36-.34v-.13c0-.2.15-.33.36-.33h.68v-2.07c0-.2.16-.36.36-.36h.17c.2 0 .36.16.36.36v2.07h1.25c.2 0 .36.13.36.33v.13c0 .2-.16.34-.36.34zM40.36 138.8h-2.03c-.2 0-.36-.14-.36-.35v-.13c0-.2.16-.33.36-.33h1.85c.41 0 .53-.42.53-.69v-.48c0-.21-.12-.51-.53-.51h-1.02c-.59 0-1.17-.46-1.17-1.18v-.78c0-.49.49-1.24 1.36-1.24h1.53c.2 0 .36.13.36.33v.13c0 .2-.16.34-.36.34h-1.32c-.45 0-.69.25-.69.61v.44c0 .28.23.6.66.6h.99c.57 0 1.07.36 1.07 1.08v.8c0 .85-.5 1.35-1.23 1.35zM46.1 138.8h-1.63c-.75 0-1.32-.65-1.32-1.38v-2.98c0-.73.62-1.33 1.36-1.33h1.47c.2 0 .36.13.36.33v.14c0 .2-.16.33-.36.33h-1.15c-.58 0-.8.34-.8.78v2.56c0 .56.36.74.8.74h1.28c.2 0 .36.13.36.33v.14c0 .2-.16.33-.36.33zM51.13 138.8h-.17a.35.35 0 01-.36-.37v-3.77a.75.75 0 00-.76-.75h-.52a.75.75 0 00-.75.76v3.76c0 .2-.17.36-.36.36h-.17a.35.35 0 01-.36-.36v-7.39c0-.2.16-.36.36-.36h.17c.2 0 .36.16.36.36v2.39c0 .12.04.2.14.2.3 0 .6-.56 1.26-.56h.18c.73 0 1.33.58 1.33 1.37v4c0 .2-.16.35-.35.35zM56.3 136.3h-2.22v.96c0 .44.25.73.78.73h1.23c.2 0 .36.13.36.33v.14c0 .2-.15.33-.36.33h-1.6c-.69 0-1.3-.62-1.3-1.37v-3c0-.73.64-1.31 1.38-1.31h1.04c.73 0 1.38.58 1.38 1.32v1.16c0 .51-.32.72-.7.72zm-.2-1.74c0-.37-.3-.65-.64-.65h-.73a.64.64 0 00-.65.65v1h2.03v-1zM61.4 133.91h-1.31c-.36 0-.72.26-.72.77v3.75c0 .2-.17.36-.36.36h-.17a.35.35 0 01-.36-.36v-5.02c0-.16.1-.3.33-.3h.15c.12 0 .2.1.23.16l.1.22c.04.08.12.14.22.14.3 0 .58-.52 1.25-.52h.64c.2 0 .36.13.36.33v.14c0 .2-.16.33-.36.33zM67.97 135.15h-1.52v3.28c0 .2-.17.36-.36.36h-.17a.35.35 0 01-.36-.36v-7.46c0-.12.09-.29.28-.29H66a.3.3 0 01.25.14l.15.27c.04.06.09.12.18.12.3 0 .58-.56 1.26-.56h.18c.75 0 1.34.59 1.34 1.35v1.75c0 .74-.65 1.4-1.4 1.4zm.5-3a.65.65 0 00-.65-.66h-.71a.67.67 0 00-.66.66v2.2h1.3c.45 0 .73-.4.73-.68v-1.52zM71.6 138.8h-.17a.35.35 0 01-.36-.37v-7.39c0-.2.15-.36.36-.36h.17c.19 0 .36.16.36.36v7.4c0 .2-.17.35-.36.35zM77.28 138.8h-.18c-.12 0-.21-.1-.26-.18l-.1-.2c-.03-.04-.07-.12-.2-.12-.3 0-.55.53-1.27.53h-.18c-.73 0-1.33-.63-1.33-1.36v-.92c0-.8.6-1.37 1.33-1.37h.18c.67 0 .96.56 1.26.56.1 0 .14-.08.14-.2v-.86c0-.47-.26-.77-.79-.77h-1.37c-.2 0-.35-.13-.35-.34v-.13c0-.2.15-.33.35-.33h1.7c.72 0 1.35.6 1.35 1.3v4.08c0 .14-.1.3-.28.3zm-.6-2.02a.75.75 0 00-.76-.76h-.52a.75.75 0 00-.76.76v.45c0 .42.34.76.76.76h.52c.42 0 .75-.34.75-.76v-.45zM82.01 133.91h-1.25v4.52c0 .2-.16.36-.36.36h-.16a.35.35 0 01-.36-.36v-4.52h-.69c-.2 0-.36-.13-.36-.34v-.13c0-.2.16-.33.36-.33h.69v-2.07c0-.2.15-.36.36-.36h.16c.2 0 .36.16.36.36v2.07h1.25c.2 0 .36.13.36.33v.13c0 .2-.16.34-.36.34zM86.64 138.8h-3.33c-.17 0-.34-.15-.34-.33v-.2c0-.05.04-.2.09-.27l2.78-4.09H83.4c-.2 0-.36-.13-.36-.34v-.13c0-.2.16-.33.36-.33h3.23c.17 0 .33.14.33.32v.1c0 .18-.16.4-.22.49l-2.7 3.97h2.6c.2 0 .36.13.36.33v.13c0 .2-.16.34-.36.34zM93.56 138.8h-1.14c-.74 0-1.35-.58-1.35-1.33v-5.42c0-.87.67-1.37 1.3-1.37h1.7c.2 0 .36.14.36.34v.13c0 .2-.17.34-.36.34h-1.3c-.55 0-.81.31-.81.8v2.44a.98.98 0 01.82-.42h.79c.74 0 1.33.6 1.33 1.33v1.86c0 .73-.61 1.3-1.34 1.3zm.45-2.84c0-.51-.25-.85-.7-.85h-.64c-.4 0-.7.27-.7.78v1.3c0 .5.27.8.71.8h.62c.45 0 .71-.35.71-.78v-1.25zM97.54 139.28l-.5.89c-.05.08-.15.12-.23.08l-.06-.02c-.09-.03-.12-.13-.09-.21l.36-.77c.05-.1.07-.2.07-.24 0-.09-.03-.16-.1-.18-.15-.08-.35-.14-.35-.38v-.84c0-.21.2-.34.36-.34h.38c.18 0 .36.14.36.34v.9c0 .28-.07.55-.2.77zM104.73 138.8h-1.12c-.74 0-1.36-.6-1.36-1.33V132c0-.73.62-1.32 1.36-1.32h1.12c.73 0 1.34.6 1.34 1.32v5.47c0 .73-.61 1.32-1.34 1.32zm.45-6.52c0-.45-.27-.8-.72-.8h-.63c-.45 0-.7.36-.7.8v4.92c0 .44.25.79.7.79h.63c.45 0 .72-.35.72-.8v-4.91zM111.6 136.37h-.79v2.06c0 .2-.17.36-.36.36h-.17a.35.35 0 01-.36-.36v-2.06h-1.99c-.36 0-.5-.25-.5-.53 0-.1.05-.2.08-.3l1.95-4.56c.07-.16.21-.3.42-.3h.5c.2 0 .43.12.43.45v4.43h.8c.18 0 .35.14.35.34v.13c0 .2-.16.34-.36.34zm-1.6-4.8c-.09.47-.41 1.21-.63 1.72l-.97 2.27h1.52v-3c0-.41.1-.99.1-.99H110zM115.52 138.8h-.17a.35.35 0 01-.36-.37v-6.26l-.8.52a.67.67 0 01-.18.04c-.16 0-.28-.12-.28-.24a.3.3 0 01.1-.21l1.33-1.4c.08-.08.19-.2.36-.2h.06c.18 0 .3.15.3.35v7.4c0 .2-.17.36-.36.36zM121.32 138.8h-1.11c-.74 0-1.37-.6-1.37-1.33V132c0-.73.62-1.32 1.37-1.32h1.11c.73 0 1.35.6 1.35 1.32v5.47c0 .73-.62 1.32-1.35 1.32zm.46-6.52c0-.45-.28-.8-.72-.8h-.64c-.44 0-.7.36-.7.8v4.92c0 .44.26.79.7.79h.64c.44 0 .72-.35.72-.8v-4.91zM126.41 138.8h-1.9c-.2 0-.36-.14-.36-.35v-.13c0-.2.15-.33.36-.33h1.58c.44 0 .77-.32.77-.76v-1.26c0-.44-.22-.83-.76-.83h-.77c-.2 0-.36-.13-.36-.33v-.13c0-.2.16-.34.36-.34h.75c.45 0 .66-.43.66-.85v-1.25c0-.5-.27-.75-.76-.75h-1.2c-.2 0-.36-.14-.36-.34v-.13c0-.2.16-.34.36-.34h1.51c.76 0 1.33.58 1.33 1.31v1.77c0 .52-.14.8-.54 1 .39.17.66.42.66 1.02v1.69c0 .73-.57 1.32-1.33 1.32zM136.06 138.8h-3.28v-7.76c0-.2.16-.36.36-.36h.17c.2 0 .36.16.36.36V138h2.39c.19 0 .36.13.36.33v.14c0 .2-.17.33-.36.33zM140.63 136.3h-2.22v.96c0 .44.25.73.78.73h1.24c.2 0 .36.13.36.33v.14c0 .2-.16.33-.36.33h-1.6c-.7 0-1.3-.62-1.3-1.37v-3c0-.73.63-1.31 1.37-1.31h1.05c.73 0 1.38.58 1.38 1.32v1.16c0 .51-.33.72-.7.72zm-.2-1.74c0-.37-.3-.65-.64-.65h-.73a.64.64 0 00-.65.65v1h2.03v-1zM143.66 132.06h-.17a.35.35 0 01-.36-.36v-.66c0-.2.15-.36.36-.36h.17c.19 0 .36.16.36.36v.66c0 .2-.17.36-.36.36zm0 6.73h-.17a.35.35 0 01-.36-.36v-4.96c0-.2.15-.36.36-.36h.17c.19 0 .36.15.36.36v4.96c0 .2-.17.36-.36.36zM148.5 138.83h-.18c-.72 0-.98-.53-1.26-.53-.1 0-.14.12-.14.23v2.54c0 .2-.17.36-.36.36h-.17a.35.35 0 01-.36-.36v-7.68c0-.11.09-.28.28-.28h.16a.3.3 0 01.26.13l.15.27c.04.07.1.12.18.12.3 0 .6-.56 1.26-.56h.18c.73 0 1.33.58 1.33 1.37v3.03c0 .73-.6 1.36-1.33 1.36zm.45-4.17a.75.75 0 00-.75-.75h-.52a.75.75 0 00-.76.76v2.57c0 .41.34.75.76.75h.52c.41 0 .75-.34.75-.75v-2.58zM154.8 138.8h-3.33c-.17 0-.34-.15-.34-.33v-.2c0-.05.04-.2.09-.27l2.78-4.09h-2.44c-.2 0-.36-.13-.36-.34v-.13c0-.2.16-.33.36-.33h3.23c.17 0 .32.14.32.32v.1c0 .18-.15.4-.21.49l-2.7 3.97h2.6c.2 0 .36.13.36.33v.13c0 .2-.17.34-.36.34zM157.31 132.06h-.17a.35.35 0 01-.36-.36v-.66c0-.2.16-.36.36-.36h.17c.2 0 .36.16.36.36v.66c0 .2-.17.36-.36.36zm0 6.73h-.17a.35.35 0 01-.36-.36v-4.96c0-.2.16-.36.36-.36h.17c.2 0 .36.15.36.36v4.96c0 .2-.17.36-.36.36zM162.16 141.43h-1.47c-.2 0-.35-.13-.35-.34v-.13c0-.2.15-.33.35-.33h1.12c.58 0 .8-.33.8-.76v-1.34c0-.11-.04-.23-.15-.23-.28 0-.54.53-1.26.53h-.18c-.73 0-1.33-.63-1.33-1.36v-3.03c0-.8.6-1.37 1.33-1.37h.18c.67 0 .96.56 1.26.56.08 0 .14-.06.18-.12l.15-.27a.3.3 0 01.26-.13h.16c.2 0 .28.16.28.28v6.7c0 .73-.6 1.34-1.33 1.34zm.44-6.77a.75.75 0 00-.75-.75h-.53c-.4 0-.74.34-.74.76v2.57c0 .41.33.75.74.75h.53c.42 0 .75-.34.75-.75v-2.58zM168.7 136.27h-.34c-.2 0-.37-.13-.37-.32v-.85c0-.2.17-.35.36-.35h.39c.19 0 .35.15.35.35v.87c0 .16-.19.3-.4.3zM177.25 131.49h-1.54v6.94c0 .2-.17.36-.36.36h-.17a.35.35 0 01-.36-.36v-6.94h-1.55c-.2 0-.36-.14-.36-.34v-.13c0-.2.16-.34.36-.34h3.98c.2 0 .36.13.36.34v.13c0 .2-.17.34-.36.34zM181.14 136.3h-2.22v.96c0 .44.25.73.78.73h1.24c.2 0 .36.13.36.33v.14c0 .2-.16.33-.36.33h-1.6c-.7 0-1.3-.62-1.3-1.37v-3c0-.73.63-1.31 1.37-1.31h1.05c.73 0 1.38.58 1.38 1.32v1.16c0 .51-.33.72-.7.72zm-.19-1.74c0-.37-.3-.65-.65-.65h-.73a.64.64 0 00-.65.65v1h2.03v-1zM184.17 138.8H184a.35.35 0 01-.36-.37v-7.39c0-.2.15-.36.36-.36h.17c.19 0 .36.16.36.36v7.4c0 .2-.17.35-.36.35zM193.63 135.9h-1.69v1.72c0 .18-.14.33-.33.33h-.2a.35.35 0 01-.36-.33v-1.72h-1.66c-.18 0-.34-.13-.34-.31v-.18c0-.18.16-.31.34-.31h1.66v-1.72c0-.18.16-.34.35-.34h.2c.19 0 .34.16.34.34v1.72h1.7c.17 0 .33.13.33.3v.19c0 .18-.16.31-.34.31zM199.3 136.37h-.78v2.06c0 .2-.17.36-.36.36h-.17a.35.35 0 01-.36-.36v-2.06h-1.99c-.36 0-.5-.25-.5-.53 0-.1.04-.2.08-.3l1.94-4.56c.07-.16.22-.3.42-.3h.5c.21 0 .44.12.44.45v4.43h.79c.2 0 .36.14.36.34v.13c0 .2-.17.34-.36.34zm-1.6-4.8c-.08.47-.4 1.21-.62 1.72l-.97 2.27h1.52v-3c0-.41.1-.99.1-.99h-.03zM203.43 138.8h-1.8c-.2 0-.35-.14-.35-.35v-.13c0-.2.15-.33.36-.33h1.43c.58 0 .82-.33.82-.9v-2.34c-.18.21-.48.4-.78.4h-.82c-.75 0-1.33-.67-1.33-1.4v-1.77c0-.73.56-1.3 1.3-1.3h1.21c.75 0 1.31.57 1.31 1.3v5.4c0 .88-.61 1.41-1.35 1.41zm.46-6.67c0-.36-.3-.64-.66-.64h-.72a.67.67 0 00-.67.64v1.55c0 .36.31.66.67.66h.72c.36 0 .66-.3.66-.66v-1.55zM211.28 138.8h-1.9c-.2 0-.36-.14-.36-.35v-.13c0-.2.15-.33.36-.33h1.58c.44 0 .77-.32.77-.76v-1.26c0-.44-.22-.83-.76-.83h-.76c-.2 0-.36-.13-.36-.33v-.13c0-.2.15-.34.36-.34h.74c.45 0 .66-.43.66-.85v-1.25c0-.5-.27-.75-.76-.75h-1.2c-.2 0-.36-.14-.36-.34v-.13c0-.2.16-.34.36-.34h1.51c.76 0 1.34.58 1.34 1.31v1.77c0 .52-.15.8-.54 1 .38.17.66.42.66 1.02v1.69c0 .73-.58 1.32-1.34 1.32zM218.6 136.37h-.79v2.06c0 .2-.17.36-.36.36h-.16a.35.35 0 01-.36-.36v-2.06h-2c-.36 0-.5-.25-.5-.53 0-.1.05-.2.08-.3l1.95-4.56c.07-.16.21-.3.42-.3h.5c.2 0 .43.12.43.45v4.43h.8c.19 0 .35.14.35.34v.13c0 .2-.16.34-.36.34zm-1.6-4.8c-.09.47-.41 1.21-.63 1.72l-.97 2.27h1.52v-3c0-.41.1-.99.1-.99H217zM222.52 138.8h-.17a.35.35 0 01-.36-.37v-6.26l-.8.52a.67.67 0 01-.18.04c-.16 0-.28-.12-.28-.24a.3.3 0 01.1-.21l1.33-1.4c.08-.08.19-.2.36-.2h.06c.18 0 .3.15.3.35v7.4c0 .2-.17.36-.36.36zM230.58 138.8h-1.9c-.21 0-.37-.14-.37-.35v-.13c0-.2.16-.33.36-.33h1.59c.44 0 .76-.32.76-.76v-1.26c0-.44-.21-.83-.75-.83h-.77c-.2 0-.36-.13-.36-.33v-.13c0-.2.16-.34.36-.34h.74c.46 0 .66-.43.66-.85v-1.25c0-.5-.26-.75-.75-.75h-1.2c-.2 0-.36-.14-.36-.34v-.13c0-.2.16-.34.36-.34h1.51c.76 0 1.33.58 1.33 1.31v1.77c0 .52-.14.8-.54 1 .39.17.66.42.66 1.02v1.69c0 .73-.57 1.32-1.33 1.32zM236.39 138.8h-1.84c-.2 0-.36-.14-.36-.35v-.13c0-.2.16-.33.36-.33h1.62c.45 0 .72-.38.72-.71v-1.64c0-.23-.2-.5-.51-.5h-1.95v-3.97c0-.34.2-.49.5-.49h2.24c.19 0 .36.13.36.34v.13c0 .2-.17.34-.36.34h-1.85v2.85h1.5c.54 0 .96.44.96.97v2.1c0 .73-.5 1.38-1.4 1.38zM241.92 138.8h-1.83c-.2 0-.36-.14-.36-.35v-.13c0-.2.15-.33.36-.33h1.61c.45 0 .72-.38.72-.71v-1.64c0-.23-.2-.5-.51-.5h-1.94v-3.97c0-.34.2-.49.5-.49h2.23c.2 0 .36.13.36.34v.13c0 .2-.17.34-.36.34h-1.85v2.85h1.5c.54 0 .96.44.96.97v2.1c0 .73-.5 1.38-1.39 1.38zM247.62 138.8h-1.11c-.75 0-1.37-.6-1.37-1.33V132c0-.73.62-1.32 1.37-1.32h1.11c.73 0 1.34.6 1.34 1.32v5.47c0 .73-.6 1.32-1.34 1.32zm.46-6.52c0-.45-.28-.8-.72-.8h-.64c-.44 0-.7.36-.7.8v4.92c0 .44.26.79.7.79h.64c.44 0 .72-.35.72-.8v-4.91zM255.58 138.8h-.17a.35.35 0 01-.36-.37v-6.26l-.8.52a.67.67 0 01-.18.04c-.16 0-.28-.12-.28-.24a.3.3 0 01.1-.21l1.33-1.4c.08-.08.19-.2.36-.2h.06c.18 0 .3.15.3.35v7.4c0 .2-.17.36-.36.36zM261.21 138.8h-1.83c-.2 0-.36-.14-.36-.35v-.13c0-.2.16-.33.36-.33H261c.44 0 .72-.38.72-.71v-1.64c0-.23-.2-.5-.52-.5h-1.94v-3.97c0-.34.2-.49.5-.49H262c.19 0 .35.13.35.34v.13c0 .2-.16.34-.35.34h-1.85v2.85h1.5c.54 0 .96.44.96.97v2.1c0 .73-.5 1.38-1.4 1.38zM268.08 131.46l-2.24 7.17c-.04.14-.17.2-.31.2-.04 0-.1 0-.15-.03l-.13-.05c-.15-.04-.22-.15-.22-.27a.8.8 0 01.04-.18l2.13-6.81h-2.58c-.2 0-.36-.14-.36-.34v-.13c0-.2.16-.34.36-.34h3.17c.28 0 .37.22.37.41 0 .07-.07.32-.08.37zM273.47 136.27h-.34c-.2 0-.37-.13-.37-.32v-.85c0-.2.17-.35.36-.35h.38c.2 0 .36.15.36.35v.87c0 .16-.19.3-.4.3zM281.18 131.49h-1.2c-.43 0-.6.3-.6.67v.95h1.18c.2 0 .36.13.36.33v.13c0 .2-.16.34-.36.34h-1.19v4.57c0 .19-.14.31-.33.31h-.22c-.18 0-.34-.12-.34-.31v-6.5c0-.76.52-1.3 1.25-1.3h1.45c.2 0 .36.14.36.34v.13c0 .2-.15.34-.36.34zM284.57 138.8h-1.14c-.75 0-1.33-.62-1.33-1.35v-3.02c0-.74.63-1.32 1.37-1.32h1.05c.74 0 1.38.58 1.38 1.32v3.02c0 .73-.59 1.34-1.33 1.34zm.44-4.23a.65.65 0 00-.65-.66h-.72c-.37 0-.66.3-.66.66v2.76c0 .37.3.66.65.66h.72c.37 0 .66-.3.66-.66v-2.76zM290.52 133.91h-1.3c-.37 0-.73.26-.73.77v3.75c0 .2-.17.36-.36.36h-.17a.35.35 0 01-.36-.36v-5.02c0-.16.1-.3.33-.3h.15c.12 0 .2.1.23.16l.1.22c.04.08.12.14.22.14.3 0 .58-.52 1.25-.52h.64c.2 0 .36.13.36.33v.14c0 .2-.16.33-.36.33zM294.04 138.8H292c-.2 0-.36-.14-.36-.35v-.13c0-.2.16-.33.36-.33h1.85c.4 0 .52-.42.52-.69v-.48c0-.21-.12-.51-.52-.51h-1.02c-.6 0-1.18-.46-1.18-1.18v-.78c0-.49.5-1.24 1.37-1.24h1.52c.2 0 .36.13.36.33v.13c0 .2-.16.34-.36.34h-1.32c-.44 0-.68.25-.68.61v.44c0 .28.23.6.66.6h.98c.58 0 1.08.36 1.08 1.08v.8c0 .85-.5 1.35-1.23 1.35zM299.78 138.8h-1.64c-.74 0-1.32-.65-1.32-1.38v-2.98c0-.73.62-1.33 1.37-1.33h1.46c.2 0 .36.13.36.33v.14c0 .2-.16.33-.36.33h-1.15c-.58 0-.8.34-.8.78v2.56c0 .56.37.74.81.74h1.27c.2 0 .36.13.36.33v.14c0 .2-.15.33-.36.33zM304.8 138.8h-.17a.35.35 0 01-.36-.37v-3.77a.75.75 0 00-.76-.75H303a.75.75 0 00-.76.76v3.76c0 .2-.16.36-.35.36h-.17a.35.35 0 01-.36-.36v-7.39c0-.2.15-.36.36-.36h.17c.19 0 .35.16.35.36v2.39c0 .12.04.2.15.2.3 0 .59-.56 1.26-.56h.18c.73 0 1.33.58 1.33 1.37v4c0 .2-.17.35-.36.35zM310.39 138.8h-.18c-.12 0-.22-.1-.27-.18l-.1-.2c-.03-.04-.06-.12-.2-.12-.3 0-.55.53-1.27.53h-.18c-.73 0-1.33-.63-1.33-1.36v-4c0-.2.16-.36.36-.36h.17c.2 0 .36.15.36.36v3.76c0 .42.34.76.76.76h.51c.42 0 .76-.34.76-.76v-3.76c0-.2.15-.36.36-.36h.16c.2 0 .36.15.36.36v5.02c0 .14-.1.3-.27.3zM315.81 138.8h-.16a.35.35 0 01-.36-.37v-3.75c0-.5-.39-.77-.76-.77h-.51a.75.75 0 00-.76.77v3.75c0 .2-.17.36-.36.36h-.17a.35.35 0 01-.36-.36v-5.02c0-.16.1-.3.33-.3h.15c.12 0 .2.1.23.16l.1.22c.04.08.12.14.22.14.3 0 .6-.56 1.26-.56h.18c.78 0 1.33.64 1.33 1.35v4.01c0 .2-.16.36-.36.36zM320.35 141.43h-1.46c-.2 0-.36-.13-.36-.34v-.13c0-.2.15-.33.36-.33H320c.58 0 .8-.33.8-.76v-1.34c0-.11-.04-.23-.15-.23-.28 0-.54.53-1.26.53h-.18c-.73 0-1.33-.63-1.33-1.36v-3.03c0-.8.6-1.37 1.33-1.37h.18c.67 0 .96.56 1.26.56.08 0 .14-.06.18-.12l.16-.27a.3.3 0 01.25-.13h.17c.19 0 .27.16.27.28v6.7c0 .73-.6 1.34-1.33 1.34zm.44-6.77a.75.75 0 00-.75-.75h-.53c-.4 0-.74.34-.74.76v2.57c0 .41.33.75.74.75h.53c.42 0 .75-.34.75-.75v-2.58zM325.62 138.8h-2.03c-.2 0-.36-.14-.36-.35v-.13c0-.2.16-.33.36-.33h1.85c.4 0 .53-.42.53-.69v-.48c0-.21-.12-.51-.53-.51h-1.02c-.59 0-1.18-.46-1.18-1.18v-.78c0-.49.5-1.24 1.37-1.24h1.53c.2 0 .35.13.35.33v.13c0 .2-.15.34-.35.34h-1.32c-.45 0-.69.25-.69.61v.44c0 .28.23.6.66.6h.98c.58 0 1.08.36 1.08 1.08v.8c0 .85-.5 1.35-1.23 1.35zM331.32 133.91h-1.3c-.37 0-.73.26-.73.77v3.75c0 .2-.17.36-.36.36h-.17a.35.35 0 01-.36-.36v-5.02c0-.16.1-.3.33-.3h.15c.12 0 .2.1.23.16l.1.22c.05.08.12.14.23.14.3 0 .57-.52 1.24-.52h.64c.2 0 .36.13.36.33v.14c0 .2-.16.33-.36.33zM335.71 136.3h-2.22v.96c0 .44.25.73.78.73h1.24c.2 0 .36.13.36.33v.14c0 .2-.16.33-.36.33h-1.6c-.7 0-1.3-.62-1.3-1.37v-3c0-.73.63-1.31 1.37-1.31h1.05c.73 0 1.38.58 1.38 1.32v1.16c0 .51-.33.72-.7.72zm-.2-1.74c0-.37-.3-.65-.64-.65h-.73a.64.64 0 00-.65.65v1h2.03v-1zM338.74 132.06h-.17a.35.35 0 01-.36-.36v-.66c0-.2.15-.36.36-.36h.17c.19 0 .35.16.35.36v.66c0 .2-.16.36-.35.36zm0 6.73h-.17a.35.35 0 01-.36-.36v-4.96c0-.2.15-.36.36-.36h.17c.19 0 .35.15.35.36v4.96c0 .2-.16.36-.35.36zM343.34 138.8h-2.02c-.2 0-.36-.14-.36-.35v-.13c0-.2.15-.33.36-.33h1.84c.41 0 .53-.42.53-.69v-.48c0-.21-.12-.51-.53-.51h-1.02c-.58 0-1.17-.46-1.17-1.18v-.78c0-.49.49-1.24 1.36-1.24h1.53c.2 0 .36.13.36.33v.13c0 .2-.16.34-.36.34h-1.32c-.45 0-.69.25-.69.61v.44c0 .28.23.6.66.6h.99c.57 0 1.07.36 1.07 1.08v.8c0 .85-.5 1.35-1.23 1.35zM349.23 136.3h-2.22v.96c0 .44.26.73.78.73h1.24c.2 0 .36.13.36.33v.14c0 .2-.16.33-.36.33h-1.6c-.7 0-1.3-.62-1.3-1.37v-3c0-.73.63-1.31 1.37-1.31h1.05c.73 0 1.38.58 1.38 1.32v1.16c0 .51-.32.72-.7.72zm-.19-1.74c0-.37-.3-.65-.65-.65h-.73a.64.64 0 00-.64.65v1h2.02v-1zM357.13 138.54h-.8a.8.8 0 01-.63-.3c-.06-.09-.12-.16-.25-.16-.28 0-.56.5-1.25.5h-.14c-.66 0-1.21-.57-1.21-1.25v-.85c0-.71.55-1.31 1.2-1.31h.15c.69 0 .89.5 1.25.5.13 0 .17-.07.17-.26v-.54c0-.5-.24-.82-.8-.82h-1.31c-.18 0-.28-.18-.28-.29v-.16c0-.12.1-.3.28-.3h1.68c.64 0 1.22.57 1.22 1.23v3.01c0 .2.1.3.29.3h.36c.19 0 .29-.1.29-.3v-4.46a.58.58 0 00-.6-.59h-4.1a.59.59 0 00-.58.6v5.72c0 .34.26.6.59.6h3.62c.13 0 .24.1.24.23v.12c0 .13-.11.24-.24.24h-3.86a1 1 0 01-1-1v-6.11a1 1 0 011-1H357a1 1 0 011 1v4.76c0 .48-.34.89-.87.89zm-1.51-1.93c0-.34-.3-.64-.64-.64h-.7c-.34 0-.64.3-.64.64v.49c0 .35.3.67.63.67h.71c.34 0 .64-.32.64-.67v-.5zM362.8 136.3h-2.21v.96c0 .44.25.73.78.73h1.23c.2 0 .36.13.36.33v.14c0 .2-.16.33-.36.33H361c-.69 0-1.3-.62-1.3-1.37v-3c0-.73.63-1.31 1.38-1.31h1.04c.73 0 1.38.58 1.38 1.32v1.16c0 .51-.32.72-.7.72zm-.19-1.74c0-.37-.3-.65-.64-.65h-.74a.64.64 0 00-.64.65v1h2.02v-1zM368.94 133.62l-1.56 4.8a.54.54 0 01-.5.37h-.25a.55.55 0 01-.49-.37l-1.56-4.8-.02-.13c0-.14.08-.27.26-.32l.17-.06c.22-.08.43 0 .5.19l.98 3.4c.21.76.28 1.31.28 1.31h.02s.07-.55.28-1.32l.99-3.4c.06-.18.27-.26.49-.18l.17.06c.18.06.26.18.26.32l-.02.13zM373.55 138.8h-.18c-.12 0-.22-.1-.27-.18l-.1-.2c-.03-.04-.07-.12-.2-.12-.3 0-.55.53-1.27.53h-.18c-.73 0-1.33-.63-1.33-1.36v-.92c0-.8.6-1.37 1.33-1.37h.18c.67 0 .96.56 1.26.56.1 0 .14-.08.14-.2v-.86c0-.47-.26-.77-.79-.77h-1.36c-.2 0-.36-.13-.36-.34v-.13c0-.2.15-.33.36-.33h1.69c.72 0 1.35.6 1.35 1.3v4.08c0 .14-.1.3-.27.3zm-.62-2.02a.75.75 0 00-.75-.76h-.52a.75.75 0 00-.75.76v.45c0 .42.33.76.75.76h.52c.42 0 .75-.34.75-.76v-.45zM376.33 138.8H376c-.2 0-.38-.14-.38-.33v-.86c0-.19.17-.34.36-.34h.39c.19 0 .36.15.36.34v.88c0 .16-.2.3-.4.3zM384.16 138.8H384a.35.35 0 01-.36-.37v-3.9a.64.64 0 00-.63-.62h-.4a.63.63 0 00-.64.62v3.9c0 .2-.17.36-.36.36h-.17a.35.35 0 01-.36-.36v-3.89a.64.64 0 00-.62-.63h-.4a.62.62 0 00-.64.62v3.9c0 .2-.17.36-.36.36h-.17a.35.35 0 01-.36-.36v-5.02c0-.16.1-.3.32-.3h.16c.12 0 .19.1.23.16l.1.22c.04.08.11.14.18.14.23 0 .47-.56 1.1-.56h.18c.33 0 .57.16.74.29.17.13.27.27.44.27.39 0 .58-.56 1.2-.56h.2c.72 0 1.14.59 1.14 1.32v4.04c0 .2-.16.36-.36.36zM388.7 138.83h-.18c-.72 0-.98-.53-1.26-.53-.1 0-.14.12-.14.23v2.54c0 .2-.17.36-.36.36h-.17a.35.35 0 01-.36-.36v-7.68c0-.11.08-.28.28-.28h.17a.3.3 0 01.25.13l.15.27c.04.07.1.12.18.12.3 0 .59-.56 1.26-.56h.18c.73 0 1.33.58 1.33 1.37v3.03c0 .73-.6 1.36-1.33 1.36zm.44-4.17a.75.75 0 00-.74-.75h-.52a.75.75 0 00-.76.76v2.57c0 .41.34.75.76.75h.52c.41 0 .75-.34.75-.75v-2.58zM394.17 141.43h-1.46c-.2 0-.36-.13-.36-.34v-.13c0-.2.16-.33.36-.33h1.11c.58 0 .8-.33.8-.76v-1.34c0-.11-.04-.23-.15-.23-.27 0-.54.53-1.26.53h-.18c-.73 0-1.33-.63-1.33-1.36v-3.03c0-.8.6-1.37 1.33-1.37h.18c.67 0 .96.56 1.26.56.09 0 .15-.06.18-.12l.16-.27a.3.3 0 01.25-.13h.17c.19 0 .27.16.27.28v6.7c0 .73-.6 1.34-1.33 1.34zm.45-6.77a.75.75 0 00-.76-.75h-.53c-.4 0-.74.34-.74.76v2.57c0 .41.34.75.74.75h.53c.42 0 .76-.34.76-.75v-2.58zM398.01 138.8h-.33c-.2 0-.37-.14-.37-.33v-.86c0-.19.16-.34.36-.34h.38c.2 0 .36.15.36.34v.88c0 .16-.2.3-.4.3zM403.74 138.8h-.18c-.12 0-.22-.1-.27-.18l-.1-.2c-.03-.04-.06-.12-.2-.12-.3 0-.55.53-1.27.53h-.18c-.73 0-1.33-.63-1.33-1.36v-3.03c0-.8.6-1.37 1.33-1.37h.18c.67 0 .96.56 1.26.56.1 0 .15-.08.15-.2v-2.39c0-.2.16-.36.35-.36h.17c.2 0 .36.16.36.36v7.45c0 .14-.1.3-.27.3zm-.61-4.14a.75.75 0 00-.76-.75h-.52a.75.75 0 00-.75.76v2.56c0 .42.33.76.75.76h.52c.42 0 .76-.34.76-.76v-2.56zM408.82 136.3h-2.21v.96c0 .44.25.73.77.73h1.24c.2 0 .36.13.36.33v.14c0 .2-.16.33-.36.33h-1.6c-.69 0-1.3-.62-1.3-1.37v-3c0-.73.63-1.31 1.38-1.31h1.04c.73 0 1.38.58 1.38 1.32v1.16c0 .51-.32.72-.7.72zm-.19-1.74c0-.37-.3-.65-.65-.65h-.73a.64.64 0 00-.64.65v1h2.02v-1z"/><a xlink:href="mailto:forschungsreise@eva.mpg.de"><path fill="none" d="M276.49 128.2h135.45v15.19H276.49z"/></a><g><path class="st0" d="M245.3 34.28l-3.24 13.85c-.1.67-.65 1.17-1.32 1.2h-.45a1.4 1.4 0 01-1.3-1.2l-3.23-13.85v-.16c.02-.33.26-.6.59-.66l.3-.1c.36-.1.75.1.86.45l.02.07 2.4 10.7c.24 1.06.59 3.15.59 3.15h.07s.36-2.09.59-3.15l2.4-10.7a.7.7 0 01.81-.53l.07.01.3.1a.7.7 0 01.59.66s-.06.11-.06.16zm6.9 10.18h-4.35v1.86a1.34 1.34 0 001.53 1.44h2.42a.65.65 0 01.7.66v.23a.65.65 0 01-.7.65h-3.14a2.67 2.67 0 01-2.62-2.65v-5.89a2.67 2.67 0 012.71-2.59h2.05a2.68 2.68 0 012.71 2.6v2.27a1.27 1.27 0 01-1.3 1.42zm-.38-3.44c0-.7-.56-1.27-1.27-1.27h-1.44c-.7 0-1.27.57-1.27 1.27v2h4l-.02-2zm9.93-1.27h-2.57a1.4 1.4 0 00-1.41 1.5v7.4a.7.7 0 01-.7.7h-.34a.68.68 0 01-.7-.66v-9.93a.56.56 0 01.63-.59h.3c.2.03.37.15.45.33l.22.42c.06.18.23.29.42.28.59 0 1.13-1 2.45-1h1.25a.66.66 0 01.7.66v.26a.66.66 0 01-.75.63h.05zm6.9 14.77h-2.87a.66.66 0 01-.72-.66v-.2a.66.66 0 01.71-.67h2.2a1.36 1.36 0 001.54-1.49v-2.69c0-.2-.07-.44-.28-.44-.54 0-1.06 1-2.47 1h-.36a2.66 2.66 0 01-2.6-2.66v-6a2.61 2.61 0 012.53-2.68h.43c1.32 0 1.88 1.1 2.47 1.1.16 0 .3-.1.36-.23l.3-.54a.6.6 0 01.5-.26h.34c.3 0 .54.26.54.56v13.22c-.01 1.47-1.2 2.65-2.66 2.64h-.01.04zm.87-13.29c0-.8-.65-1.47-1.46-1.48h-1.02c-.82 0-1.47.67-1.46 1.48v5.06c0 .81.65 1.47 1.46 1.47h1c.8 0 1.47-.64 1.48-1.46v-5.07zm6.27 8.1h-.33a.68.68 0 01-.7-.66V34.13a.69.69 0 01.67-.72h.36c.39 0 .7.32.7.71v14.53a.7.7 0 01-.75.68h.05zm10.3-4.87h-4.36v1.86a1.34 1.34 0 001.47 1.44h2.43c.36-.02.68.24.7.6V48.65a.65.65 0 01-.7.65h-3.14a2.67 2.67 0 01-2.56-2.65v-5.89a2.67 2.67 0 012.71-2.59h2.05a2.68 2.68 0 012.7 2.6v2.27a1.27 1.27 0 01-1.36 1.42h.06zm-.38-3.44c0-.7-.57-1.27-1.27-1.27H283c-.7 0-1.27.57-1.27 1.27v2h4l-.03-2zm5.85-4.9h-.35a.7.7 0 01-.71-.69v-1.31c-.01-.38.3-.7.69-.7H291.54c.38 0 .7.31.7.7v1.3c0 .38-.32.7-.72.7h-.02.06zm0 13.21h-.35a.69.69 0 01-.71-.67v-9.79c-.01-.38.3-.7.68-.7h.36c.38 0 .7.32.7.7v9.78a.7.7 0 01-.72.68h-.02.06zm10 0h-3.23a2.64 2.64 0 01-2.63-2.65v-5.9a2.67 2.67 0 012.68-2.6h2.88a.66.66 0 01.7.65v.26a.66.66 0 01-.7.66H299a1.4 1.4 0 00-1.56 1.53v5c0 1.11.7 1.47 1.58 1.47h2.5c.35-.03.67.24.7.6v.3a.65.65 0 01-.7.68h.04zm9.38 0h-.33a.69.69 0 01-.71-.67V41.23c0-.81-.67-1.48-1.48-1.48h-1c-.82 0-1.48.67-1.48 1.48v7.42a.7.7 0 01-.7.7h-.34a.68.68 0 01-.7-.66V34.12a.69.69 0 01.67-.7H305.2c.4 0 .72.31.72.7v4.68c0 .24.07.4.28.4.59 0 1.15-1.1 2.47-1.1h.36a2.61 2.61 0 012.6 2.61v7.94a.7.7 0 01-.71.68h-.02.04zm9.68-4.87h-4.41v1.86a1.35 1.35 0 001.52 1.44h2.47a.65.65 0 01.71.66v.23c0 .37-.3.66-.66.66H317.07a2.67 2.67 0 01-2.6-2.66v-5.89a2.67 2.67 0 012.73-2.59h2a2.69 2.69 0 012.71 2.6v2.27a1.28 1.28 0 01-1.34 1.42h.05zm-.42-3.44c0-.7-.56-1.27-1.27-1.27h-1.44c-.7 0-1.27.55-1.29 1.25v2.02h4v-2zm11 8.31h-.33a.69.69 0 01-.7-.67v-7.41a1.46 1.46 0 00-1.48-1.5h-1c-.81-.01-1.48.63-1.5 1.43V48.65a.7.7 0 01-.7.7h-.32a.69.69 0 01-.71-.67v-9.92a.57.57 0 01.63-.59h.3c.2.02.37.15.46.33l.2.42c.07.18.24.29.43.28.59 0 1.16-1.1 2.48-1.1h.25a2.62 2.62 0 012.62 2.62v7.93a.7.7 0 01-.63.68zm10.51 0h-.35a.61.61 0 01-.52-.33l-.22-.4a.37.37 0 00-.37-.23c-.59 0-1.09 1-2.5 1h-.35a2.66 2.66 0 01-2.62-2.66v-6a2.61 2.61 0 012.54-2.68h.43c1.32 0 1.9 1.1 2.48 1.1.21 0 .28-.16.28-.4v-4.6c0-.4.32-.71.7-.72h.33c.4 0 .7.3.71.7V48.73a.57.57 0 01-.54.6h-.05.05zm-1.2-8.1c0-.81-.66-1.48-1.48-1.48h-1c-.82 0-1.48.67-1.48 1.48v5c-.01.82.65 1.49 1.46 1.5h1.01c.82 0 1.49-.66 1.5-1.48v-5.02zm10.7 3.23h-4.36v1.86a1.34 1.34 0 001.52 1.44h2.43c.36-.02.68.24.7.6V48.65a.65.65 0 01-.7.65h-3.14a2.67 2.67 0 01-2.58-2.65v-5.89a2.67 2.67 0 012.71-2.59h2.05a2.68 2.68 0 012.7 2.6v2.27a1.27 1.27 0 01-1.34 1.42zm-.38-3.44c0-.7-.57-1.27-1.27-1.27h-1.44c-.7 0-1.27.57-1.27 1.27v2h4l-.03-2zM244.87 73.13l-.35.3a.7.7 0 01-1-.13l-5.48-6.74v6.24a.7.7 0 01-.7.7H237a.69.69 0 01-.71-.67V58.3c-.01-.4.3-.71.69-.72H237.33c.39 0 .7.32.7.71v6.2l5-6.72a.66.66 0 011-.12l.27.21a.67.67 0 01.14 1l-5.06 6.66 5.55 6.74a.62.62 0 01-.06.87zm8.75.37h-.36a.65.65 0 01-.52-.32l-.22-.4a.39.39 0 00-.37-.24c-.59 0-1.09 1-2.5 1h-.35a2.66 2.66 0 01-2.62-2.66v-7.84c0-.38.32-.7.7-.7h.34c.39 0 .7.32.7.7v7.4c0 .82.66 1.49 1.47 1.5h1.02c.82 0 1.48-.65 1.48-1.47V63.04c0-.38.32-.7.7-.7h.34c.4 0 .71.32.71.7v9.88c.01.3-.22.56-.52.58zm5.06 0h-.33a.68.68 0 01-.7-.66V58.3a.69.69 0 01.67-.72h.36c.39 0 .7.32.7.71V72.8a.7.7 0 01-.7.7zm9.58-9.58h-2.45v8.88a.7.7 0 01-.7.7h-.32a.69.69 0 01-.71-.67v-8.91h-1.34a.66.66 0 01-.71-.66V63a.66.66 0 01.7-.66h1.35v-4c-.01-.38.3-.7.69-.7h.34c.39 0 .7.31.7.7v4h2.45a.66.66 0 01.72.66v.26c0 .37-.3.66-.66.67h-.06zm9.07 9.58h-.35a.63.63 0 01-.52-.32l-.2-.4a.4.4 0 00-.38-.24c-.6 0-1.08 1-2.5 1h-.36a2.66 2.66 0 01-2.6-2.66v-7.84c-.01-.38.3-.7.67-.7h.35c.4 0 .71.32.71.7v7.4c0 .82.66 1.49 1.47 1.5h1.02c.82 0 1.48-.67 1.48-1.49v-7.4c0-.4.32-.7.7-.7h.38c.4 0 .7.3.7.7v9.87c.01.32-.24.58-.56.58zm9.16-9.58h-2.57a1.4 1.4 0 00-1.41 1.51v7.37c-.01.4-.33.7-.71.7h-.33a.69.69 0 01-.71-.67V62.93a.57.57 0 01.64-.59h.3c.2.02.36.15.45.33l.2.42c.07.18.25.3.44.28.59 0 1.13-1 2.45-1h1.25c.35-.02.67.24.7.6v.32a.65.65 0 01-.7.63zm6.9 9.65h-.35c-1.43 0-1.95-1-2.49-1-.2 0-.28.23-.28.45v5c0 .4-.31.71-.7.71h-.36c-.39 0-.7-.3-.7-.68V62.9a.54.54 0 01.52-.56h.34c.2 0 .38.1.5.26l.3.54c.07.14.2.22.35.23.6 0 1.16-1.1 2.48-1.1h.35a2.6 2.6 0 012.62 2.6v6.08a2.66 2.66 0 01-2.59 2.62zm.87-8.17c0-.8-.65-1.47-1.46-1.48h-1c-.82 0-1.48.67-1.48 1.48v5.07c0 .82.66 1.47 1.48 1.46h1c.8 0 1.45-.65 1.46-1.46V65.4zm8.93 8.1h-4a.65.65 0 01-.71-.65v-.26a.65.65 0 01.7-.66h3.63c.8 0 1-.83 1-1.35v-.93a1 1 0 00-1-1h-2a2.3 2.3 0 01-2.3-2.29V64.8a2.67 2.67 0 012.7-2.45h3c.35-.03.67.24.7.6v.32c0 .36-.28.66-.64.66h-2.66a1.18 1.18 0 00-1.35 1.2V66c.03.68.6 1.21 1.28 1.18h1.95a2 2 0 012.12 2.12v1.58a2.37 2.37 0 01-2.4 2.63h-.02zm13.45-10.17l-5.44 14.9a.61.61 0 01-1 .34l-.26-.14a.61.61 0 01-.3-.47c-.01-.1 0-.22.05-.33l1.52-4.13c-.14 0-.26-.25-.31-.42l-3.56-9.75a.96.96 0 010-.24c0-.27.17-.52.44-.6l.38-.15a.64.64 0 01.86.4l3 8.48 3-8.48c.11-.35.48-.54.83-.44l.02.01.35.17a.69.69 0 01.42.85zm7.44 10.17h-3.23a2.64 2.64 0 01-2.59-2.68v-5.87a2.67 2.67 0 012.7-2.6h2.87a.66.66 0 01.7.65v.26a.66.66 0 01-.7.66h-2.26a1.38 1.38 0 00-1.56 1.53v5c0 1.1.7 1.46 1.57 1.46h2.5a.65.65 0 01.71.66v.26a.65.65 0 01-.7.67zm9.38 0h-.33a.69.69 0 01-.7-.67V65.4c0-.81-.67-1.48-1.48-1.48h-1c-.82 0-1.49.66-1.5 1.47v7.41a.7.7 0 01-.7.7h-.33a.69.69 0 01-.7-.67V58.3c-.01-.4.3-.71.69-.72H327.76c.38 0 .7.33.7.71v4.68c0 .24.07.4.28.4.58 0 1.15-1.1 2.47-1.1h.35a2.61 2.61 0 012.65 2.58V72.8a.7.7 0 01-.75.7zm8.44 0h-2.24a2.63 2.63 0 01-2.62-2.63v-5.94a2.67 2.67 0 012.71-2.59h2.05a2.67 2.67 0 012.71 2.6v5.93a2.62 2.62 0 01-2.6 2.63zm.88-8.29c0-.7-.58-1.28-1.28-1.29h-1.41a1.3 1.3 0 00-1.3 1.3v5.43c-.01.7.54 1.29 1.24 1.3h1.44c.71.01 1.3-.55 1.3-1.26v-5.48zm6.27 8.3h-.33a.69.69 0 01-.71-.68V58.3c-.01-.4.3-.71.69-.72H349.05c.38 0 .7.33.7.71V72.8a.7.7 0 01-.7.7zm9 0h-2.24a2.62 2.62 0 01-2.6-2.64v-5.94a2.67 2.67 0 012.7-2.59h2.05a2.67 2.67 0 012.71 2.6v5.93c0 1.44-1.15 2.61-2.59 2.63h-.03zm.87-8.3c0-.7-.57-1.28-1.27-1.29h-1.41c-.72 0-1.3.58-1.3 1.3v5.43c-.02.71.55 1.3 1.26 1.3h1.42c.71 0 1.29-.56 1.3-1.27V65.21zm9.51 13.44h-2.88a.65.65 0 01-.7-.6v-.32a.65.65 0 01.7-.66h2.2c.74.1 1.44-.41 1.54-1.16.01-.09.02-.17.01-.26V73c0-.22-.07-.45-.28-.45-.54 0-1.05 1-2.47 1h-.34a2.66 2.66 0 01-2.62-2.66v-6a2.61 2.61 0 012.6-2.6h.37c1.32 0 1.89 1.1 2.48 1.1.14-.02.28-.1.35-.24l.3-.54a.6.6 0 01.5-.26h.33c.3 0 .54.24.54.54v13.17a2.64 2.64 0 01-2.63 2.6zm.88-13.29c0-.81-.67-1.48-1.48-1.48h-1.01c-.82 0-1.47.67-1.46 1.48v5.07c0 .8.65 1.46 1.46 1.46h1c.8.01 1.47-.64 1.49-1.45v-5.08zm6.26-5.1h-.37a.7.7 0 01-.7-.7V58.3c-.01-.38.3-.7.69-.7H375.54c.38 0 .7.31.7.7v1.3c0 .37-.3.68-.67.7v-.04zm0 13.2h-.37a.69.69 0 01-.7-.67v-9.75c0-.38.3-.7.7-.7h.33c.39 0 .7.32.7.7v9.76a.7.7 0 01-.66.7v-.04zm10.3-4.8h-4.35v1.85a1.34 1.34 0 001.53 1.44h2.42a.65.65 0 01.7.66v.26a.65.65 0 01-.7.65h-3.13a2.67 2.67 0 01-2.57-2.68v-5.9a2.67 2.67 0 012.7-2.6h2.05a2.68 2.68 0 012.69 2.6v2.27a1.28 1.28 0 01-1.34 1.44zm-.38-3.45c.02-.7-.54-1.28-1.25-1.29h-1.47c-.7 0-1.26.56-1.27 1.25v2.02h4v-1.98zM149.43 49.92a2.33 2.33 0 012.6-2h.07a1.78 1.78 0 011.53 2.32 2.52 2.52 0 01-2.37 1.91c-2.11.12-2.05-1.15-1.83-2.23zm-13.17-8.55c1 .63 2.5 1 2.9-.07s.76-2.12-1.42-3.92c-.9-.75-2.32.15-2.73 1.25s-.32 1.73 1.25 2.74zm67.95 15.28c-1.73-1.92-2.3-2.16-3-1.22s-.5 3.92.45 4.62c.92.72 2.25.55 2.97-.38l.03-.04c.6-.97.4-2.23-.45-2.98zm.04 9.9a33.86 33.86 0 01-19.8 19.78s-3 1.06-3.35 5.75c-.29 4.1 2.25 3.53 2.25 3.53a42.55 42.55 0 01-52-52.19s.77-2.48 4.18-.18c3.9 2.63 3.3 5.77 3.3 5.77a33.87 33.87 0 007.25 27.04c1 1 2.3 1.42 5.64.18 4.17-1.55 1.44-5 1.44-5-2.61-3-4.48-6.56-5.47-10.4-.61-2.28-.5-6.34 2.12-7 2.27-.6 5.24 1.6 6.16 5 .39 1.48.98 2.9 1.77 4.23 1.19 1.93 3.3 2.6 6.24 1.52 2.94-1.08 2.3-3.78 1.12-5.78a4.28 4.28 0 011.53-5.93 4.23 4.23 0 015.77 1.58v.01a4.21 4.21 0 001.48 5.77l.03.02a4.27 4.27 0 005.84-1.53l.06-.1c1.14-2 3.27-3.85 5.57-1.93s2.88 4.17 1.8 6.16a16.65 16.65 0 01-2.79 3.66c-2.51 2.52-2.92 6.18-1.28 7.86 1.89 1.92 5.47 0 7.13-1.67a25.5 25.5 0 006.28-9.94s1.6-4.08 5-1.25c2.83 2.33 3.1 3.66 2.75 5.03h-.02zm-47 12.41c-.46-1.08-3.14-2.39-4.22-1.93a2.13 2.13 0 00-1.13 2.8 2.3 2.3 0 002.8 1.11c2.57-.53 3.06-.9 2.6-1.98h-.05zm21.96 13.48c.05-1.18-.35-2.68-1.51-2.48s-2.21.4-2.7 3.2c-.18 1.14 1.3 1.92 2.47 1.73s1.63-.58 1.74-2.45zm1.81-18.37a2.5 2.5 0 00-2.82-1.09 1.77 1.77 0 00-1.24 2.48 2.36 2.36 0 003.06 1.32h.03c1.02-.34 2.16-.95.95-2.7h.03zm2.86-10.34c.9-.82 1.91-2.13 1.66-3.25s-1.59-2.5-2.66-1.8a4 4 0 00-1.68 3.55c.26 1.12 1.6 2.47 2.65 1.5h.03zm-23.07-.9c1.09.34 3-.1 2.89-1.4-.16-1.38-1.01-2.59-2.26-3.2-1.1-.34-2.93.15-2.62 1.54.23 1.2.86 2.72 1.96 3.06h.03z"/><path d="M202.59 24.52s1.77 1.91-1.92 3.71c-4.23 2.06-6.65 0-6.66 0A33.87 33.87 0 00166.98 21c-1.37.37-2.38 1.28-3 4.8-.75 4.37 3.59 3.72 3.59 3.72 3.9-.76 7.92-.6 11.75.47 2.27.61 5.72 2.74 5 5.34-.63 2.26-4 3.73-7.45 2.81-1.5-.4-3.02-.6-4.56-.59-2.27.07-3.9 1.56-4.44 4.65s2.12 3.9 4.45 3.85a4.29 4.29 0 014.36 4.21v.1a4.23 4.23 0 01-4.24 4.2h-.01a4.22 4.22 0 001.5 5.8 4.27 4.27 0 005.85-1.54l.06-.1c1.14-2 3.27-3.85 5.57-1.93s2.88 4.17 1.8 6.16a16.65 16.65 0 01-2.8 3.66c-2.51 2.52-2.92 6.18-1.28 7.86 1.89 1.92 5.47 0 7.13-1.67a25.5 25.5 0 006.28-9.94s1.6-4.08 5-1.25c2.74 2.27 3 3.6 2.66 5a33.86 33.86 0 01-19.8 19.8s-3 1-3.35 5.74c-.3 4.1 2.25 3.53 2.25 3.53a42.51 42.51 0 0019.2-71.09l.09-.06zM174.75 43.1c-1.15.77-2.61.9-3.89.35-1.16-.58-.6-2.43.23-3.2s2.5-.56 3.64-.2c1.38.43.88 2.27.02 3.05zm13.6-2.9a1.76 1.76 0 01-2.75.16c-.82-.78-1.01-2-.48-3 .94-1.9 2-1.24 2.83-.49a2.33 2.33 0 01.4 3.33zm13.58-10.45c1.66-.86 2.25-.62 3 .3s.82 2.57-.28 3c-2.64 1-3.36.17-4.1-.74-.74-.9.34-2 1.38-2.56zm2.7 29.91a2.12 2.12 0 01-2.97.45l-.04-.03c-.94-.7-1.15-3.68-.45-4.62s1.28-.7 3 1.22c.87.75 1.06 2.01.45 2.98zm-29.65 33.52c.47-2.79 1.52-3 2.68-3.19s1.56 1.3 1.5 2.48c-.07 1.87-.58 2.25-1.73 2.45s-2.65-.6-2.45-1.76v.02zm5-16.38c1.06-.33 2.17-.94 1-2.7a2.5 2.5 0 00-2.78-1.1 1.77 1.77 0 00-1.25 2.47 2.36 2.36 0 003.05 1.31l-.02.02zm3.84-13c.9-.82 1.91-2.13 1.66-3.25s-1.59-2.5-2.66-1.8a4 4 0 00-1.63 3.5c.27 1.11 1.6 2.46 2.66 1.5l-.03.05zm-25.4-37.84c-.8 2.46-.72 3.07.44 3.21s3.64-1.53 3.78-2.69a2.11 2.11 0 00-1.81-2.36h-.04a2.32 2.32 0 00-2.37 1.84z" fill="#00b1ea"/><path d="M187.96 36.86a2.33 2.33 0 01.46 3.27l-.05.06a1.76 1.76 0 01-2.76.16c-.82-.78-1.01-2-.48-3 .94-1.9 2.02-1.24 2.83-.49zm-34.89 40.17a2.13 2.13 0 00-1.13 2.8 2.3 2.3 0 002.8 1.11c2.52-.53 3-.9 2.55-2s-3.08-2.37-4.22-1.9zm51.87-47c-.74-.9-1.33-1.15-3-.29-1 .55-2.14 1.64-1.4 2.55.76.91 1.47 1.71 4.1.73 1.12-.37 1.05-2.09.3-2.99zm-4.28-1.8c-4.23 2.06-6.65 0-6.66 0A33.87 33.87 0 00166.97 21c-1.37.37-2.38 1.28-3 4.8-.75 4.37 3.6 3.72 3.6 3.72 3.9-.76 7.92-.6 11.75.47 2.27.61 5.72 2.74 5 5.34-.63 2.26-4 3.73-7.45 2.81-1.5-.4-3.02-.6-4.56-.59-2.27.07-3.9 1.56-4.44 4.65s2.12 3.9 4.45 3.85a4.29 4.29 0 014.36 4.21v.1a4.23 4.23 0 01-4.25 4.2 4.23 4.23 0 00-5.77-1.6l-.01.01a4.28 4.28 0 00-1.46 5.88l.02.02c1.19 2 1.69 4.75-1.12 5.78-2.81 1.03-5.05.41-6.24-1.52a16.7 16.7 0 01-1.77-4.24c-.93-3.45-3.9-5.64-6.17-5-2.6.68-2.73 4.74-2.12 7a25.57 25.57 0 005.41 10.37s2.73 3.43-1.44 5c-3.33 1.24-4.62.82-5.63-.18a33.87 33.87 0 01-7.25-27.04s.6-3.14-3.3-5.77c-3.4-2.3-4.18.18-4.18.18a42.51 42.51 0 0171.17-18.9s1.78 1.9-1.9 3.7zm-62.91 9.15c-.9-.75-2.32.15-2.73 1.25s-.33 1.73 1.25 2.74c1 .63 2.49 1 2.9-.07s.76-2.12-1.42-3.92zm14.34 10.52a2.33 2.33 0 00-2.66 1.95v.05c-.26 1.08-.29 2.35 1.82 2.21a2.52 2.52 0 002.37-1.9 1.78 1.78 0 00-1.53-2.3zm6.78-18.74c1.17.15 3.64-1.53 3.78-2.69a2.11 2.11 0 00-1.81-2.36h-.04a2.31 2.31 0 00-2.37 1.84c-.8 2.46-.72 3.07.44 3.21zm4.8 32.27c-.16-1.38-1.01-2.59-2.26-3.2-1.1-.34-2.93.15-2.62 1.54.26 1.2.89 2.72 2 3.06s2.96-.1 2.88-1.4zm7.44-21.2c-.85.78-1.4 2.63-.24 3.21 1.28.56 2.74.42 3.9-.35.84-.78 1.34-2.62 0-3-1.18-.44-2.83-.64-3.67.14z" fill="#c6d325"/><path class="st0" d="M115.39 11.99h.77v85.04h-.77zM59.08 12a42.52 42.52 0 1042.52 42.52A42.57 42.57 0 0059.07 12zm0 83.85A41.34 41.34 0 11100.4 54.5v.01a41.38 41.38 0 01-41.33 41.34zm24.94-44.58c-.58-1.24-.18-2-.36-2.94a45.32 45.32 0 00-1.74-4.37c-.3-.7 1.52-.53.18-3.1 0-.08 1.87-.79 0-2.24a10.5 10.5 0 01-2.41-2.7.41.41 0 010-.52c1.08-1 1.1-2.34-.07-3-.84-.5-1.81 0-2.71.6-.3.18-.44.3-.74.17a5.7 5.7 0 01-.76-.52 3.27 3.27 0 001.23-2.29 5.87 5.87 0 00-4.11.4l-.16-.1c.58-.82.71-1.88.34-2.8a33.32 33.32 0 015-5.4c.1-.12.15-.24-.06-.37l-.43-.25A37.41 37.41 0 0021.7 54.51a38.2 38.2 0 0016 30.61c.34.27.72.49 1.12.66.14.08.33.05.44-.08l.14-.19c.08-.1.12-.21.13-.34 0-.28-.4-.52-.85-1.2a11.2 11.2 0 01-1.93-6.14c-.03-2 .62-3.94 1.84-5.52 1.49 1.55 4.74 4.41 4.67 7-.08 2.92-2.81 2.78-2.22 5 .37 1.37 1.4.81 1.57 1.85.3 1.8 2.74 3 3.8 2.8.25 0 .47.17 1 .7.72.72 2.5.62 3.29.48s1.69.55 3.26.37c2-.2 2.46-.36 3.29-.38 4.88-.1 9.76.14 14.6.73 1 .14 1.26-.28.83-1a11.56 11.56 0 01-1.11-10.1c2 .14 4.93.7 8.77-1.62a4.53 4.53 0 002.05-3.85 9.7 9.7 0 01-.2-2.73c.3-1.1.5-1.08.83-1.3 1.47-1 .4-1.85.18-1.93a1.33 1.33 0 00.42-1.86c-.26-.28-1.06-2.52-.14-3s2.12-.72 3.26-1.22a1.85 1.85 0 001.02-2.4l-.02-.06c-.63-1.47-3.63-8.33-3.72-8.52zM42.77 84.54c-.3 0-1.22.1-1-1.12.11-.74.92-1 1.33-.63-.09.58-.27 1.14-.34 1.75zm35.23-51c.48-.3 1-.43 1.3-.13 1.07 1-1.15 1.64-.7 2.44.78 1.32 1.8 2.47 3 3.41.5.4.58 1.25-1.33 1.65s-9.57 2.41-13.61 6.7c-5 5.34-8.26 12.27-8.7 11.32s-1.46-1.12-1.3-1.39c7.29-12.5 18.66-22.33 21.34-24zm3.31 8.78c-.4 1.2-3.7 2.25-3.55 1.42.07-.38 0-.88.26-.92s1.4-.43 3-.84c.19-.06.4.04.3.33v.01zm-8.34 2.17c-.1-.49 3.45-1.68 3.58-1.33.22.65-.73 2.4-1.92 2.83-1.35.5-1.91.35-1.86.16.15-.54.22-1.1.2-1.67v.01zm-8.22 18.46c-1.63 1-2.52-.9-2.75-1.25a1.57 1.57 0 01-.21-1.28c.17-1.25.11-2.53-.17-3.77-.16-1.07 2-3.73 2.55-4.19s1.27.24 1.32 1a3.2 3.2 0 01-1.6 2.91c-1.06.78-1.26 1.8-1.06 2.07.09.1.56.11.77-.33.62-1.35 2.42-2 2.71-2.73.27-.72.3-1.51.08-2.26 0-.4.35-.5.65-.46s.55.57.75 1.08c1.16 3-1.77 4.88-2.24 5.6-.22.36.45 2.83-.8 3.61zm2.45-11.79c-.87.6-2.13-.2-1.88-.57a17.62 17.62 0 014.66-4.46c1.39-.87 1.54-.93 1.6-.44a4.18 4.18 0 01-1.05 3c-.62.63-1.46 1-2.34 1-.33.15-.33 1.01-.98 1.47zm-7.8 10.38c-.4-.09-.54-.88-.46-1.18.42-.94.96-1.81 1.62-2.6.1-.14.28 0 .3.13.23 1.65 0 3.97-1.46 3.65zm13-30a7.51 7.51 0 013-.65c.33 0-.74 1.95-2.65 2.77a8.54 8.54 0 01-3.6.91c-.2-.15 1.71-2.35 3.27-3.06l-.02.03zM38.7 63.2c-.31-.42-.72-.76-1.19-1a9.13 9.13 0 00-1.43 3.62 25.8 25.8 0 01-3-11.3c-.6-14.34 11.42-25.87 26.07-25.87 3.11.02 6.2.66 9.06 1.88-.63.82-1.13 1.73-1.5 2.7 0-.78-.21-1.39-.15-1.87 0-.3-2.08.35-3.95 3.34-.41.67-.71 1.4-.88 2.16.03-.68-.1-1.37-.38-2a6.52 6.52 0 00-3.45 3.55c-.18.45-.34.92-.44 1.4-.01-.47-.13-.93-.37-1.33a6.42 6.42 0 00-3.89 5.5c-.2-.94-.56-1.5-.68-1.36-.77 1-2.28 1.41-3.09 3.9a5.8 5.8 0 00-.26 1.7c-.34-.85-.8-1.33-.92-1.3a8.28 8.28 0 00-2.83 4.4c-.13.78-.12 1.57.04 2.33-.49-.6-.9-1.24-1.25-1.93a6.16 6.16 0 00-2.35 4.34c-.02.84.08 1.67.3 2.47-.65-1.17-1.56-1.72-1.66-1.65a7.46 7.46 0 00-2 4.47c-.06.63 0 1.26.2 1.85zm30-32.26c1.14-1.37 3.1-2.47 3.32-2.33s-.33 2.25-1.59 3.5a12.8 12.8 0 01-3.48 2.45c-.23 0 .7-2.39 1.74-3.62zm-3.75 5.28c-.92.7-1.7 1.57-2.28 2.57-.22.36-.76-2 .7-4.3a7.73 7.73 0 012.62-2.48c-.13.56.87 2.64-1.03 4.21zm-4.1 3c-1.37 2-1.45 1.34-3 3.34-.1-1.28.04-2.57.43-3.8a6.67 6.67 0 012.52-3c.28-.04.8 2.37.06 3.5v-.04zm-4.48 4.08c-.7 1.23-1.34 1-2.51 2.7-.13.2-.44-1.45.26-3.66a5.28 5.28 0 012.4-2.8c.25-.03.68 2.34-.16 3.8v-.04zm-4.16 4.35c-.73 1.56-1.19 1.61-2 2.6-.16.15-.78-1.5-.18-3.58a6 6 0 012.17-2.82c.16-.2.75 2.16 0 3.8zm-3.4 2.68c0 .41-.07.82-.2 1.21a8.91 8.91 0 01-2.1 3.3 5.36 5.36 0 01-.65-2.38 6.06 6.06 0 012.1-4.5c.3 0 .84 1.3.84 2.4v-.03zm-3.47 5.18a6.14 6.14 0 01-2.05 4.38c-.52-.94-.82-1.99-.88-3.07a4.7 4.7 0 011.43-4c.2.83 1.51 1.38 1.5 2.71v-.02zm-4.89 2.54c1.1.73 1.74 2 1.65 3.31a4.71 4.71 0 01-1.84 3.82c-.39-1.45-1.06-1.76-1.06-3.22a7.53 7.53 0 011.24-3.89l.02-.02zm2.95 5.08a7.76 7.76 0 014-.6 5.14 5.14 0 01-2.38 3.32c-1.82 1-3.85 1.06-4 .83a4.9 4.9 0 012.37-3.53l.02-.02zm-.13-1.37a6 6 0 012.85-3.39 7.6 7.6 0 013.8-.59c.22.1-.69 2.26-2.36 3.06-1.88.91-2.62.4-4.3.94v-.02zm2.77-4.78c.08-.18 1.43-2.6 3-3.35a7.26 7.26 0 013.6-.54 5.1 5.1 0 01-2.51 3.08c-1.79.9-4.18 1.02-4.1.83l.02-.02zm3.62-4.84a9.44 9.44 0 013.38-3.34 6.14 6.14 0 013.4-.4 4.65 4.65 0 01-2.6 3 9.4 9.4 0 01-4.2.76l.02-.02zm4.33-4.78a6.8 6.8 0 013-3.18 6.73 6.73 0 013.6 0c.37 0-.55 1.84-2.7 2.63-1.24.5-2.58.7-3.91.57v-.02zm4.85-4.62a8.3 8.3 0 013.3-3 7.21 7.21 0 013.7-.09c.21.1-1.12 2.06-3.14 2.67a9.14 9.14 0 01-3.87.44l.02-.02zm4.91-4c-.2-.15 1.74-2.32 3.3-2.92a7.12 7.12 0 013.36-.4 5.34 5.34 0 01-2.87 2.71 7.5 7.5 0 01-3.8.65l.02-.04zM36.89 83a36.67 36.67 0 01-14-28.49 36.18 36.18 0 0153-32 .16.16 0 010 .27 38.84 38.84 0 00-4.11 4.62 30 30 0 00-42.69 27.18A29.26 29.26 0 0036.3 74.1a10.33 10.33 0 00.59 8.9zm.06-10.06A28 28 0 0130.3 54.5a28.83 28.83 0 0140.79-26.18 7.6 7.6 0 00-1.65 1 25.76 25.76 0 00-10.34-2.06 27.24 27.24 0 00-27.22 27.2 26 26 0 006 17l-.92 1.48zm1.44-2.29a5.5 5.5 0 01-1.79-3.38v-.24a7.57 7.57 0 011-3.65c.2-.19 2.16 1.34 2.2 3.53a5.79 5.79 0 01-1.41 3.74zm3.24-2.92c1.2-.5 2.5-.66 3.78-.46-.13.1-.75 2.37-2.51 3.25-1.09.61-2.35.8-3.56.53.95-1 .75-2.55 2.3-3.29v-.03zm2.12 18.81c-.28-.97-.2-2 .2-2.93.7-.34 2-.48 2-.07a11.3 11.3 0 00.13 4.14c-.13.34-1.87.2-2.34-1.1v-.04zm.11-4.47c-.14-.8.63-1.58.62-3.33 0-2.15-2.67-5.1-4.47-7 1.11-.01 2.2-.26 3.2-.74a6.44 6.44 0 003.27-4.2c-.49-.15-1-.2-1.51-.15l.3-.15a6.32 6.32 0 003.16-4.5 6.74 6.74 0 00-1.6-.1l.78-.3a5.85 5.85 0 003.44-4.28 4.97 4.97 0 00-1.4-.17 6.2 6.2 0 004.02-4.5 4.56 4.56 0 00-1.3-.15 9.78 9.78 0 001.84-.64 5.9 5.9 0 003.47-3.89c-.38-.13-.79-.2-1.2-.23.6-.13 1.19-.3 1.76-.5a5.64 5.64 0 003.6-3.49c-.36 0-.86-.2-1.5-.32.9-.06 1.79-.24 2.64-.54 2.9-1 3.91-2.72 4-3.48a2.33 2.33 0 00-.9-.32 9.1 9.1 0 001.87-.5 7.67 7.67 0 003.92-4 13.34 13.34 0 002.34-1.02c.13.1.34.25.66.45s.55.33.35.5a102.8 102.8 0 00-19.15 22.56c-.08.13-.24.11-.5.1-3.22-.22-5 3.61-3.6 7.21a7.84 7.84 0 01-1.83 2.26c-.1.1-.42.55.1.5.75-.06 1.72-1.27 2.17-1.8.2.23.9.82.56 1.15a25.39 25.39 0 01-5.65 4.23c-1 .5 1.7.85 6.36-3.36.28-.25.6 1 1 1.5-.8 2.63 1.17 7.73.86 9.33-.04.61-.54 1.08-1.15 1.1-4.6.08-5.07-.13-7.42.56-1.09.33-.8 1 0 .83s1.85-.6 6.85-.29c1.22.07 2.61-.25 2.62-2.3 0-1.88-1.48-7.46-1-8.22.4.32.89.52 1.4.56-.07 1.82 2.85 7.7 1.55 10.94-.48 1.2-2.6 1.11-6.25.75-6.15-.63-8.15.71-8.28-.03v-.03zm14.23 4a2.27 2.27 0 01-3-2.58c.24-.37 1.76.41 2.95-.35.94-.57 1.44 2.51.05 2.95v-.02zm-10.93 1.78c-.34-1.49-.47-4.07.14-4.65.13-.1 2-.38 2 0-.15 1.78-.86 3.76.49 5.74.42.8-2.19.91-2.63-1.09zm4.59 1.7c-.66-.16-2.44-3-1-6.39.14-.35 2.37-.13 2.74 0s-.3 2.78 2.77 4c.33.06-.05 3.5-4.52 2.4zm19.12-9.46c-1 3.58-1.55 5 0 8.9.21.51.36.9-.09.82-3.13-.54-3.8-1-13.63-.22-.7.06.23-1.37.12-2.34a2.8 2.8 0 002.63-2c.37-1.77-.86-3.07-.73-3.32 1.4-2.72-.09-5.73-1.27-10.77-.1-.48.16-.68.37-.46 6.31 6.83 10.33 8.2 12.51 8.83.22.12.17.32.1.56zM87 61.43c-1.32 1.17-3.34 1.26-4.16 2-.43.4-.62 1-.16 2.1.26.62.45.7-.46 1-1.46.38-1.66 2.31-3.53 2-.75-.15-.21.33.06.35.67.15 1.37-.06 1.87-.55.4-.48.9-.89 1.45-1.2.59-.23 1.19-.2 1.2.23s-.74.88-1 1c.38.2 1.55.8.55 1.47-.78.53-1.85-.2-2-.29s-.68-.07-.53.11c.58.7 2.13.52 1.85.9-1.43 1.92-.26 3.04-.7 5s-3.13 3-5.2 3.4c-7.03 1.22-13.91-4.76-17.92-9.3.36-.86.32-2 0-1.58s-.3 1-1.12 1.21c-1.62.41-2.31-2.39-2.81-2.88a6 6 0 01-1.56-7 2.59 2.59 0 014.6-.46c1.23 1.8.67 2.82 1.36 3.36a2 2 0 002.2 0c.75-.2.69 1.75 3.22 1.66 2.72-.09 2.4-4.32 2.79-4.7 3.49-3.4 1.7-6.43 1.08-7.14-.17-.18.38-1.43.59-1.48a5.33 5.33 0 003.83-3.14s3.4-.06 4.6-2.5c.33-.66 1.33.62 3.6-1.16a.36.36 0 01.6.13c1.46 3.58 2.07 4.56 2 6.4-.08 1.32 3.54 8.68 3.8 9.32s.25 1.44-.1 1.74zm-8.17-13c-2 .07-4.28 2.5-5 2.83s-.51.58 0 .41c1-.36 2.39-1.86 4.33-2.56 1.53-.56 1.43.7 2 .63.2 0-.2-1.32-1.33-1.28v-.03zm.45 1.94c-.17 0 .17.88-.7.94-1.85.11-3.33 1.87-4.46 2.4-.49.26-1 .46-1.54.57-.15 0-.1.23 0 .25 4.75.63 6.57.46 6.6.3.08-.34-.27-.5-.19-.7.21-.73.23-1.5.07-2.23-.1-.32.7-.1.7-.55.03-.2-.21-1.02-.48-.95v-.03zm-.73 3.75c-.1.37-2.21.2-3.37.1-.28 0-.74-.07.14-.59a8.48 8.48 0 012.89-1.32c.15-.03.3.07.34.22v.02c.11.53.11 1.08 0 1.6v-.03zm6.19 6.75a9 9 0 00-2.37 1c-.33.2-1.8 1.11-1.7-.33 0-.5.36-1.77.35-2.12 0-.52-.43-.3-.44 0-.04.75-.14 1.5-.3 2.23a1 1 0 001.48 1.11c.91-.59 1.9-1.05 2.92-1.38.26-.09.3-.47.05-.48v-.03zM57.25 66.1c-.28-.1-.21.47-.6.41s-.07-.53-.71-1.22c-.34-.34-1.14-.48-1.74-1.44-1-1.5-.13-4.88 1.26-4.4.76.27.63 2.06.4 3.27-.14.74 1 1.11 1.12.85.17-.44-.43-.39-.57-.79-.22-.62 1.42-3.12-.72-3.79-1.55-.52-2.58 1.44-2.39 3.61.06 1.28.88 2.4 2.07 2.85.94.34.23 1.63 1.5 1.64.55 0 .67-.88.38-.99zm12.46-40.57c.05.05.13.05.19 0l2.64-3.33a.18.18 0 00-.06-.25h-.01l-.46-.19a.2.2 0 00-.19.05l-2.63 3.3a.16.16 0 00.07.26l.45.16zm-4.9-1.36l.47.1c.07.01.15-.03.17-.1l1.56-3.82a.17.17 0 00-.13-.23l-.5-.1a.09.09 0 00-.12.05l-1.57 3.88a.16.16 0 00.13.22zm-5.42-.5h.46c.08 0 .16-.07.17-.16l.38-4.05a.16.16 0 00-.14-.18h-.49a.16.16 0 00-.16.15l-.41 4.03a.16.16 0 00.19.2zm-5.28.4l.45-.08c.09-.01.15-.1.14-.2l-.77-4a.16.16 0 00-.19-.13l-.46.07a.16.16 0 00-.14.19l.78 4c.02.08.1.13.19.12v.02zm-5.4 1.22c.04.08.13.11.2.08l.44-.15a.17.17 0 00.1-.21v-.02l-1.83-3.67a.16.16 0 00-.2-.08l-.44.16a.16.16 0 00-.1.23l1.84 3.66zm-5 2.33c.06.05.15.05.2 0l.42-.22a.17.17 0 000-.26l-2.74-3.1a.17.17 0 00-.2 0l-.4.23a.17.17 0 000 .26l2.73 3.1zm-4.71 3.3c.05.03.13.03.19 0l.36-.32a.16.16 0 000-.26l-3.45-2.4a.17.17 0 00-.2 0l-.37.32a.16.16 0 000 .25l3.47 2.4zm-4.1 4.2c.07.03.15 0 .2-.06l.3-.37a.16.16 0 00-.06-.26l-4-1.55a.18.18 0 00-.2.05l-.3.4a.16.16 0 00.08.24l3.98 1.54zm-7.5 4.34l4.26.6c.06 0 .13-.03.16-.09l.25-.44a.17.17 0 00-.13-.24l-4.28-.63a.15.15 0 00-.17.1l-.21.42a.17.17 0 00.12.28zm-2.34 6.45l4.35-.4c.07-.02.13-.06.14-.13l.15-.47a.17.17 0 00-.17-.22l-4.34.42a.17.17 0 00-.15.12l-.12.48a.16.16 0 00.14.2zm3.3 5.17l.06-.5a.17.17 0 00-.21-.19l-4.23 1.48a.15.15 0 00-.11.14v.5a.16.16 0 00.21.16l4.2-1.46a.16.16 0 00.09-.13zm-.1 5.78v-.53a.17.17 0 00-.27-.13l-3.83 2.52a.17.17 0 00-.07.16c0 .17 0 .34.07.51a.16.16 0 00.25.11l3.8-2.5a.13.13 0 00.05-.14zm.93 5.8c0-.17-.09-.35-.13-.53a.16.16 0 00-.28-.07l-3.1 3.4a.18.18 0 000 .17l.18.5a.17.17 0 00.28.05l3.05-3.39a.18.18 0 000-.13zm1.6 5.13l-2.2 4.2a.15.15 0 000 .15l.28.46a.17.17 0 00.3 0l2.17-4.14a.14.14 0 000-.15l-.25-.5a.16.16 0 00-.21-.1.16.16 0 00-.06.05l-.02.03zm3.1 4.7a.17.17 0 00-.3.06l-1.17 4.86a.17.17 0 000 .15l.37.42c.05.07.15.08.22.02a.16.16 0 00.06-.09l1.16-4.8a.17.17 0 000-.14l-.34-.48z"/></g></g></svg>