<svg xmlns="http://www.w3.org/2000/svg" viewBox="0 0 512 512"><path d="M117 228c2-6 5-12 16-12 7 0 11 8 10 14-2 7-8 11-15 12-12 0-12-7-11-14m-79-51c6 4 15 6 18-1 2-6 4-12-9-23-5-5-14 1-17 7-2 7-1 11 8 17m409 92c-10-12-14-13-18-8-4 6-3 24 3 28 5 5 13 3 18-2 4-6 2-13-3-18m1 59a204 204 0 01-120 120s-18 6-20 34c-2 25 14 21 14 21A256 256 0 019 189s4-15 25-1c24 16 20 35 20 35a205 205 0 0044 163c6 6 13 8 33 1 26-10 9-30 9-30-15-18-27-39-33-63-4-14-3-38 13-42 14-4 31 10 37 30 2 9 6 18 11 26 7 11 20 15 37 9s14-23 7-35c-8-13-3-28 9-36 12-7 28-2 35 10-7 12-3 28 9 35s28 3 36-10c7-12 19-23 33-12 15 13 18 26 11 38-4 8-10 15-17 22-15 15-17 37-8 47 12 11 33 0 43-10 18-17 31-38 38-60 0 0 10-25 31-7 16 13 18 21 16 29m-283 75c-3-6-19-14-26-11-6 2-9 10-7 16 3 7 10 9 17 7 15-3 18-5 16-12m131 81c1-7-2-16-9-15-7 2-13 3-16 20-1 7 8 11 15 10s10-3 10-15m11-110c-4-6-10-9-17-7-6 2-11 9-7 15 6 10 12 10 18 8 7-2 13-6 6-16m18-62c5-5 11-13 10-20-2-7-10-15-16-11-7 4-12 15-10 21 1 7 9 15 16 10m-139-6c6 2 17-1 17-8 0-8-7-18-14-20-6-2-17 1-15 10 1 7 5 16 12 18" fill="#006c66"/><path d="M437 75s11 12-11 23c-26 12-40 0-40 0a206 206 0 00-163-44c-8 2-14 8-18 29-4 26 22 22 22 22 23-4 47-3 70 3 14 4 35 17 31 32-4 14-25 23-45 17-9-2-19-3-28-3-13 0-23 9-26 28-4 17 12 23 26 23 15 0 27 12 27 26s-12 25-26 25c-7 12-3 28 9 35s28 3 36-10c7-12 19-23 33-12 15 13 18 26 11 38-4 8-10 15-17 22-15 15-17 37-8 47 12 11 33 0 43-10 18-17 31-38 38-60 0 0 10-25 31-7 16 13 18 21 16 29a204 204 0 01-120 120s-18 6-20 34c-2 25 14 21 14 21A256 256 0 00437 75M270 187c-5 5-17 6-24 2-7-3-3-14 2-19s15-3 22-1c8 2 5 13 0 18m82-17c-4 6-12 5-17 1-5-5-6-12-3-18 6-12 12-8 17-3 5 4 8 10 3 20m82-63c10-5 13-4 18 2 4 5 5 15-2 18-16 5-20 1-25-5-4-5 2-12 9-15m16 180c-5 5-13 7-18 2-6-4-7-22-3-28 4-5 8-4 18 8 5 5 7 12 3 18M271 489c3-17 9-18 16-20 7-1 10 8 9 15 0 12-3 14-10 15s-16-3-15-10m30-99c7-2 13-6 6-16-4-6-10-9-17-7-6 2-11 9-7 15 6 10 12 10 18 8m24-78c5-5 11-13 10-20-2-7-10-15-16-11-7 4-12 15-10 21 1 7 9 15 16 10M172 84c-5 15-5 18 2 19s22-9 23-16-4-13-11-14-12 4-14 11" fill="#00b1ea"/><path d="M349 150c5 4 8 10 3 20-4 6-12 5-17 1-5-5-6-12-3-18 6-12 12-8 17-3M139 392c-6 2-9 10-7 16 3 7 10 9 17 7 15-3 18-5 16-12-3-6-19-14-26-11m313-283c-5-6-8-7-18-2-7 3-13 10-9 15 5 6 9 10 25 5 7-3 6-13 2-18m-26-11c-26 12-40 0-40 0a206 206 0 00-163-44c-8 2-14 8-18 29-4 26 22 22 22 22 23-4 47-3 70 3 14 4 35 17 31 32-4 14-25 23-45 17-9-2-19-3-28-3-13 0-23 9-26 28-4 17 12 23 26 23 15 0 27 12 27 26s-12 25-26 25c-7-12-23-17-35-10s-17 23-9 36c7 12 10 29-7 35s-30 2-37-9c-5-8-9-17-11-26-6-20-23-34-37-30-16 4-17 28-13 42 6 24 18 45 33 63 0 0 17 20-9 30-20 7-27 5-33-1a204 204 0 01-44-163s4-19-20-35c-21-14-25 1-25 1A256 256 0 01437 75s11 12-11 23M47 153c-5-5-14 1-17 7-2 7-1 11 8 17 6 4 15 6 18-1 2-6 4-12-9-23m86 63c-11 0-14 6-16 12-1 7-1 14 11 14 7-1 13-5 15-12 1-6-3-14-10-14m41-113c7 1 22-9 23-16s-4-13-11-14-12 4-14 11c-5 15-5 18 2 19m29 195c0-8-7-18-14-20-6-2-17 1-15 10 1 7 5 16 12 18 6 2 17-1 17-8m45-128c-5 5-9 16-2 19 7 4 19 3 24-2s8-16 0-18c-7-2-17-4-22 1" fill="#c6d325"/></svg>