<?xml version="1.0" encoding="UTF-8" standalone="no"?>
<svg
   xmlns:dc="http://purl.org/dc/elements/1.1/"
   xmlns:cc="http://creativecommons.org/ns#"
   xmlns:rdf="http://www.w3.org/1999/02/22-rdf-syntax-ns#"
   xmlns:svg="http://www.w3.org/2000/svg"
   xmlns="http://www.w3.org/2000/svg"
   xmlns:sodipodi="http://sodipodi.sourceforge.net/DTD/sodipodi-0.dtd"
   xmlns:inkscape="http://www.inkscape.org/namespaces/inkscape"
   inkscape:version="1.0 (4035a4fb49, 2020-05-01)"
   height="139.08437"
   width="400"
   sodipodi:docname="Leuphana Universität Lüneburg Logo 2020.svg"
   id="svg28"
   version="1.1"
   stroke-miterlimit="2"
   stroke-linejoin="round"
   clip-rule="evenodd"
   fill-rule="evenodd"
   viewBox="0 0 400 139.08437">
  <metadata
     id="metadata34">
    <rdf:RDF>
      <cc:Work
         rdf:about="">
        <dc:format>image/svg+xml</dc:format>
        <dc:type
           rdf:resource="http://purl.org/dc/dcmitype/StillImage" />
        <dc:title></dc:title>
      </cc:Work>
    </rdf:RDF>
  </metadata>
  <defs
     id="defs32" />
  <sodipodi:namedview
     inkscape:current-layer="svg28"
     inkscape:window-maximized="1"
     inkscape:window-y="-8"
     inkscape:window-x="-8"
     inkscape:cy="73.830249"
     inkscape:cx="174.40311"
     inkscape:zoom="2.1736111"
     fit-margin-bottom="0"
     fit-margin-right="0"
     fit-margin-left="0"
     fit-margin-top="0"
     showgrid="false"
     id="namedview30"
     inkscape:window-height="837"
     inkscape:window-width="1600"
     inkscape:pageshadow="2"
     inkscape:pageopacity="0"
     guidetolerance="10"
     gridtolerance="10"
     objecttolerance="10"
     borderopacity="1"
     bordercolor="#666666"
     pagecolor="#ffffff" />
  <path
     d="M 11.818009,74.809479 H 0 L 0.028436,86.473934 0,111.34028 h 36.610427 v -5.87488 c 0,0 -9.139337,0.009 -12.322275,0.009 H 11.825592 V 86.473934 m 72.252133,24.866346 v -5.88436 l -29.088152,0.019 V 95.617062 H 72.23128 V 89.757346 H 54.989573 v -9.08436 H 84.077725 V 74.809479 H 43.192417 V 111.34028 Z M 173.23223,85.927962 c 0,1.639811 -0.70332,3.279621 -1.73839,4.100474 -1.03128,0.822749 -2.67109,1.156398 -5.42939,1.156398 h -11.1526 V 80.661611 h 11.01042 c 1.07868,0 2.57441,0.109953 3.36683,0.225593 a 4.3222749,4.3222749 0 0 1 2.58009,1.36872 c 0.8929,0.87583 1.36304,2.261612 1.36304,3.672038 m 12.96872,-0.157346 c 0,-4.881516 -2.99147,-8.879621 -7.44076,-10.149763 -2.01517,-0.536493 -4.21801,-0.81327 -7.21706,-0.81327 h -28.4474 l 0.019,11.664455 V 99.71754 l -0.019,11.61895 h 11.81612 V 97.048341 h 14.52133 c 5.85971,0 9.36492,-0.727962 12.17819,-2.460663 2.85688,-1.819905 4.58958,-5.14692 4.58958,-8.817062 m 49.80284,25.569664 V 74.809479 h -11.79526 v 14.894786 h -20.32417 l -0.036,-14.894786 h -11.76872 v 36.530801 h 11.76872 l 0.036,-15.294782 h 20.32417 v 15.294782 z m 34.68247,-17.091939 h -13.48057 l 6.83602,-12.538388 z m 23.08246,17.091939 -19.70616,-36.530801 h -12.83412 l -14.27868,25.689101 c -0.51753,0.87204 -5.99241,10.8417 -5.99241,10.8417 h 6.91184 l 6.56493,-11.71943 h 19.1147 l 6.1763,11.71943 m 62.09099,-36.530801 h -6.09857 l 0.004,11.664455 V 99.62085 L 313.19242,74.809479 h -13.44455 v 36.528911 h 6.0891 c 0,0 0.0417,-8.04739 0.0417,-8.92702 -0.0417,-0.60284 -0.0417,-1.48436 -0.0417,-2.69194 V 86.083412 l 23.08625,25.254978 h 12.89289 z m 35.10522,19.463507 h -13.50332 l 6.8436,-12.547868 z M 400,111.35735 380.29194,74.824645 h -12.84929 l -14.2654,25.685305 c -0.51943,0.88341 -6.00948,10.84929 -6.00948,10.84929 h 6.92891 l 6.57062,-11.71943 h 19.11848 l 6.16304,11.71943 M 129.67773,74.809479 h -5.2038 l 0.0247,11.664455 v 10.19526 c 0,1.474886 -0.20474,2.775356 -0.48721,3.880566 -0.43033,1.58863 -1.19052,2.95735 -2.18767,3.83318 -1.57157,1.40474 -3.71185,2.05118 -6.08721,2.14597 -3.5526,-0.1327 -6.54976,-1.22464 -8.49668,-3.06161 a 7.814218,7.814218 0 0 1 -1.8218,-3.51469 c -0.3128,-1.52986 -0.43412,-2.968724 -0.43412,-5.649292 V 74.809479 H 92.468246 c 0,0 0.03223,7.838862 0.03223,11.664455 v 10.949763 c 0,4.712793 0.938389,7.448343 3.418009,10.072033 2.527015,2.64266 5.672035,4.05688 10.676775,4.71849 0.21043,0.0398 0.43223,0.0398 0.64265,0.0663 1.82939,0.27678 3.70237,0.42085 5.55072,0.42085 0.17061,0 0.32606,-0.009 0.49289,-0.019 0.16113,0.009 0.32227,0.019 0.48341,0.019 8.33365,0 13.8199,-1.80853 16.95355,-5.68151 2.29574,-2.80569 2.90237,-5.21327 2.90237,-11.245502 v -9.30237 c 0,-3.893839 0.0133,-11.664455 0.0133,-11.664455 h -3.95639 z"
     id="path2"
     style="fill:#742128;fill-rule:nonzero;stroke-width:1.89573" />
  <path
     style="stroke-width:1.89573"
     id="path6"
     fill-rule="nonzero"
     fill="#1a171b"
     d="m 199.80284,1.6663507 24.20095,13.8407583 0.8891,-1.630332 -24.19905,-13.8369666 z" />
  <path
     style="stroke-width:1.89573"
     id="path8"
     d="m 223.0673,13.935545 h 1.7782 v 27.6 h -1.7782 z"
     fill="#1a171b" />
  <path
     style="stroke-width:1.89573"
     id="path10"
     fill-rule="nonzero"
     fill="#1a171b"
     d="m 200.63886,0 -24.22938,13.876777 0.87583,1.630332 24.23128,-13.8672986 z" />
  <path
     style="stroke-width:1.89573"
     id="path12"
     d="m 177.78957,13.169668 46.72607,27.380095 -0.891,1.516588 -46.72417,-27.380095 z"
     fill="#1a171b" />
  <path
     style="stroke-width:1.89573"
     id="path14"
     fill-rule="nonzero"
     fill="#1a171b"
     d="m 178.01706,41.933649 -0.8872,-1.518483 46.4,-27.243602 0.87772,1.512796 z" />
  <path
     style="stroke-width:1.89573"
     id="path16"
     d="m 199.76682,0.6066351 h 1.77441 V 54.551659 h -1.77441 z"
     fill="#1a171b" />
  <path
     style="stroke-width:1.89573"
     id="path18"
     fill-rule="nonzero"
     fill="#1a171b"
     d="m 200.67109,55.332701 -24.21611,-13.717535 0.87962,-1.634123 24.20663,13.711848 z" />
  <path
     style="stroke-width:1.89573"
     id="path20"
     fill-rule="nonzero"
     fill="#1a171b"
     d="m 200.68815,55.393365 -0.90237,-1.641706 24.23128,-13.829384 0.89289,1.63981 z" />
  <path
     style="stroke-width:1.89573"
     id="path22"
     d="m 176.45498,13.935545 h 1.7744 v 27.6 h -1.7744 z"
     fill="#1a171b" />
  <path
     d="m 65.808531,132.89289 c 0,5.13934 -4.001896,6.19147 -7.296683,6.19147 -3.292891,0 -7.292891,-1.05213 -7.292891,-6.19147 v -8.34123 h 1.719432 v 8.34123 c 0,3.26635 2.087203,4.75071 5.573459,4.75071 3.490048,0 5.577252,-1.48436 5.577252,-4.75071 v -8.34123 h 1.719431 z m 3.763033,-8.34313 h 2.434123 l 10.55545,11.65308 v -11.65308 h 1.713745 v 14.1801 h -1.713745 l -11.35545,-12.65972 v 12.65972 h -1.636019 v -14.1801 z m 18.405687,0 h 1.717536 v 14.1801 h -1.717536 z m 5.429384,0 6.255925,12.3128 6.28436,-12.3128 h 1.89384 l -7.34218,14.1801 h -1.67394 l -7.330801,-14.1801 z m 16.223695,0 h 12.63886 v 1.52228 h -10.92701 v 4.52322 h 9.13365 v 1.51848 h -9.13365 v 5.09763 h 11.16019 v 1.52038 h -12.87393 v -14.18199 z m 15.17157,0 h 8.19715 c 2.25972,0 5.57536,0.47962 5.57536,3.9564 0,2.96872 -2.74882,3.82939 -4.46256,3.90711 l 4.67488,6.31848 h -2.12322 l -4.56304,-6.27867 h -5.58483 v 6.27867 h -1.71374 z m 1.71374,6.37915 h 6.091 c 2.47582,0 4.32796,-0.35261 4.32796,-2.43791 0,-2.07015 -1.85214,-2.41707 -4.32796,-2.41707 h -6.091 z m 15.75924,3.74976 c 0.82085,1.08815 2.18768,2.88342 6.44171,2.88342 2.18009,0 5.16208,-0.6256 5.16208,-2.83792 0,-4.30521 -12.36398,-0.51564 -12.36398,-6.27867 0,-3.02749 2.79242,-4.24455 6.65593,-4.24455 3.74028,0 6.03981,1.53175 7.01611,2.89668 l -1.24739,1.01611 c -0.58389,-0.6654 -1.94882,-2.47583 -5.80664,-2.47583 -2.84739,0 -4.85877,0.74124 -4.85877,2.5365 0,4.28815 12.36209,0.19336 12.36209,6.54786 0,2.37536 -2.30142,4.3583 -7.1128,4.3583 -4.64455,0 -6.36208,-1.94123 -7.57346,-3.27583 z m 16.09479,-10.12891 h 1.71753 v 14.1801 h -1.71753 z m 10.81896,1.52228 h -6.84171 v -1.52228 h 15.40663 v 1.52228 h -6.84549 v 12.65971 h -1.71943 z m 14.16113,-1.52228 h 2.10996 l 7.27014,14.1801 h -1.92796 l -1.83128,-3.69668 h -9.15451 l -1.85023,3.69668 h -1.90901 z m 4.85877,8.96493 -3.80474,-7.62464 -3.80853,7.62464 z m -6.46066,-12.42654 h 1.75734 v 1.98863 h -1.75734 z m 3.5545,0 h 1.75735 v 1.98863 h -1.75735 z m 12.5782,4.98389 h -6.84739 v -1.52228 h 15.41042 v 1.52228 H 199.6 v 12.65971 h -1.71943 z m 17.8654,-1.52228 h 1.70995 v 12.66161 h 11.19242 v 1.52038 h -12.90426 v -14.18199 z m 29.81991,8.34313 c 0,5.13934 -3.99621,6.19147 -7.30616,6.19147 -3.27963,0 -7.28531,-1.05213 -7.28531,-6.19147 v -8.34123 h 1.71185 v 8.34123 c 0,3.26635 2.09668,4.75071 5.57156,4.75071 3.50521,0 5.58673,-1.48436 5.58673,-4.75071 v -8.34123 h 1.71754 v 8.34123 z m -9.95261,-11.80474 h 1.75166 v 1.98863 h -1.75166 z m 3.54692,0 h 1.75735 v 1.98863 h -1.75735 z m 10.16114,3.46161 h 2.44549 l 10.55356,11.65308 v -11.65308 h 1.71753 v 14.1801 h -1.71753 l -11.36114,-12.65972 v 12.65972 h -1.63791 z m 18.41895,0 h 12.62939 v 1.52228 h -10.91754 v 4.52322 h 9.12228 v 1.51848 h -9.12228 v 5.09763 h 11.15071 v 1.52038 h -12.86256 z m 15.16778,0 h 8.20663 c 1.63223,0 5.50332,0 5.50332,3.70616 0,1.94882 -1.26256,2.55545 -2.15924,2.98389 0.85877,0.36588 2.64834,1.14502 2.64834,3.51469 0,3.81991 -4.00569,3.97536 -6.93649,3.97536 h -7.26446 v -14.1801 z m 1.71943,6.0455 h 6.01896 c 1.98862,0 4.25402,-0.33175 4.25402,-2.32417 0,-2.26351 -2.30521,-2.27867 -4.8417,-2.27867 h -5.43128 z m 0,6.61611 h 6.64076 c 2.07014,0 4.0872,-0.34881 4.0872,-2.52701 0,-1.95829 -1.55829,-2.65024 -3.89005,-2.65024 h -6.83791 z m 30.27298,-4.31848 c 0,5.13934 -4.00189,6.19147 -7.30616,6.19147 -3.28341,0 -7.29289,-1.05213 -7.29289,-6.19147 v -8.34123 h 1.71564 v 8.34123 c 0,3.26635 2.09858,4.75071 5.57536,4.75071 3.49763,0 5.58673,-1.48436 5.58673,-4.75071 v -8.34123 h 1.71753 v 8.34123 z m 3.75166,-8.34313 h 8.20285 c 2.2654,0 5.58104,0.47962 5.58104,3.9564 0,2.96872 -2.76398,3.82939 -4.47962,3.90711 l 4.68057,6.31848 h -2.11185 l -4.56872,-6.27867 h -5.58484 v 6.27867 h -1.71753 v -14.18199 z m 1.71754,6.37915 h 6.09478 c 2.46825,0 4.33365,-0.35261 4.33365,-2.43791 0,-2.07015 -1.8654,-2.41707 -4.33365,-2.41707 h -6.09478 z m 29.98483,0.91185 v 7.00853 h -1.52417 v -2.06635 c -0.96114,1.09763 -2.49289,2.29952 -5.6872,2.29952 -5.50901,0 -8.10237,-3.30995 -8.10237,-7.41232 0,-4.88151 3.29668,-7.4673 8.07014,-7.4673 3.38199,0 5.97156,1.51659 7.0237,3.89763 l -1.44266,0.7583 c -1.109,-2.54029 -3.71753,-3.21706 -5.62843,-3.21706 -3.98294,0 -6.2673,2.20094 -6.2673,6.23507 0,3.27204 2.20663,5.6872 6.42275,5.6872 2.57061,0 5.34218,-1.2455 5.57535,-4.20474 h -5.76303 v -1.51848 z"
     id="path24"
     style="fill:#1a171b;fill-rule:nonzero;stroke-width:1.89573" />
</svg>
