<svg xmlns="http://www.w3.org/2000/svg" viewBox="0 0 427.37 141.73">
  <defs>
    <style>
      .a {
        fill: #006c66;
      }

      .b {
        fill: #00b1ea;
      }

      .c {
        fill: #c6d325;
      }
    </style>
  </defs>
  <g>
    <path class="a" d="M257.09,50.63l-3.23,13.85a1.41,1.41,0,0,1-1.32,1.2h-.45a1.4,1.4,0,0,1-1.31-1.2l-3.23-13.85c0-.05,0-.12,0-.16a.72.72,0,0,1,.59-.66l.31-.1a.68.68,0,0,1,.87.52l2.4,10.7c.24,1.06.59,3.15.59,3.15h.07s.36-2.09.59-3.15l2.4-10.7a.69.69,0,0,1,.88-.52l.3.1a.71.71,0,0,1,.59.66S257.09,50.58,257.09,50.63ZM264,60.81h-4.36v1.86a1.34,1.34,0,0,0,1.53,1.44h2.42a.65.65,0,0,1,.71.66V65a.65.65,0,0,1-.71.65h-3.13A2.67,2.67,0,0,1,257.84,63V57.11a2.67,2.67,0,0,1,2.71-2.59h2.05a2.68,2.68,0,0,1,2.71,2.59v2.28A1.27,1.27,0,0,1,264,60.81Zm-.38-3.44a1.27,1.27,0,0,0-1.27-1.27h-1.44a1.27,1.27,0,0,0-1.27,1.27v2h4Zm9.92-1.27h-2.57a1.4,1.4,0,0,0-1.41,1.5V65a.7.7,0,0,1-.71.7h-.33a.68.68,0,0,1-.7-.7V55.11a.56.56,0,0,1,.63-.59h.31a.56.56,0,0,1,.44.33l.22.42a.43.43,0,0,0,.42.28c.59,0,1.13-1,2.45-1h1.25a.66.66,0,0,1,.71.66v.26A.66.66,0,0,1,273.49,56.1Zm6.9,14.77h-2.87a.66.66,0,0,1-.71-.66V70a.66.66,0,0,1,.71-.66h2.19a1.36,1.36,0,0,0,1.55-1.49V65.16c0-.21-.07-.44-.28-.44-.54,0-1.06,1-2.47,1h-.36a2.66,2.66,0,0,1-2.61-2.66v-6a2.61,2.61,0,0,1,2.61-2.68h.36c1.32,0,1.88,1.1,2.47,1.1a.43.43,0,0,0,.36-.23l.3-.54a.6.6,0,0,1,.5-.26h.33a.55.55,0,0,1,.54.56V68.23A2.65,2.65,0,0,1,280.39,70.87Zm.87-13.29a1.47,1.47,0,0,0-1.48-1.48h-1a1.47,1.47,0,0,0-1.46,1.48v5.06a1.47,1.47,0,0,0,1.46,1.47h1a1.47,1.47,0,0,0,1.48-1.47Zm6.27,8.1h-.33a.68.68,0,0,1-.7-.7V50.47a.69.69,0,0,1,.7-.71h.33a.71.71,0,0,1,.71.71V65A.7.7,0,0,1,287.53,65.68Zm10.3-4.87h-4.36v1.86A1.34,1.34,0,0,0,295,64.11h2.43a.65.65,0,0,1,.7.66V65a.65.65,0,0,1-.7.65h-3.14A2.67,2.67,0,0,1,291.73,63V57.11a2.67,2.67,0,0,1,2.71-2.59h2.05a2.68,2.68,0,0,1,2.7,2.59v2.28A1.27,1.27,0,0,1,297.83,60.81Zm-.38-3.44a1.27,1.27,0,0,0-1.27-1.27h-1.44a1.27,1.27,0,0,0-1.27,1.27v2h4Zm5.85-4.9H303a.7.7,0,0,1-.71-.71V50.47a.7.7,0,0,1,.71-.71h.33a.71.71,0,0,1,.7.71v1.29A.71.71,0,0,1,303.3,52.47Zm0,13.21H303a.69.69,0,0,1-.71-.7V55.22a.69.69,0,0,1,.71-.7h.33a.7.7,0,0,1,.7.7V65A.7.7,0,0,1,303.3,65.68Zm10,0h-3.23A2.64,2.64,0,0,1,307.49,63V57.13a2.67,2.67,0,0,1,2.68-2.61h2.88a.66.66,0,0,1,.71.66v.26a.66.66,0,0,1-.71.66h-2.26a1.39,1.39,0,0,0-1.56,1.53v5c0,1.11.71,1.47,1.58,1.47h2.5a.65.65,0,0,1,.7.66V65A.65.65,0,0,1,313.31,65.68Zm9.38,0h-.33a.69.69,0,0,1-.71-.7v-7.4a1.48,1.48,0,0,0-1.48-1.48h-1a1.48,1.48,0,0,0-1.48,1.48V65a.7.7,0,0,1-.71.7h-.33a.68.68,0,0,1-.7-.7V50.47a.69.69,0,0,1,.7-.71H317a.71.71,0,0,1,.71.71v4.68c0,.24.07.4.28.4.59,0,1.15-1.1,2.47-1.1h.36a2.61,2.61,0,0,1,2.61,2.68V65A.7.7,0,0,1,322.69,65.68Zm9.68-4.87H328v1.86a1.35,1.35,0,0,0,1.53,1.44H332a.65.65,0,0,1,.71.66V65a.66.66,0,0,1-.71.65h-3.13A2.67,2.67,0,0,1,326.27,63V57.11A2.67,2.67,0,0,1,329,54.52h2a2.69,2.69,0,0,1,2.71,2.59v2.28A1.28,1.28,0,0,1,332.37,60.81ZM332,57.37a1.27,1.27,0,0,0-1.27-1.27h-1.44A1.27,1.27,0,0,0,328,57.37v2h4Zm11,8.31h-.33a.69.69,0,0,1-.71-.7V57.6a1.46,1.46,0,0,0-1.48-1.5h-1a1.46,1.46,0,0,0-1.49,1.5V65a.7.7,0,0,1-.7.7h-.33a.69.69,0,0,1-.71-.7V55.11a.57.57,0,0,1,.63-.59h.31a.56.56,0,0,1,.45.33l.21.42a.43.43,0,0,0,.42.28c.59,0,1.16-1.1,2.48-1.1H341a2.62,2.62,0,0,1,2.62,2.64V65A.7.7,0,0,1,343,65.68Zm10.51,0h-.35a.61.61,0,0,1-.52-.33l-.22-.4a.37.37,0,0,0-.37-.23c-.59,0-1.09,1-2.5,1h-.35a2.66,2.66,0,0,1-2.62-2.66v-6a2.61,2.61,0,0,1,2.62-2.68h.35c1.32,0,1.89,1.1,2.48,1.1.21,0,.28-.16.28-.4V50.47a.71.71,0,0,1,.7-.71h.33a.7.7,0,0,1,.71.71V65.09A.57.57,0,0,1,353.46,65.68Zm-1.2-8.1a1.48,1.48,0,0,0-1.49-1.48h-1a1.48,1.48,0,0,0-1.48,1.48v5a1.48,1.48,0,0,0,1.48,1.49h1a1.48,1.48,0,0,0,1.49-1.49ZM363,60.81h-4.36v1.86a1.34,1.34,0,0,0,1.53,1.44h2.43a.65.65,0,0,1,.7.66V65a.65.65,0,0,1-.7.65h-3.14A2.67,2.67,0,0,1,356.88,63V57.11a2.67,2.67,0,0,1,2.71-2.59h2.05a2.68,2.68,0,0,1,2.7,2.59v2.28A1.27,1.27,0,0,1,363,60.81Zm-.38-3.44a1.27,1.27,0,0,0-1.27-1.27h-1.44a1.27,1.27,0,0,0-1.27,1.27v2h4ZM256.66,89.48l-.35.3a.71.71,0,0,1-1-.14l-5.48-6.73v6.24a.7.7,0,0,1-.71.7h-.33a.69.69,0,0,1-.71-.7V74.64a.7.7,0,0,1,.71-.71h.33a.71.71,0,0,1,.71.71v6.19l5-6.71a.66.66,0,0,1,1-.12l.26.21a.67.67,0,0,1,.14,1l-5.06,6.66,5.55,6.74a.64.64,0,0,1,.15.42A.62.62,0,0,1,256.66,89.48Zm8.75.37h-.36a.65.65,0,0,1-.52-.32l-.21-.41a.39.39,0,0,0-.37-.23c-.59,0-1.09,1-2.5,1h-.35a2.66,2.66,0,0,1-2.62-2.66V79.39a.7.7,0,0,1,.71-.7h.33a.71.71,0,0,1,.7.7v7.4a1.48,1.48,0,0,0,1.49,1.49h1a1.47,1.47,0,0,0,1.48-1.49v-7.4a.7.7,0,0,1,.71-.7h.33a.71.71,0,0,1,.71.7v9.88A.57.57,0,0,1,265.41,89.85Zm5.06,0h-.33a.68.68,0,0,1-.7-.7V74.64a.69.69,0,0,1,.7-.71h.33a.71.71,0,0,1,.71.71V89.15A.7.7,0,0,1,270.47,89.85Zm9.59-9.58h-2.45v8.88a.7.7,0,0,1-.71.7h-.32a.69.69,0,0,1-.71-.7V80.27h-1.34a.66.66,0,0,1-.71-.66v-.26a.66.66,0,0,1,.71-.66h1.34v-4a.7.7,0,0,1,.71-.71h.32a.71.71,0,0,1,.71.71v4h2.45a.66.66,0,0,1,.71.66v.26A.66.66,0,0,1,280.06,80.27Zm9.07,9.58h-.35a.63.63,0,0,1-.52-.32l-.21-.41a.4.4,0,0,0-.38-.23c-.59,0-1.08,1-2.49,1h-.36a2.66,2.66,0,0,1-2.61-2.66V79.39a.69.69,0,0,1,.71-.7h.32a.71.71,0,0,1,.71.7v7.4a1.48,1.48,0,0,0,1.49,1.49h1a1.48,1.48,0,0,0,1.48-1.49v-7.4a.7.7,0,0,1,.71-.7H289a.7.7,0,0,1,.7.7v9.88A.57.57,0,0,1,289.13,89.85Zm9.15-9.58h-2.57a1.4,1.4,0,0,0-1.41,1.51v7.37a.71.71,0,0,1-.71.7h-.33a.69.69,0,0,1-.71-.7V79.28a.57.57,0,0,1,.64-.59h.3a.56.56,0,0,1,.45.33l.21.42a.44.44,0,0,0,.43.28c.59,0,1.13-1,2.45-1h1.25a.65.65,0,0,1,.7.66v.26A.65.65,0,0,1,298.28,80.27Zm6.9,9.65h-.35c-1.42,0-1.94-1-2.48-1-.21,0-.28.23-.28.45v5a.71.71,0,0,1-.71.71H301a.69.69,0,0,1-.7-.71V79.25a.54.54,0,0,1,.54-.56h.33a.59.59,0,0,1,.49.26l.31.54a.42.42,0,0,0,.35.23c.59,0,1.16-1.1,2.48-1.1h.35a2.6,2.6,0,0,1,2.61,2.68v6A2.66,2.66,0,0,1,305.18,89.92Zm.87-8.17a1.47,1.47,0,0,0-1.46-1.48h-1a1.48,1.48,0,0,0-1.48,1.48v5.07a1.47,1.47,0,0,0,1.48,1.46h1a1.47,1.47,0,0,0,1.46-1.46Zm8.93,8.1h-4a.65.65,0,0,1-.71-.65v-.26a.65.65,0,0,1,.71-.66h3.63c.8,0,1-.83,1-1.35V86a1,1,0,0,0-1-1h-2a2.3,2.3,0,0,1-2.31-2.31V81.14A2.67,2.67,0,0,1,313,78.69h3a.65.65,0,0,1,.7.66v.26a.65.65,0,0,1-.7.66h-2.6a1.18,1.18,0,0,0-1.34,1.2v.87a1.23,1.23,0,0,0,1.3,1.18h1.93a2,2,0,0,1,2.12,2.12v1.58A2.37,2.37,0,0,1,315,89.85Zm13.46-10.17L323,94.57a.61.61,0,0,1-1,.35l-.26-.14a.61.61,0,0,1-.31-.47.74.74,0,0,1,.05-.33L323,89.85c-.14,0-.26-.25-.31-.42l-3.56-9.75a1,1,0,0,1,0-.24.65.65,0,0,1,.44-.61l.38-.14a.64.64,0,0,1,.87.4l3,8.48,3-8.48a.66.66,0,0,1,.85-.43l.35.17a.69.69,0,0,1,.45.61A1,1,0,0,1,328.44,79.68Zm7.44,10.17h-3.23a2.64,2.64,0,0,1-2.59-2.68V81.3a2.67,2.67,0,0,1,2.69-2.61h2.87a.66.66,0,0,1,.71.66v.26a.66.66,0,0,1-.71.66h-2.26a1.38,1.38,0,0,0-1.55,1.53v5c0,1.1.7,1.46,1.57,1.46h2.5a.65.65,0,0,1,.71.66v.26A.65.65,0,0,1,335.88,89.85Zm9.38,0h-.33a.69.69,0,0,1-.71-.7v-7.4a1.48,1.48,0,0,0-1.48-1.48h-1a1.48,1.48,0,0,0-1.49,1.48v7.4a.7.7,0,0,1-.7.7h-.33a.69.69,0,0,1-.71-.7V74.64a.7.7,0,0,1,.71-.71h.33a.71.71,0,0,1,.7.71v4.68c0,.24.07.4.28.4.59,0,1.16-1.1,2.48-1.1h.35A2.61,2.61,0,0,1,346,81.3v7.85A.7.7,0,0,1,345.26,89.85Zm8.44,0h-2.24a2.63,2.63,0,0,1-2.62-2.63V81.28a2.67,2.67,0,0,1,2.71-2.59h2.05a2.67,2.67,0,0,1,2.71,2.59v5.94A2.62,2.62,0,0,1,353.7,89.85Zm.87-8.29a1.29,1.29,0,0,0-1.28-1.29h-1.41a1.29,1.29,0,0,0-1.29,1.29V87a1.27,1.27,0,0,0,1.27,1.3h1.41a1.28,1.28,0,0,0,1.3-1.3Zm6.27,8.29h-.33a.69.69,0,0,1-.71-.7V74.64a.7.7,0,0,1,.71-.71h.33a.71.71,0,0,1,.7.71V89.15A.7.7,0,0,1,360.84,89.85Zm9,0h-2.24A2.62,2.62,0,0,1,365,87.22V81.28a2.67,2.67,0,0,1,2.71-2.59h2.05a2.67,2.67,0,0,1,2.71,2.59v5.94A2.63,2.63,0,0,1,369.88,89.85Zm.87-8.29a1.28,1.28,0,0,0-1.27-1.29h-1.41a1.3,1.3,0,0,0-1.3,1.29V87a1.28,1.28,0,0,0,1.28,1.3h1.41a1.28,1.28,0,0,0,1.29-1.3ZM380.23,95h-2.88a.65.65,0,0,1-.7-.66v-.26a.65.65,0,0,1,.7-.66h2.19A1.37,1.37,0,0,0,381.1,92V89.34c0-.22-.07-.45-.28-.45-.55,0-1.06,1-2.48,1H378a2.66,2.66,0,0,1-2.62-2.66v-6A2.61,2.61,0,0,1,378,78.62h.35c1.32,0,1.89,1.1,2.48,1.1a.42.42,0,0,0,.35-.23l.3-.54a.6.6,0,0,1,.5-.26h.33a.54.54,0,0,1,.54.56V92.4A2.64,2.64,0,0,1,380.23,95Zm.87-13.29a1.48,1.48,0,0,0-1.49-1.48h-1a1.47,1.47,0,0,0-1.46,1.48v5.07a1.47,1.47,0,0,0,1.46,1.46h1a1.47,1.47,0,0,0,1.49-1.46Zm6.27-5.11H387a.7.7,0,0,1-.71-.71V74.64a.7.7,0,0,1,.71-.71h.33a.71.71,0,0,1,.7.71v1.29A.71.71,0,0,1,387.37,76.64Zm0,13.21H387a.69.69,0,0,1-.71-.7V79.39a.7.7,0,0,1,.71-.7h.33a.71.71,0,0,1,.7.7v9.76A.7.7,0,0,1,387.37,89.85ZM397.66,85h-4.35v1.86a1.34,1.34,0,0,0,1.53,1.44h2.42a.65.65,0,0,1,.71.66v.26a.65.65,0,0,1-.71.65h-3.13a2.67,2.67,0,0,1-2.57-2.68V81.28a2.67,2.67,0,0,1,2.71-2.59h2.05A2.68,2.68,0,0,1,399,81.28v2.28A1.28,1.28,0,0,1,397.66,85Zm-.37-3.44A1.27,1.27,0,0,0,396,80.27h-1.43a1.26,1.26,0,0,0-1.27,1.27v2h4Z"/>
    <g>
      <path class="a" d="M161.22,66.27a2.33,2.33,0,0,1,2.67-2,1.78,1.78,0,0,1,1.53,2.32,2.52,2.52,0,0,1-2.37,1.91C160.94,68.62,161,67.35,161.22,66.27Zm-13.16-8.55c1,.63,2.49,1,2.9-.07s.76-2.12-1.42-3.92c-.9-.75-2.32.15-2.73,1.25S146.48,56.71,148.06,57.72ZM216,73c-1.73-1.92-2.3-2.16-3-1.22s-.49,3.92.45,4.62a2.12,2.12,0,0,0,3-.42A2.32,2.32,0,0,0,216,73Zm.05,9.89a33.86,33.86,0,0,1-14.8,17.43,33.31,33.31,0,0,1-5,2.36s-3,1.06-3.35,5.75c-.29,4.1,2.25,3.53,2.25,3.53a42.55,42.55,0,0,1-52-52.19s.77-2.48,4.18-.18c3.9,2.63,3.3,5.77,3.3,5.77a34.52,34.52,0,0,0-.45,5.51,33.87,33.87,0,0,0,7.7,21.53c1,1,2.3,1.42,5.63.18,4.17-1.55,1.44-5,1.44-5a25.57,25.57,0,0,1-5.47-10.41c-.61-2.27-.49-6.33,2.12-7,2.27-.59,5.24,1.6,6.16,5a16.68,16.68,0,0,0,1.77,4.24c1.19,1.93,3.3,2.6,6.24,1.52s2.31-3.78,1.12-5.78a4.28,4.28,0,0,1,1.53-5.93,4.23,4.23,0,0,1,5.78,1.59h0a4.21,4.21,0,0,0,1.51,5.79,4.27,4.27,0,0,0,5.9-1.64c1.14-2,3.27-3.84,5.57-1.92s2.88,4.17,1.8,6.16a16.66,16.66,0,0,1-2.79,3.66c-2.52,2.52-2.93,6.18-1.29,7.86,1.89,1.92,5.47,0,7.13-1.67a25.51,25.51,0,0,0,6.28-9.94s1.61-4.08,5-1.25C216.14,80.19,216.42,81.52,216.06,82.89Zm-47,12.42c-.46-1.08-3.14-2.39-4.22-1.93a2.13,2.13,0,0,0-1.13,2.79,2.3,2.3,0,0,0,2.79,1.12C169.06,96.76,169.55,96.39,169.09,95.31ZM191,108.79c.05-1.18-.35-2.68-1.51-2.48s-2.21.4-2.69,3.19c-.19,1.15,1.3,1.93,2.46,1.74S190.89,110.66,191,108.79Zm1.82-18.37A2.5,2.5,0,0,0,190,89.33a1.77,1.77,0,0,0-1.25,2.48,2.36,2.36,0,0,0,3.09,1.31C192.86,92.79,194,92.18,192.79,90.42Zm2.86-10.34c.89-.82,1.91-2.13,1.66-3.25s-1.59-2.51-2.66-1.8A4,4,0,0,0,193,78.58C193.26,79.7,194.59,81.05,195.65,80.08Zm-23.08-.9c1.09.34,3-.11,2.89-1.4a4.06,4.06,0,0,0-2.26-3.2c-1.09-.34-2.93.15-2.62,1.54C170.84,77.31,171.47,78.84,172.57,79.18Z"/>
      <path class="b" d="M214.38,40.87s1.77,1.91-1.92,3.71c-4.23,2.06-6.65,0-6.66,0a32.63,32.63,0,0,0-4.54-3.14,33.87,33.87,0,0,0-22.49-4.1c-1.37.37-2.38,1.28-3,4.79-.75,4.38,3.59,3.73,3.59,3.73a25.44,25.44,0,0,1,11.75.47c2.27.61,5.72,2.74,5,5.34-.63,2.26-4,3.73-7.45,2.81a16.89,16.89,0,0,0-4.56-.59c-2.27.07-3.9,1.56-4.44,4.65s2.12,3.89,4.45,3.85a4.29,4.29,0,0,1,4.37,4.3,4.23,4.23,0,0,1-4.26,4.21h0a4.22,4.22,0,0,0,1.51,5.79,4.27,4.27,0,0,0,5.9-1.64c1.14-2,3.27-3.84,5.57-1.92s2.88,4.17,1.8,6.16a16.66,16.66,0,0,1-2.79,3.66c-2.52,2.52-2.93,6.18-1.29,7.86,1.89,1.92,5.47,0,7.13-1.67a25.51,25.51,0,0,0,6.28-9.94s1.61-4.08,5-1.25c2.74,2.27,3,3.6,2.66,5a33.86,33.86,0,0,1-14.8,17.43,34.39,34.39,0,0,1-5,2.37s-3,1-3.35,5.74c-.29,4.1,2.25,3.53,2.25,3.53a42.51,42.51,0,0,0,19.21-71.09ZM186.56,59.44a4.08,4.08,0,0,1-3.89.35c-1.16-.58-.61-2.43.23-3.21s2.49-.55,3.64-.19C187.91,56.82,187.41,58.66,186.56,59.44Zm13.6-2.9a1.76,1.76,0,0,1-2.76.16,2.52,2.52,0,0,1-.48-3c.94-1.9,2-1.24,2.83-.49A2.33,2.33,0,0,1,200.16,56.54Zm13.58-10.45c1.66-.86,2.25-.62,3,.29s.82,2.58-.28,3c-2.64,1-3.36.18-4.1-.73S212.7,46.64,213.74,46.09ZM216.43,76a2.12,2.12,0,0,1-3,.42c-.94-.7-1.15-3.68-.45-4.62s1.28-.7,3,1.22A2.32,2.32,0,0,1,216.43,76Zm-2.05-35.11Zm-27.6,68.63c.47-2.79,1.52-3,2.68-3.19s1.56,1.3,1.51,2.48c-.08,1.87-.59,2.25-1.74,2.45S186.58,110.65,186.78,109.5Zm5-16.38c1.06-.33,2.17-.94,1-2.7A2.5,2.5,0,0,0,190,89.33a1.77,1.77,0,0,0-1.25,2.48A2.36,2.36,0,0,0,191.8,93.12Zm3.85-13c.89-.82,1.91-2.13,1.66-3.25s-1.59-2.51-2.66-1.8A4,4,0,0,0,193,78.58C193.26,79.7,194.59,81.05,195.65,80.08ZM170.23,42.3c-.8,2.46-.72,3.07.44,3.21s3.64-1.53,3.78-2.69a2.11,2.11,0,0,0-1.85-2.37A2.32,2.32,0,0,0,170.23,42.3Z"/>
      <path class="c" d="M199.75,53.21a2.33,2.33,0,0,1,.41,3.33,1.76,1.76,0,0,1-2.76.16,2.52,2.52,0,0,1-.48-3C197.86,51.8,198.94,52.46,199.75,53.21ZM164.87,93.38a2.13,2.13,0,0,0-1.13,2.79,2.3,2.3,0,0,0,2.79,1.12c2.53-.53,3-.9,2.56-2S166,92.92,164.87,93.38Zm51.86-47c-.74-.91-1.33-1.15-3-.29-1,.55-2.14,1.64-1.39,2.55s1.46,1.71,4.1.73C217.55,49,217.48,47.28,216.73,46.38Zm-4.27-1.8c-4.23,2.06-6.65,0-6.66,0a32.63,32.63,0,0,0-4.54-3.14,33.87,33.87,0,0,0-22.49-4.1c-1.37.37-2.38,1.28-3,4.79-.75,4.38,3.59,3.73,3.59,3.73a25.44,25.44,0,0,1,11.75.47c2.27.61,5.72,2.74,5,5.34-.63,2.26-4,3.73-7.45,2.81a16.89,16.89,0,0,0-4.56-.59c-2.27.07-3.9,1.56-4.44,4.65s2.12,3.89,4.45,3.85a4.29,4.29,0,0,1,4.37,4.3,4.23,4.23,0,0,1-4.26,4.21h0a4.23,4.23,0,0,0-5.78-1.59A4.28,4.28,0,0,0,177,75.21c1.19,2,1.69,4.75-1.12,5.78s-5.05.41-6.24-1.52a16.68,16.68,0,0,1-1.77-4.24c-.92-3.45-3.89-5.64-6.16-5-2.61.68-2.73,4.74-2.12,7A25.57,25.57,0,0,0,165,87.6s2.73,3.43-1.44,5c-3.33,1.24-4.62.82-5.63-.18a33.87,33.87,0,0,1-7.7-21.53,34.52,34.52,0,0,1,.45-5.51s.6-3.14-3.3-5.77c-3.41-2.3-4.18.18-4.18.18a42.51,42.51,0,0,1,71.17-18.9h0S216.15,42.78,212.46,44.58Zm-62.92,9.15c-.9-.75-2.32.15-2.73,1.25s-.33,1.73,1.25,2.74c1,.63,2.49,1,2.9-.07S151.72,55.53,149.54,53.73Zm14.35,10.52a2.33,2.33,0,0,0-2.67,2c-.25,1.08-.28,2.35,1.83,2.21a2.52,2.52,0,0,0,2.37-1.91A1.78,1.78,0,0,0,163.89,64.25Zm6.78-18.74c1.17.15,3.64-1.53,3.78-2.69a2.11,2.11,0,0,0-1.85-2.37,2.31,2.31,0,0,0-2.37,1.85C169.43,44.76,169.51,45.37,170.67,45.51Zm4.79,32.27a4.06,4.06,0,0,0-2.26-3.2c-1.09-.34-2.93.15-2.62,1.54.26,1.19.89,2.72,2,3.06S175.54,79.07,175.46,77.78Zm7.44-21.2c-.84.78-1.39,2.63-.23,3.21a4.08,4.08,0,0,0,3.89-.35c.85-.78,1.35-2.62,0-3C185.39,56,183.74,55.8,182.9,56.58Z"/>
    </g>
    <rect class="a" x="127.18" y="28.35" width="0.77" height="85.04" transform="translate(255.13 141.73) rotate(180)"/>
    <path class="a" d="M70.87,28.35a42.52,42.52,0,1,0,42.52,42.51A42.57,42.57,0,0,0,70.87,28.35Zm0,83.85A41.34,41.34,0,1,1,112.2,70.86,41.38,41.38,0,0,1,70.87,112.2ZM95.81,67.62c-.58-1.24-.18-2-.36-2.94a45.18,45.18,0,0,0-1.74-4.37c-.3-.71,1.52-.53.18-3.11,0-.07,1.87-.78,0-2.23a10.49,10.49,0,0,1-2.41-2.7.41.41,0,0,1,0-.52c1.08-1,1.11-2.34-.07-3-.84-.51-1.81,0-2.71.59-.29.19-.44.3-.74.18A5.69,5.69,0,0,1,87.2,49a3.27,3.27,0,0,0,1.23-2.29,5.87,5.87,0,0,0-4.11.4L84.16,47a2.91,2.91,0,0,0,.34-2.8h0a33.29,33.29,0,0,1,5-5.4l0,0c.11-.11.15-.23-.06-.36s-.22-.13-.43-.25A37.41,37.41,0,0,0,33.49,70.86a38.19,38.19,0,0,0,16,30.61,5.63,5.63,0,0,0,1.12.66.36.36,0,0,0,.44-.08l.14-.19a.52.52,0,0,0,.13-.34c0-.28-.39-.52-.85-1.21a11.2,11.2,0,0,1-1.93-6.13,8.88,8.88,0,0,1,1.84-5.52c1.49,1.55,4.74,4.41,4.67,7-.08,2.92-2.81,2.78-2.22,5,.37,1.37,1.4.81,1.57,1.85.31,1.8,2.74,3,3.8,2.8.25,0,.47.17,1,.69.72.73,2.5.63,3.29.49s1.69.55,3.26.37c2-.21,2.46-.36,3.29-.38a101,101,0,0,1,14.61.73c1,.14,1.25-.28.82-1a11.56,11.56,0,0,1-1.11-10.1c2,.14,4.93.69,8.77-1.62a4.53,4.53,0,0,0,2.05-3.85,9.72,9.72,0,0,1-.19-2.73c.29-1.1.5-1.08.82-1.3,1.47-1,.41-1.85.18-1.93a1.33,1.33,0,0,0,.42-1.86c-.26-.28-1.06-2.52-.14-3s2.12-.72,3.26-1.22a1.85,1.85,0,0,0,1-2.46C98.9,74.67,95.91,67.81,95.81,67.62ZM54.56,100.89c-.29,0-1.21.09-1-1.12.12-.74.93-1,1.34-.63C54.81,99.72,54.62,100.28,54.56,100.89Zm35.23-51c.48-.3,1-.43,1.31-.13,1.06,1-1.16,1.64-.7,2.44a12.26,12.26,0,0,0,3,3.41c.5.39.57,1.25-1.34,1.65s-9.57,2.41-13.61,6.69c-5,5.35-8.26,12.28-8.7,11.33s-1.45-1.12-1.29-1.39C75.74,61.38,87.11,51.56,89.79,49.88Zm3.32,8.78c-.41,1.19-3.71,2.25-3.55,1.42.07-.38,0-.88.26-.92s1.4-.43,3-.84C93,58.27,93.22,58.37,93.11,58.66Zm-8.35,2.17c-.09-.49,3.45-1.68,3.58-1.33.22.65-.73,2.4-1.92,2.83-1.35.5-1.91.35-1.86.16A5.22,5.22,0,0,0,84.76,60.83ZM76.54,79.3c-1.63,1-2.52-.91-2.75-1.25a1.57,1.57,0,0,1-.21-1.28A10.36,10.36,0,0,0,73.41,73c-.16-1.07,2-3.73,2.55-4.19s1.27.24,1.32,1a3.19,3.19,0,0,1-1.6,2.91c-1.05.78-1.25,1.8-1.05,2.07.08.1.55.11.76-.33.63-1.35,2.43-2,2.72-2.73a3.58,3.58,0,0,0,.08-2.26c0-.41.35-.51.65-.46s.55.57.75,1.08c1.16,3-1.77,4.88-2.24,5.6C77.13,76.05,77.8,78.52,76.54,79.3ZM79,67.51c-.87.59-2.13-.21-1.88-.57a17.63,17.63,0,0,1,4.65-4.46c1.39-.87,1.54-.93,1.61-.44a4.18,4.18,0,0,1-1.06,3,3.33,3.33,0,0,1-2.34,1C79.65,66.19,79.66,67.05,79,67.51Zm-7.8,10.38c-.4-.09-.55-.88-.47-1.18a11.47,11.47,0,0,1,1.62-2.61c.1-.13.29,0,.31.14C72.88,75.89,72.65,78.21,71.19,77.89Zm13-30a7.51,7.51,0,0,1,3-.65c.33,0-.74,1.95-2.65,2.77a8.54,8.54,0,0,1-3.61.91C80.74,50.77,82.66,48.57,84.22,47.86ZM50.49,79.55a3.27,3.27,0,0,0-1.18-1,9.13,9.13,0,0,0-1.44,3.62,25.8,25.8,0,0,1-3-11.31C44.28,56.53,56.29,45,70.94,45A23.29,23.29,0,0,1,80,46.88a10.64,10.64,0,0,0-1.49,2.69c0-.77-.22-1.38-.16-1.86,0-.3-2.08.35-3.95,3.34a7.19,7.19,0,0,0-.88,2.16,4.42,4.42,0,0,0-.38-2,6.52,6.52,0,0,0-3.44,3.55,8.32,8.32,0,0,0-.45,1.39,2.72,2.72,0,0,0-.36-1.32,6.42,6.42,0,0,0-3.49,3.61A6.9,6.9,0,0,0,65,60.33c-.2-.94-.56-1.51-.68-1.36-.77,1-2.28,1.41-3.09,3.89a5.79,5.79,0,0,0-.27,1.7c-.33-.84-.8-1.32-.91-1.3a8.28,8.28,0,0,0-2.84,4.41A6.45,6.45,0,0,0,57.25,70,10.65,10.65,0,0,1,56,68.07a6.16,6.16,0,0,0-2.35,4.34,8.62,8.62,0,0,0,.3,2.47c-.65-1.17-1.56-1.72-1.66-1.65a7.46,7.46,0,0,0-2,4.47A4.72,4.72,0,0,0,50.49,79.55Zm30-32.26c1.15-1.37,3.11-2.47,3.33-2.33s-.33,2.25-1.59,3.49a12.79,12.79,0,0,1-3.48,2.46C78.52,50.9,79.45,48.52,80.49,47.29Zm-3.74,5.28a8.67,8.67,0,0,0-2.28,2.57c-.22.36-.76-2,.69-4.3a7.73,7.73,0,0,1,2.63-2.48C77.66,48.92,78.65,51,76.75,52.57Zm-4.1,3c-1.37,2-1.45,1.34-3,3.34a9.74,9.74,0,0,1,.43-3.8,6.67,6.67,0,0,1,2.52-3C72.87,52.07,73.4,54.48,72.65,55.61Zm-4.49,4.08c-.7,1.23-1.34,1-2.51,2.69-.13.2-.44-1.44.26-3.65a5.28,5.28,0,0,1,2.4-2.8C68.57,55.86,69,58.23,68.16,59.69ZM64,64c-.72,1.56-1.18,1.61-2,2.59-.15.16-.77-1.49-.17-3.57A6,6,0,0,1,64,60.2C64.16,60,64.75,62.36,64,64Zm-3.4,2.68a3.92,3.92,0,0,1-.19,1.21,8.91,8.91,0,0,1-2.11,3.29,5.36,5.36,0,0,1-.65-2.37,6.06,6.06,0,0,1,2.1-4.51C60.05,64.31,60.59,65.6,60.59,66.7Zm-3.46,5.18a6.14,6.14,0,0,1-2.05,4.38,7.11,7.11,0,0,1-.89-3.07,4.71,4.71,0,0,1,1.43-4C55.84,70,57.15,70.55,57.13,71.88Zm-4.89,2.54a3.69,3.69,0,0,1,1.65,3.31,4.71,4.71,0,0,1-1.84,3.82C51.67,80.08,51,79.77,51,78.31A7.52,7.52,0,0,1,52.24,74.42Zm2.95,5.08a7.76,7.76,0,0,1,4-.6,5.14,5.14,0,0,1-2.39,3.32c-1.81,1-3.84,1.06-4,.83A4.9,4.9,0,0,1,55.19,79.5Zm-.14-1.37a6,6,0,0,1,2.86-3.39h0a7.61,7.61,0,0,1,3.8-.59c.22.09-.69,2.26-2.36,3.06C57.48,78.1,56.74,77.58,55.05,78.13Zm2.78-4.78c.07-.18,1.42-2.61,3-3.35a7.25,7.25,0,0,1,3.6-.54,5.1,5.1,0,0,1-2.52,3.08C60.14,73.42,57.75,73.54,57.83,73.35Zm3.61-4.84a9.44,9.44,0,0,1,3.38-3.34,6.14,6.14,0,0,1,3.4-.41,4.65,4.65,0,0,1-2.6,3A9.4,9.4,0,0,1,61.44,68.51Zm4.33-4.78a6.8,6.8,0,0,1,3-3.18,6.72,6.72,0,0,1,3.6,0c.38,0-.54,1.84-2.69,2.63A8.58,8.58,0,0,1,65.77,63.73Zm4.86-4.62a8.31,8.31,0,0,1,3.29-3,7.22,7.22,0,0,1,3.71-.09c.21.09-1.12,2.06-3.14,2.67A9.13,9.13,0,0,1,70.63,59.11Zm4.91-4c-.21-.15,1.73-2.32,3.3-2.92a7.12,7.12,0,0,1,3.35-.41,5.34,5.34,0,0,1-2.87,2.72A7.5,7.5,0,0,1,75.54,55.13ZM48.68,99.35a36.67,36.67,0,0,1-14-28.49,36.18,36.18,0,0,1,53-32,.16.16,0,0,1,0,.27,38.72,38.72,0,0,0-4.12,4.62,29.62,29.62,0,0,0-12.69-2.82,30,30,0,0,0-30,30,29.26,29.26,0,0,0,7.22,19.52,9.81,9.81,0,0,0-.75,3.82A10.34,10.34,0,0,0,48.68,99.35Zm.06-10.06h0a28,28,0,0,1-6.66-18.44A28.83,28.83,0,0,1,70.87,42.07a28.48,28.48,0,0,1,12,2.6,7.58,7.58,0,0,0-1.65,1,25.76,25.76,0,0,0-10.33-2.06,27.24,27.24,0,0,0-27.22,27.2,26,26,0,0,0,6,17ZM50.17,87a5.49,5.49,0,0,1-1.78-3.38v-.24a7.57,7.57,0,0,1,1-3.65c.2-.19,2.16,1.34,2.19,3.53A5.79,5.79,0,0,1,50.17,87Zm3.25-2.92a6.85,6.85,0,0,1,3.77-.46c-.13.1-.75,2.37-2.51,3.25a5.06,5.06,0,0,1-3.56.53C52.07,86.39,51.87,84.85,53.42,84.11Zm2.11,18.81a4.27,4.27,0,0,1,.21-2.93c.7-.34,2-.48,2-.07a11.3,11.3,0,0,0,.12,4.14C57.74,104.37,56,104.23,55.53,102.92Zm.12-4.47c-.14-.81.63-1.58.62-3.33,0-2.15-2.67-5.1-4.47-7A7.78,7.78,0,0,0,55,87.35a6.44,6.44,0,0,0,3.27-4.2A3.88,3.88,0,0,0,56.75,83l.3-.15a6.32,6.32,0,0,0,3.17-4.5,6.7,6.7,0,0,0-1.61-.11c.26-.08.52-.18.79-.29a5.85,5.85,0,0,0,3.44-4.28,5,5,0,0,0-1.4-.17q.38-.15.75-.33A6.21,6.21,0,0,0,65.46,69a4.57,4.57,0,0,0-1.31-.15A9.8,9.8,0,0,0,66,68.21a5.91,5.91,0,0,0,3.47-3.89,4.22,4.22,0,0,0-1.2-.23,15.56,15.56,0,0,0,1.76-.5,5.64,5.64,0,0,0,3.6-3.49c-.36,0-.86-.21-1.51-.32a10.26,10.26,0,0,0,2.65-.54c2.89-1,3.91-2.72,4-3.48a2.32,2.32,0,0,0-.91-.32,9.11,9.11,0,0,0,1.87-.51,7.67,7.67,0,0,0,3.92-4,13.22,13.22,0,0,0,1.57-.61,7.11,7.11,0,0,0,.78-.4c.13.1.34.25.66.45s.55.33.35.5A102.78,102.78,0,0,0,67.86,73.43c-.08.13-.24.11-.5.09-3.22-.21-5,3.62-3.6,7.22A7.84,7.84,0,0,1,61.93,83c-.11.1-.42.55.1.5.75-.06,1.72-1.27,2.17-1.81.2.24.9.83.56,1.16a25.39,25.39,0,0,1-5.65,4.23c-1,.5,1.7.85,6.36-3.36.28-.25.6,1,1,1.49-.8,2.64,1.17,7.74.86,9.34a1.17,1.17,0,0,1-1.15,1.09c-4.61.09-5.07-.12-7.42.57-1.09.33-.8,1,0,.83s1.85-.61,6.85-.29c1.22.07,2.61-.25,2.62-2.31,0-1.87-1.48-7.45-1-8.21a2.59,2.59,0,0,0,1.39.56c-.06,1.82,2.86,7.7,1.56,10.94-.48,1.2-2.61,1.11-6.25.75C57.78,97.85,55.78,99.19,55.65,98.45Zm14.22,4a2.27,2.27,0,0,1-3-2.58c.24-.37,1.76.41,2.95-.35C70.76,98.92,71.26,102,69.87,102.44ZM58.94,104.2c-.34-1.49-.47-4.07.14-4.65.13-.11,2-.38,2,0-.15,1.78-.86,3.76.49,5.74C62,106.08,59.39,106.2,58.94,104.2Zm4.59,1.7c-.65-.16-2.43-3-1-6.39.15-.35,2.38-.13,2.75,0s-.3,2.78,2.76,4C68.37,103.57,68,107,63.53,105.9Zm19.13-9.46c-1,3.58-1.55,5,0,8.89.21.52.36.91-.09.83-3.13-.54-3.8-1-13.63-.22-.7.06.23-1.37.12-2.34a2.8,2.8,0,0,0,2.63-2c.37-1.77-.86-3.07-.73-3.32,1.39-2.72-.09-5.73-1.27-10.77-.11-.48.16-.68.37-.46,6.31,6.83,10.33,8.19,12.51,8.83C82.78,96,82.74,96.2,82.66,96.44ZM98.8,77.78c-1.32,1.17-3.34,1.26-4.16,2-.43.39-.62,1-.16,2.09.26.63.45.71-.46,1-1.47.39-1.67,2.32-3.54,2-.75-.14-.21.34.06.36a2.06,2.06,0,0,0,1.87-.55,5.23,5.23,0,0,1,1.45-1.2c.59-.23,1.19-.21,1.2.23s-.74.88-1,1c.38.2,1.55.79.55,1.47-.78.53-1.85-.2-2-.29s-.68-.07-.53.11c.58.7,2.13.52,1.85.89-1.43,1.93-.26,3.05-.7,5s-3.13,3-5.19,3.41C81,96.52,74.12,90.54,70.11,86c.36-.86.32-2,0-1.58s-.29,1-1.12,1.21c-1.62.41-2.31-2.39-2.81-2.88a6,6,0,0,1-1.56-7,2.59,2.59,0,0,1,4.61-.46c1.22,1.8.66,2.82,1.35,3.36a2,2,0,0,0,2.21,0c.74-.2.68,1.75,3.21,1.66,2.72-.09,2.41-4.32,2.79-4.7,3.49-3.4,1.71-6.43,1.08-7.14-.17-.18.38-1.43.59-1.48a5.33,5.33,0,0,0,3.83-3.14s3.4-.06,4.61-2.51c.32-.65,1.32.63,3.59-1.15a.36.36,0,0,1,.6.13c1.46,3.58,2.07,4.56,2,6.39-.08,1.33,3.54,8.69,3.8,9.33S99.14,77.48,98.8,77.78Zm-8.18-13c-2,.07-4.28,2.5-5,2.83s-.51.58,0,.41c1-.36,2.39-1.86,4.33-2.56,1.53-.56,1.43.7,2,.63C92.15,66.09,91.76,64.77,90.62,64.81Zm.45,1.94c-.17,0,.17.88-.69.94-1.86.11-3.34,1.87-4.47,2.4a5.9,5.9,0,0,1-1.54.57c-.15,0-.09.23,0,.25,4.75.63,6.57.46,6.61.29.08-.33-.27-.49-.19-.7a4.45,4.45,0,0,0,.06-2.22c-.09-.32.7-.11.7-.55C91.58,67.5,91.34,66.68,91.07,66.75Zm-.73,3.75c-.09.37-2.21.2-3.37.1-.27,0-.73-.07.15-.59A8.47,8.47,0,0,1,90,68.66a.29.29,0,0,1,.35.24A3.85,3.85,0,0,1,90.34,70.5Zm6.19,6.75a9,9,0,0,0-2.37,1c-.32.2-1.8,1.11-1.7-.33,0-.51.37-1.77.36-2.12,0-.52-.43-.31-.44,0A14,14,0,0,1,92.07,78a1,1,0,0,0,1.49,1.11,11.7,11.7,0,0,1,2.92-1.38C96.74,77.64,96.78,77.26,96.53,77.25ZM69.05,82.44c-.28-.11-.21.47-.59.41s-.08-.53-.72-1.22c-.33-.34-1.13-.48-1.73-1.44-1-1.51-.14-4.88,1.25-4.4.76.27.63,2.06.4,3.27-.14.74,1,1.11,1.12.85.18-.44-.42-.39-.56-.79C68,78.5,69.64,76,67.5,75.33c-1.55-.52-2.58,1.44-2.39,3.61a3.19,3.19,0,0,0,2.07,2.85c.94.34.23,1.63,1.49,1.64C69.23,83.43,69.35,82.55,69.05,82.44ZM81.51,41.87a.15.15,0,0,0,.19,0l2.64-3.33a.18.18,0,0,0-.07-.26l-.45-.18a.2.2,0,0,0-.19.05L81,41.45a.16.16,0,0,0,.07.26Zm-4.89-1.36.46.09a.15.15,0,0,0,.18-.1l1.55-3.81a.17.17,0,0,0-.12-.23l-.51-.11a.09.09,0,0,0-.11.06c-.2.49-1.27,3.15-1.57,3.88A.16.16,0,0,0,76.62,40.51ZM71.19,40h.46a.16.16,0,0,0,.17-.15l.38-4.05a.16.16,0,0,0-.16-.18l-.47,0a.16.16,0,0,0-.16.15L71,39.8A.16.16,0,0,0,71.19,40Zm-5.28.4.45-.07a.17.17,0,0,0,.14-.2l-.77-4a.16.16,0,0,0-.19-.13l-.46.07a.16.16,0,0,0-.13.19l.77,4A.18.18,0,0,0,65.91,40.38Zm-5.39,1.23a.16.16,0,0,0,.2.08l.43-.15a.17.17,0,0,0,.1-.23l-1.83-3.67a.16.16,0,0,0-.2-.08l-.44.16a.16.16,0,0,0-.09.23Zm-5,2.33a.15.15,0,0,0,.2,0l.41-.22a.17.17,0,0,0,0-.26L53.4,40.37a.17.17,0,0,0-.21,0l-.4.24a.17.17,0,0,0,0,.26ZM50.8,47.25a.17.17,0,0,0,.19,0l.37-.31a.16.16,0,0,0,0-.26l-3.45-2.4a.17.17,0,0,0-.21,0l-.36.32a.16.16,0,0,0,0,.25Zm-4.09,4.2a.15.15,0,0,0,.19-.05c.1-.12.2-.25.31-.37a.16.16,0,0,0-.07-.26l-4-1.55a.18.18,0,0,0-.19.05l-.3.39a.16.16,0,0,0,.08.25ZM39.2,55.8l4.26.59a.16.16,0,0,0,.17-.08l.24-.44a.17.17,0,0,0-.13-.24L39.46,55a.15.15,0,0,0-.17.09l-.21.43A.17.17,0,0,0,39.2,55.8Zm-2.33,6.45,4.35-.41a.17.17,0,0,0,.14-.12l.15-.47a.17.17,0,0,0-.17-.22L37,61.45a.17.17,0,0,0-.15.12l-.12.48A.16.16,0,0,0,36.87,62.25Zm3.3,5.17.06-.51a.17.17,0,0,0-.22-.18l-4.23,1.48a.15.15,0,0,0-.11.14l0,.5a.16.16,0,0,0,.22.16l4.2-1.46A.16.16,0,0,0,40.17,67.42Zm-.11,5.78,0-.53a.17.17,0,0,0-.26-.13l-3.83,2.52a.17.17,0,0,0-.07.16c0,.17,0,.34.07.51a.16.16,0,0,0,.25.11l3.8-2.5A.13.13,0,0,0,40.06,73.2ZM41,79c0-.17-.09-.35-.13-.53a.16.16,0,0,0-.28-.07L37.49,81.8a.18.18,0,0,0,0,.17l.18.49a.17.17,0,0,0,.28.06L41,79.13A.18.18,0,0,0,41,79Zm1.6,5.13-2.2,4.19a.15.15,0,0,0,0,.16c.09.15.18.31.28.46a.17.17,0,0,0,.29,0l2.17-4.14a.14.14,0,0,0,0-.15l-.25-.51A.16.16,0,0,0,42.62,84.1Zm3.09,4.7a.17.17,0,0,0-.29.06l-1.18,4.86a.17.17,0,0,0,0,.15l.37.42a.16.16,0,0,0,.28-.07l1.16-4.8a.17.17,0,0,0,0-.14Z"/>
  </g>
</svg>
