<?xml version="1.0" encoding="utf-8"?>
<svg xmlns="http://www.w3.org/2000/svg" style="margin: auto; background: none; display: block; shape-rendering: auto;" width="280" height="53" preserveAspectRatio="xMidYMid">
<style type="text/css">
  text {
    text-anchor: middle; font-size: 33px; opacity: 0;
  }
</style>
<g style="transform-origin: 140px 26.5px; transform: scale(0.891892);">
<g transform="translate(140,26.5)">
  <g transform="translate(0,0)"><g class="path" style="transform: scale(0.91); transform-origin: -128.535px -1.39588px; animation: 1s linear -0.6325s infinite normal forwards running breath-9bd3241e-d489-466a-a232-c5ba8dedf28b;"><path d="M23.75-1.63L23.75-1.63L23.75-1.63Q25.71-1.63 27.03-2.94L27.03-2.94L27.03-2.94Q28.34-4.25 28.97-5.81L28.97-5.81L33.34-24.61L34.11-24.61L28.93-2.37L28.60-0.52L28.60-0.52Q28.60 1.04 30.04 1.04L30.04 1.04L30.04 1.04Q31.19 1.04 31.86-0.04L31.86-0.04L32.38 0.41L32.15 0.74L32.15 0.74Q31.93 1.07 31.36 1.41L31.36 1.41L31.36 1.41Q30.78 1.74 29.84 1.74L29.84 1.74L29.84 1.74Q28.90 1.74 28.36 1.11L28.36 1.11L28.36 1.11Q27.82 0.48 27.82-0.30L27.82-0.30L27.82-0.30Q27.82-1.07 28.27-2.85L28.27-2.85L28.45-3.70L28.45-3.70Q27.45-2.15 25.77-0.91L25.77-0.91L25.77-0.91Q24.09 0.33 22.05 0.33L22.05 0.33L22.05 0.33Q18.65 0.33 16.84-1.46L16.84-1.46L16.84-1.46Q15.02-3.26 15.02-6.01L15.02-6.01L15.02-6.01Q15.02-8.77 15.76-11.84L15.76-11.84L15.76-11.84Q16.06-12.99 16.80-15.82L16.80-15.82L16.80-15.82Q17.54-18.65 17.98-20.46L17.98-20.46L17.98-20.46Q15.06-21.72 11.40-21.72L11.40-21.72L11.40-21.72Q8.21-21.72 6.09-19.54L6.09-19.54L6.09-19.54Q3.96-17.35 3.96-13.84L3.96-13.84L3.15-13.84L3.15-13.84Q3.15-17.69 5.51-20.11L5.51-20.11L5.51-20.11Q7.88-22.53 11.58-22.53L11.58-22.53L11.58-22.53Q14.54-22.53 17.98-21.39L17.98-21.39L17.98-21.39Q21.94-19.94 26.57-19.94L26.57-19.94L26.57-19.17L26.57-19.17Q23.79-19.17 22.13-19.43L22.13-19.43L22.13-19.43Q21.68-17.57 20.83-14.30L20.83-14.30L20.83-14.30Q19.98-11.03 19.65-9.31L19.65-9.31L19.65-9.31Q19.31-7.58 19.31-5.77L19.31-5.77L19.31-5.77Q19.31-3.96 20.55-2.79L20.55-2.79L20.55-2.79Q21.79-1.63 23.75-1.63" fill="#619649" stroke="none" stroke-width="none" transform="translate(-147.16497802734375,10.039120941162109)" style="fill: rgb(97, 150, 73);"></path></g><g class="path" style="transform: scale(0.91); transform-origin: -119.62px -16.1009px; animation: 1s linear -0.605s infinite normal forwards running breath-9bd3241e-d489-466a-a232-c5ba8dedf28b;"><path d="M27.51-23.98L27.51-23.98L27.51-23.98Q26.60-23.98 25.99-24.59L25.99-24.59L25.99-24.59Q25.38-25.20 25.38-26.10L25.38-26.10L25.38-26.10Q25.38-27.01 26.01-27.66L26.01-27.66L26.01-27.66Q26.64-28.30 27.53-28.30L27.53-28.30L27.53-28.30Q28.42-28.30 29.06-27.66L29.06-27.66L29.06-27.66Q29.71-27.01 29.71-26.12L29.71-26.12L29.71-26.12Q29.71-25.23 29.06-24.61L29.06-24.61L29.06-24.61Q28.42-23.98 27.51-23.98" fill="#619649" stroke="none" stroke-width="none" transform="translate(-147.16497802734375,10.039120941162109)" style="fill: rgb(133, 223, 111);"></path></g><g class="path" style="transform: scale(0.91); transform-origin: -125.54px -16.1009px; animation: 1s linear -0.5775s infinite normal forwards running breath-9bd3241e-d489-466a-a232-c5ba8dedf28b;"><path d="M21.59-23.98L21.59-23.98L21.59-23.98Q20.68-23.98 20.07-24.59L20.07-24.59L20.07-24.59Q19.46-25.20 19.46-26.10L19.46-26.10L19.46-26.10Q19.46-27.01 20.09-27.66L20.09-27.66L20.09-27.66Q20.72-28.30 21.61-28.30L21.61-28.30L21.61-28.30Q22.50-28.30 23.14-27.66L23.14-27.66L23.14-27.66Q23.79-27.01 23.79-26.12L23.79-26.12L23.79-26.12Q23.79-25.23 23.14-24.61L23.14-24.61L23.14-24.61Q22.50-23.98 21.59-23.98" fill="#619649" stroke="none" stroke-width="none" transform="translate(-147.16497802734375,10.039120941162109)" style="fill: rgb(117, 179, 76);"></path></g><g class="path" style="transform: scale(0.91); transform-origin: -104.375px -1.45088px; animation: 1s linear -0.55s infinite normal forwards running breath-9bd3241e-d489-466a-a232-c5ba8dedf28b;"><path d="M42.14 0.33L42.14 0.33L42.14 0.33Q39.81 0.33 38.74-1.22L38.74-1.22L35.63 1.00L34.93 1.00L39.07-23.24L39.07-23.24Q37.96-23.13 37.22-22.20L37.22-22.20L36.67-22.64L36.67-22.64Q37.78-23.98 39.46-23.98L39.46-23.98L39.46-23.98Q41.14-23.98 42.07-23.13L42.07-23.13L42.07-23.13Q42.99-22.27 42.99-20.72L42.99-20.72L42.99-20.72Q42.99-20.42 42.92-19.76L42.92-19.76L42.92-19.76Q42.33-16.46 41.48-11.84L41.48-11.84L41.48-11.84Q43.03-14.36 45.51-14.36L45.51-14.36L45.51-14.36Q47.99-14.36 49.32-12.93L49.32-12.93L49.32-12.93Q50.65-11.51 50.65-9.03L50.65-9.03L50.65-9.03Q50.65-4.66 48.28-2.16L48.28-2.16L48.28-2.16Q45.92 0.33 42.14 0.33zM41.88-0.67L41.88-0.67L41.88-0.67Q43.92-0.67 45.20-3.50L45.20-3.50L45.20-3.50Q46.47-6.33 46.47-10.54L46.47-10.54L46.47-10.54Q46.47-12.25 46.12-12.88L46.12-12.88L46.12-12.88Q45.77-13.50 44.84-13.50L44.84-13.50L44.84-13.50Q43.92-13.50 42.94-12.39L42.94-12.39L42.94-12.39Q41.96-11.29 41.51-10.30L41.51-10.30L41.51-10.30Q41.07-9.32 41.07-9.18L41.07-9.18L41.00-9.18L41.00-9.18Q40.07-4.33 39.63-1.85L39.63-1.85L39.63-1.85Q40.26-0.67 41.88-0.67" fill="#619649" stroke="none" stroke-width="none" transform="translate(-147.16497802734375,10.039120941162109)" style="fill: rgb(182, 210, 80);"></path></g><g class="path" style="transform: scale(0.91); transform-origin: -88.335px 3.00912px; animation: 1s linear -0.5225s infinite normal forwards running breath-9bd3241e-d489-466a-a232-c5ba8dedf28b;"><path d="M60.46-14.39L60.46-14.39L60.46-14.39Q65.16-14.39 65.16-10.66L65.16-10.66L65.16-10.66Q65.16-8.32 62.96-7.12L62.96-7.12L62.96-7.12Q60.75-5.92 56.68-5.88L56.68-5.88L56.68-5.88Q56.61-4.55 56.61-3.77L56.61-3.77L56.61-3.77Q56.61-2.11 57.37-1.31L57.37-1.31L57.37-1.31Q58.13-0.52 59.27-0.52L59.27-0.52L59.27-0.52Q60.42-0.52 61.36-0.96L61.36-0.96L61.36-0.96Q62.31-1.41 62.86-2.02L62.86-2.02L62.86-2.02Q63.42-2.63 63.83-3.29L63.83-3.29L63.83-3.29Q64.56-4.51 64.56-4.85L64.56-4.85L65.23-4.55L65.23-4.55Q65.12-3.96 64.56-2.98L64.56-2.98L64.56-2.98Q64.01-2.00 63.34-1.37L63.34-1.37L63.34-1.37Q62.68-0.74 61.38-0.20L61.38-0.20L61.38-0.20Q60.09 0.33 58.50 0.33L58.50 0.33L58.50 0.33Q55.50 0.33 53.96-1.09L53.96-1.09L53.96-1.09Q52.43-2.52 52.43-5.00L52.43-5.00L52.43-5.00Q52.43-9.40 54.61-11.90L54.61-11.90L54.61-11.90Q56.80-14.39 60.46-14.39zM64.23-10.66L64.23-10.66Q64.23-11.88 63.51-12.67L63.51-12.67L63.51-12.67Q62.79-13.47 61.36-13.47L61.36-13.47L61.36-13.47Q59.94-13.47 58.59-11.77L58.59-11.77L58.59-11.77Q57.24-10.06 56.80-6.73L56.80-6.73L56.80-6.73Q64.23-6.77 64.23-10.66L64.23-10.66" fill="#619649" stroke="none" stroke-width="none" transform="translate(-147.16497802734375,10.039120941162109)" style="fill: rgb(142, 167, 34);"></path></g><g class="path" style="transform: scale(0.91); transform-origin: -73.055px 2.84412px; animation: 1s linear -0.495s infinite normal forwards running breath-9bd3241e-d489-466a-a232-c5ba8dedf28b;"><path d="M67.93-12.62L67.38-13.06L67.38-13.06Q68.49-14.39 70.17-14.39L70.17-14.39L70.17-14.39Q71.85-14.39 72.78-13.54L72.78-13.54L72.78-13.54Q73.70-12.69 73.70-11.14L73.70-11.14L73.70-10.91L73.70-10.91Q75.37-14.39 78.03-14.39L78.03-14.39L78.03-14.39Q80.88-14.39 80.88-11.43L80.88-11.43L80.88-11.43Q80.88-10.21 80.07-8.84L80.07-8.84L80.07-8.84Q79.25-7.47 78.44-6.23L78.44-6.23L78.44-6.23Q77.63-5.00 77.63-4.03L77.63-4.03L76.74-4.03L76.74-4.03Q76.74-5.40 78.33-7.73L78.33-7.73L78.33-7.73Q79.92-10.06 79.92-11.34L79.92-11.34L79.92-11.34Q79.92-12.62 79.42-13.08L79.42-13.08L79.42-13.08Q78.92-13.54 77.94-13.54L77.94-13.54L77.94-13.54Q76.96-13.54 76.02-12.69L76.02-12.69L76.02-12.69Q75.07-11.84 74.44-10.54L74.44-10.54L74.44-10.54Q73.45-8.62 73.11-7.40L73.11-7.40L73.11-7.36L71.78 0L67.34 0L69.78-13.65L69.78-13.65Q68.67-13.54 67.93-12.62L67.93-12.62" fill="#619649" stroke="none" stroke-width="none" transform="translate(-147.16497802734375,10.039120941162109)" style="fill: rgb(97, 150, 73);"></path></g><g class="path" style="transform: scale(0.91); transform-origin: -59.7px 0.26912px; animation: 1s linear -0.4675s infinite normal forwards running breath-9bd3241e-d489-466a-a232-c5ba8dedf28b;"><path d="M82.07-14.06L83.95-14.06L84.95-19.54L84.95-19.54Q87.69-19.54 89.02-19.76L89.02-19.76L89.50-19.87L89.50-19.87Q88.99-17.28 88.36-14.06L88.36-14.06L92.94-14.06L92.87-13.39L88.25-13.39L88.25-13.39Q86.40-3.85 86.40-1.89L86.40-1.89L86.40-1.89Q86.40-0.70 87.65-0.70L87.65-0.70L87.65-0.70Q88.91-0.70 89.95-2.29L89.95-2.29L89.95-2.29Q90.98-3.88 91.43-5.73L91.43-5.73L92.09-5.51L92.09-5.51Q90.72 0.33 86.43 0.33L86.43 0.33L86.43 0.33Q84.66 0.33 83.47-0.65L83.47-0.65L83.47-0.65Q82.29-1.63 82.29-3.39L82.29-3.39L82.29-3.39Q82.29-5.14 83.81-13.39L83.81-13.39L81.99-13.39L82.07-14.06" fill="#619649" stroke="none" stroke-width="none" transform="translate(-147.16497802734375,10.039120941162109)" style="fill: rgb(133, 223, 111);"></path></g><g class="path" style="transform: scale(0.91); transform-origin: -46.635px 2.84412px; animation: 1s linear -0.44s infinite normal forwards running breath-9bd3241e-d489-466a-a232-c5ba8dedf28b;"><path d="M94.35-12.62L93.80-13.06L93.80-13.06Q94.91-14.39 96.59-14.39L96.59-14.39L96.59-14.39Q98.27-14.39 99.20-13.54L99.20-13.54L99.20-13.54Q100.12-12.69 100.12-11.14L100.12-11.14L100.12-10.91L100.12-10.91Q101.79-14.39 104.45-14.39L104.45-14.39L104.45-14.39Q107.30-14.39 107.30-11.43L107.30-11.43L107.30-11.43Q107.30-10.21 106.49-8.84L106.49-8.84L106.49-8.84Q105.67-7.47 104.86-6.23L104.86-6.23L104.86-6.23Q104.04-5.00 104.04-4.03L104.04-4.03L103.16-4.03L103.16-4.03Q103.16-5.40 104.75-7.73L104.75-7.73L104.75-7.73Q106.34-10.06 106.34-11.34L106.34-11.34L106.34-11.34Q106.34-12.62 105.84-13.08L105.84-13.08L105.84-13.08Q105.34-13.54 104.36-13.54L104.36-13.54L104.36-13.54Q103.38-13.54 102.43-12.69L102.43-12.69L102.43-12.69Q101.49-11.84 100.86-10.54L100.86-10.54L100.86-10.54Q99.86-8.62 99.53-7.40L99.53-7.40L99.53-7.36L98.20 0L93.76 0L96.20-13.65L96.20-13.65Q95.09-13.54 94.35-12.62L94.35-12.62" fill="#619649" stroke="none" stroke-width="none" transform="translate(-147.16497802734375,10.039120941162109)" style="fill: rgb(117, 179, 76);"></path></g><g class="path" style="transform: scale(0.91); transform-origin: -31.095px 3.00912px; animation: 1s linear -0.4125s infinite normal forwards running breath-9bd3241e-d489-466a-a232-c5ba8dedf28b;"><path d="M121.14 0.33L121.14 0.33L121.14 0.33Q117.88 0.33 117.59-2.52L117.59-2.52L117.59-2.52Q115.96 0.33 113.48 0.33L113.48 0.33L113.48 0.33Q111.00 0.33 109.54-1.17L109.54-1.17L109.54-1.17Q108.08-2.66 108.08-5.36L108.08-5.36L108.08-5.36Q108.08-9.58 110.15-11.99L110.15-11.99L110.15-11.99Q112.22-14.39 115.51-14.39L115.51-14.39L115.51-14.39Q118.22-14.39 119.10-11.84L119.10-11.84L119.10-11.84Q119.29-12.95 119.51-14.06L119.51-14.06L119.51-14.06Q122.25-14.06 123.58-14.28L123.58-14.28L124.06-14.39L121.51-0.41L121.51-0.41Q122.62-0.52 123.36-1.44L123.36-1.44L123.91-1.00L123.91-1.00Q122.80 0.33 121.14 0.33zM112.26-3.48L112.26-3.48Q112.26-1.81 112.68-1.17L112.68-1.17L112.68-1.17Q113.11-0.52 114.00-0.52L114.00-0.52L114.00-0.52Q114.89-0.52 115.81-1.48L115.81-1.48L115.81-1.48Q117.03-2.74 117.77-4.66L117.77-4.66L117.77-4.66Q117.88-5.14 118.20-6.97L118.20-6.97L118.20-6.97Q118.51-8.81 118.73-9.99L118.73-9.99L118.73-9.99Q118.62-11.40 117.96-12.43L117.96-12.43L117.96-12.43Q117.29-13.47 116.29-13.47L116.29-13.47L116.29-13.47Q114.48-13.47 113.37-10.23L113.37-10.23L113.37-10.23Q112.26-6.99 112.26-3.48L112.26-3.48" fill="#619649" stroke="none" stroke-width="none" transform="translate(-147.16497802734375,10.039120941162109)" style="fill: rgb(182, 210, 80);"></path></g><g class="path" style="transform: scale(0.91); transform-origin: -13.705px 6.24912px; animation: 1s linear -0.385s infinite normal forwards running breath-9bd3241e-d489-466a-a232-c5ba8dedf28b;"><path d="M138.16 4.03L138.16 4.03L138.16 4.03Q139.49 4.03 140.45 3.00L140.45 3.00L140.97 3.44L140.97 3.44Q140.08 4.70 138.16 4.70L138.16 4.70L138.16 4.70Q137.34 4.70 136.49 4.51L136.49 4.51L136.49 4.51Q133.98 6.81 130.06 6.81L130.06 6.81L130.06 6.81Q127.72 6.81 126.45 6.01L126.45 6.01L126.45 6.01Q125.17 5.22 125.17 3.94L125.17 3.94L125.17 3.94Q125.17 2.66 125.97 1.91L125.97 1.91L125.97 1.91Q126.76 1.15 128.80 1.15L128.80 1.15L128.80 1.15Q130.83 1.15 134.16 2.81L134.16 2.81L135.31-3.33L135.31-3.33Q133.64-0.26 131.02-0.26L131.02-0.26L131.02-0.26Q125.99-0.26 125.99-5.22L125.99-5.22L125.99-5.22Q125.99-9.36 128.08-11.88L128.08-11.88L128.08-11.88Q130.17-14.39 133.42-14.39L133.42-14.39L133.42-14.39Q135.31-14.39 136.35-13.25L136.35-13.25L136.35-13.25Q136.64-12.91 136.94-12.25L136.94-12.25L137.27-14.06L137.27-14.06Q140.01-14.06 141.27-14.28L141.27-14.28L141.75-14.39L139.31-0.74L139.31-0.74Q138.75 2.15 137.09 3.92L137.09 3.92L137.09 3.92Q137.57 4.03 138.16 4.03zM130.17-4.07L130.17-4.07Q130.17-2.37 130.50-1.79L130.50-1.79L130.50-1.79Q130.83-1.22 131.76-1.22L131.76-1.22L131.76-1.22Q132.68-1.22 133.64-2.22L133.64-2.22L133.64-2.22Q134.61-3.22 135.03-4.09L135.03-4.09L135.03-4.09Q135.46-4.96 135.75-5.77L135.75-5.77L136.53-10.03L136.53-10.29L136.53-10.29Q136.53-13.69 133.42-13.69L133.42-13.69L133.42-13.69Q132.24-13.69 131.20-10.47L131.20-10.47L131.20-10.47Q130.17-7.25 130.17-4.07L130.17-4.07zM129.91 6.07L129.91 6.07L129.91 6.07Q132.87 6.07 133.90 3.51L133.90 3.51L133.39 3.26L133.39 3.26Q132.94 3.03 132.85 2.98L132.85 2.98L132.85 2.98Q132.76 2.92 132.35 2.74L132.35 2.74L132.35 2.74Q131.94 2.55 131.76 2.50L131.76 2.50L131.76 2.50Q131.57 2.44 131.18 2.29L131.18 2.29L131.18 2.29Q130.80 2.15 130.54 2.09L130.54 2.09L130.54 2.09Q130.28 2.03 129.94 1.96L129.94 1.96L129.94 1.96Q129.39 1.85 128.32 1.85L128.32 1.85L128.32 1.85Q127.24 1.85 126.60 2.37L126.60 2.37L126.60 2.37Q125.95 2.89 125.95 3.88L125.95 3.88L125.95 3.88Q125.95 4.88 127.02 5.48L127.02 5.48L127.02 5.48Q128.09 6.07 129.91 6.07" fill="#619649" stroke="none" stroke-width="none" transform="translate(-147.16497802734375,10.039120941162109)" style="fill: rgb(142, 167, 34);"></path></g><g class="path" style="transform: scale(0.91); transform-origin: 4.18502px 3.00912px; animation: 1s linear -0.3575s infinite normal forwards running breath-9bd3241e-d489-466a-a232-c5ba8dedf28b;"><path d="M145.48-13.65L145.48-13.65L145.48-13.65Q144.60-13.65 143.63-12.62L143.63-12.62L143.08-13.06L143.08-13.06Q143.34-13.58 144.23-13.99L144.23-13.99L144.23-13.99Q145.11-14.39 146.19-14.39L146.19-14.39L146.19-14.39Q149.55-14.39 149.55-11.36L149.55-11.36L149.55-11.36Q149.55-10.06 148.89-6.73L148.89-6.73L148.89-6.73Q148.22-3.40 148.22-2.37L148.22-2.37L148.22-2.37Q148.22-0.78 149.74-0.78L149.74-0.78L149.74-0.78Q150.81-0.78 151.83-2.03L151.83-2.03L151.83-2.03Q152.85-3.29 153.59-5.51L153.59-5.51L155.14-14.06L155.14-14.06Q157.88-14.06 159.14-14.28L159.14-14.28L159.62-14.39L157.14-0.41L157.14-0.41Q158.25-0.52 158.99-1.44L158.99-1.44L159.54-1.00L159.54-1.00Q158.43 0.33 156.77 0.33L156.77 0.33L156.77 0.33Q155.10 0.33 154.18-0.48L154.18-0.48L154.18-0.48Q153.25-1.29 153.22-2.77L153.22-2.77L153.22-2.77Q151.66 0.33 148.63 0.33L148.63 0.33L148.63 0.33Q146.45 0.33 145.22-0.91L145.22-0.91L145.22-0.91Q144.00-2.15 144.00-4.33L144.00-4.33L144.00-4.33Q144.00-5.48 144.71-8.75L144.71-8.75L144.71-8.75Q145.41-12.02 145.48-13.65" fill="#619649" stroke="none" stroke-width="none" transform="translate(-147.16497802734375,10.039120941162109)" style="fill: rgb(97, 150, 73);"></path></g><g class="path" style="transform: scale(0.91); transform-origin: 22.905px 3.00912px; animation: 1s linear -0.33s infinite normal forwards running breath-9bd3241e-d489-466a-a232-c5ba8dedf28b;"><path d="M175.97-0.41L175.97-0.41L175.97-0.41Q176.86-0.41 177.82-1.44L177.82-1.44L178.38-1.00L178.38-1.00Q178.12-0.48 177.23-0.07L177.23-0.07L177.23-0.07Q176.34 0.33 175.27 0.33L175.27 0.33L175.27 0.33Q171.90 0.33 171.90-2.70L171.90-2.70L171.90-2.70Q171.90-4.00 172.57-7.33L172.57-7.33L172.57-7.33Q173.23-10.66 173.23-11.69L173.23-11.69L173.23-11.69Q173.23-13.28 171.72-13.28L171.72-13.28L171.72-13.28Q170.50-13.28 169.37-11.69L169.37-11.69L169.37-11.69Q168.24-10.10 167.50-7.33L167.50-7.33L166.24-0.41L166.24-0.41Q167.39-0.52 168.13-1.44L168.13-1.44L168.68-1.00L168.68-1.00Q167.57 0.33 165.91 0.33L165.91 0.33L165.91 0.33Q164.24 0.33 163.30-0.52L163.30-0.52L163.30-0.52Q162.36-1.37 162.36-2.74L162.36-2.74L162.36-2.74Q162.36-3.26 162.95-6.81L162.95-6.81L164.17-13.65L164.17-13.65Q163.06-13.54 162.32-12.62L162.32-12.62L161.76-13.06L161.76-13.06Q162.87-14.39 164.56-14.39L164.56-14.39L164.56-14.39Q166.24-14.39 167.17-13.54L167.17-13.54L167.17-13.54Q168.09-12.69 168.09-11.14L168.09-11.14L168.09-10.91L168.09-10.91Q169.61-14.39 172.83-14.39L172.83-14.39L172.83-14.39Q175.01-14.39 176.23-13.15L176.23-13.15L176.23-13.15Q177.45-11.91 177.45-9.73L177.45-9.73L177.45-9.73Q177.45-8.58 176.75-5.31L176.75-5.31L176.75-5.31Q176.05-2.03 175.97-0.41" fill="#619649" stroke="none" stroke-width="none" transform="translate(-147.16497802734375,10.039120941162109)" style="fill: rgb(133, 223, 111);"></path></g><g class="path" style="transform: scale(0.91); transform-origin: 40.425px 6.24912px; animation: 1s linear -0.3025s infinite normal forwards running breath-9bd3241e-d489-466a-a232-c5ba8dedf28b;"><path d="M192.29 4.03L192.29 4.03L192.29 4.03Q193.62 4.03 194.58 3.00L194.58 3.00L195.10 3.44L195.10 3.44Q194.21 4.70 192.29 4.70L192.29 4.70L192.29 4.70Q191.47 4.70 190.62 4.51L190.62 4.51L190.62 4.51Q188.11 6.81 184.19 6.81L184.19 6.81L184.19 6.81Q181.85 6.81 180.58 6.01L180.58 6.01L180.58 6.01Q179.30 5.22 179.30 3.94L179.30 3.94L179.30 3.94Q179.30 2.66 180.10 1.91L180.10 1.91L180.10 1.91Q180.89 1.15 182.93 1.15L182.93 1.15L182.93 1.15Q184.96 1.15 188.29 2.81L188.29 2.81L189.44-3.33L189.44-3.33Q187.77-0.26 185.15-0.26L185.15-0.26L185.15-0.26Q180.12-0.26 180.12-5.22L180.12-5.22L180.12-5.22Q180.12-9.36 182.21-11.88L182.21-11.88L182.21-11.88Q184.30-14.39 187.55-14.39L187.55-14.39L187.55-14.39Q189.44-14.39 190.48-13.25L190.48-13.25L190.48-13.25Q190.77-12.91 191.07-12.25L191.07-12.25L191.40-14.06L191.40-14.06Q194.14-14.06 195.40-14.28L195.40-14.28L195.88-14.39L193.44-0.74L193.44-0.74Q192.88 2.15 191.22 3.92L191.22 3.92L191.22 3.92Q191.70 4.03 192.29 4.03zM184.30-4.07L184.30-4.07Q184.30-2.37 184.63-1.79L184.63-1.79L184.63-1.79Q184.96-1.22 185.89-1.22L185.89-1.22L185.89-1.22Q186.81-1.22 187.77-2.22L187.77-2.22L187.77-2.22Q188.74-3.22 189.16-4.09L189.16-4.09L189.16-4.09Q189.59-4.96 189.88-5.77L189.88-5.77L190.66-10.03L190.66-10.29L190.66-10.29Q190.66-13.69 187.55-13.69L187.55-13.69L187.55-13.69Q186.37-13.69 185.33-10.47L185.33-10.47L185.33-10.47Q184.30-7.25 184.30-4.07L184.30-4.07zM184.04 6.07L184.04 6.07L184.04 6.07Q187.00 6.07 188.03 3.51L188.03 3.51L187.52 3.26L187.52 3.26Q187.07 3.03 186.98 2.98L186.98 2.98L186.98 2.98Q186.89 2.92 186.48 2.74L186.48 2.74L186.48 2.74Q186.07 2.55 185.89 2.50L185.89 2.50L185.89 2.50Q185.70 2.44 185.31 2.29L185.31 2.29L185.31 2.29Q184.93 2.15 184.67 2.09L184.67 2.09L184.67 2.09Q184.41 2.03 184.07 1.96L184.07 1.96L184.07 1.96Q183.52 1.85 182.45 1.85L182.45 1.85L182.45 1.85Q181.37 1.85 180.73 2.37L180.73 2.37L180.73 2.37Q180.08 2.89 180.08 3.88L180.08 3.88L180.08 3.88Q180.08 4.88 181.15 5.48L181.15 5.48L181.15 5.48Q182.22 6.07 184.04 6.07" fill="#619649" stroke="none" stroke-width="none" transform="translate(-147.16497802734375,10.039120941162109)" style="fill: rgb(117, 179, 76);"></path></g><g class="path" style="transform: scale(0.91); transform-origin: 63.775px -0.655879px; animation: 1s linear -0.275s infinite normal forwards running breath-9bd3241e-d489-466a-a232-c5ba8dedf28b;"><path d="M213.90-23.98L213.90-23.98L213.90-23.98Q215.23-23.98 216.10-22.98L216.10-22.98L216.10-22.98Q216.97-21.98 216.97-19.98L216.97-19.98L216.97-19.98Q216.97-17.98 215.38-14.06L215.38-14.06L216.78-14.06L216.71-13.39L215.08-13.39L215.08-13.39Q213.82-10.25 213.82-8.62L213.82-8.62L213.16-8.62L213.16-8.62Q213.16-10.54 214.38-13.39L214.38-13.39L212.23-13.39L212.23-13.39Q211.12-7.58 209.38 2.59L209.38 2.59L204.91 2.59L207.75-13.39L205.50-13.39L205.57-14.06L207.87-14.06L208.46-17.24L208.46-17.24Q209.05-20.90 210.29-22.44L210.29-22.44L210.29-22.44Q211.53-23.98 213.90-23.98zM216.26-20.05L216.26-20.05L216.26-20.05Q216.26-21.39 215.65-22.35L215.65-22.35L215.65-22.35Q215.04-23.31 214.16-23.31L214.16-23.31L214.16-23.31Q213.79-21.87 212.34-14.06L212.34-14.06L214.64-14.06L214.64-14.06Q216.26-17.76 216.26-20.05" fill="#619649" stroke="none" stroke-width="none" transform="translate(-147.16497802734375,10.039120941162109)" style="fill: rgb(182, 210, 80);"></path></g><g class="path" style="transform: scale(0.91); transform-origin: 75.645px 3.00912px; animation: 1s linear -0.2475s infinite normal forwards running breath-9bd3241e-d489-466a-a232-c5ba8dedf28b;"><path d="M224.44-14.39L224.44-14.39L224.44-14.39Q229.14-14.39 229.14-10.66L229.14-10.66L229.14-10.66Q229.14-8.32 226.94-7.12L226.94-7.12L226.94-7.12Q224.74-5.92 220.67-5.88L220.67-5.88L220.67-5.88Q220.59-4.55 220.59-3.77L220.59-3.77L220.59-3.77Q220.59-2.11 221.35-1.31L221.35-1.31L221.35-1.31Q222.11-0.52 223.26-0.52L223.26-0.52L223.26-0.52Q224.40-0.52 225.35-0.96L225.35-0.96L225.35-0.96Q226.29-1.41 226.85-2.02L226.85-2.02L226.85-2.02Q227.40-2.63 227.81-3.29L227.81-3.29L227.81-3.29Q228.55-4.51 228.55-4.85L228.55-4.85L229.21-4.55L229.21-4.55Q229.10-3.96 228.55-2.98L228.55-2.98L228.55-2.98Q227.99-2.00 227.33-1.37L227.33-1.37L227.33-1.37Q226.66-0.74 225.37-0.20L225.37-0.20L225.37-0.20Q224.07 0.33 222.48 0.33L222.48 0.33L222.48 0.33Q219.48 0.33 217.95-1.09L217.95-1.09L217.95-1.09Q216.41-2.52 216.41-5.00L216.41-5.00L216.41-5.00Q216.41-9.40 218.60-11.90L218.60-11.90L218.60-11.90Q220.78-14.39 224.44-14.39zM228.22-10.66L228.22-10.66Q228.22-11.88 227.49-12.67L227.49-12.67L227.49-12.67Q226.77-13.47 225.35-13.47L225.35-13.47L225.35-13.47Q223.92-13.47 222.57-11.77L222.57-11.77L222.57-11.77Q221.22-10.06 220.78-6.73L220.78-6.73L220.78-6.73Q228.22-6.77 228.22-10.66L228.22-10.66" fill="#619649" stroke="none" stroke-width="none" transform="translate(-147.16497802734375,10.039120941162109)" style="fill: rgb(142, 167, 34);"></path></g><g class="path" style="transform: scale(0.91); transform-origin: 90.93px 2.84412px; animation: 1s linear -0.22s infinite normal forwards running breath-9bd3241e-d489-466a-a232-c5ba8dedf28b;"><path d="M231.92-12.62L231.36-13.06L231.36-13.06Q232.47-14.39 234.15-14.39L234.15-14.39L234.15-14.39Q235.84-14.39 236.76-13.54L236.76-13.54L236.76-13.54Q237.69-12.69 237.69-11.14L237.69-11.14L237.69-10.91L237.69-10.91Q239.35-14.39 242.02-14.39L242.02-14.39L242.02-14.39Q244.87-14.39 244.87-11.43L244.87-11.43L244.87-11.43Q244.87-10.21 244.05-8.84L244.05-8.84L244.05-8.84Q243.24-7.47 242.42-6.23L242.42-6.23L242.42-6.23Q241.61-5.00 241.61-4.03L241.61-4.03L240.72-4.03L240.72-4.03Q240.72-5.40 242.31-7.73L242.31-7.73L242.31-7.73Q243.90-10.06 243.90-11.34L243.90-11.34L243.90-11.34Q243.90-12.62 243.40-13.08L243.40-13.08L243.40-13.08Q242.90-13.54 241.92-13.54L241.92-13.54L241.92-13.54Q240.94-13.54 240.00-12.69L240.00-12.69L240.00-12.69Q239.06-11.84 238.43-10.54L238.43-10.54L238.43-10.54Q237.43-8.62 237.10-7.40L237.10-7.40L237.10-7.36L235.76 0L231.32 0L233.77-13.65L233.77-13.65Q232.66-13.54 231.92-12.62L231.92-12.62" fill="#619649" stroke="none" stroke-width="none" transform="translate(-147.16497802734375,10.039120941162109)" style="fill: rgb(97, 150, 73);"></path></g><g class="path" style="transform: scale(0.91); transform-origin: 104.29px 0.26912px; animation: 1s linear -0.1925s infinite normal forwards running breath-9bd3241e-d489-466a-a232-c5ba8dedf28b;"><path d="M246.05-14.06L247.94-14.06L248.94-19.54L248.94-19.54Q251.67-19.54 253.01-19.76L253.01-19.76L253.49-19.87L253.49-19.87Q252.97-17.28 252.34-14.06L252.34-14.06L256.93-14.06L256.85-13.39L252.23-13.39L252.23-13.39Q250.38-3.85 250.38-1.89L250.38-1.89L250.38-1.89Q250.38-0.70 251.64-0.70L251.64-0.70L251.64-0.70Q252.89-0.70 253.93-2.29L253.93-2.29L253.93-2.29Q254.97-3.88 255.41-5.73L255.41-5.73L256.08-5.51L256.08-5.51Q254.71 0.33 250.42 0.33L250.42 0.33L250.42 0.33Q248.64 0.33 247.46-0.65L247.46-0.65L247.46-0.65Q246.27-1.63 246.27-3.39L246.27-3.39L246.27-3.39Q246.27-5.14 247.79-13.39L247.79-13.39L245.98-13.39L246.05-14.06" fill="#619649" stroke="none" stroke-width="none" transform="translate(-147.16497802734375,10.039120941162109)" style="fill: rgb(133, 223, 111);"></path></g><g class="path" style="transform: scale(0.91); transform-origin: 114.145px 3.00912px; animation: 1s linear -0.165s infinite normal forwards running breath-9bd3241e-d489-466a-a232-c5ba8dedf28b;"><path d="M264.40-1.00L264.40-1.00Q263.29 0.33 261.63 0.33L261.63 0.33L261.63 0.33Q259.96 0.33 259.02-0.52L259.02-0.52L259.02-0.52Q258.07-1.37 258.07-2.74L258.07-2.74L258.07-2.74Q258.07-3.22 258.67-6.77L258.67-6.77L259.89-13.39L258.33-13.39L258.41-14.06L260.00-14.06L260.00-14.06Q262.74-14.06 264.03-14.28L264.03-14.28L264.55-14.39L262.00-0.41L262.00-0.41Q263.11-0.52 263.85-1.44L263.85-1.44L264.40-1.00" fill="#619649" stroke="none" stroke-width="none" transform="translate(-147.16497802734375,10.039120941162109)" style="fill: rgb(117, 179, 76);"></path></g><g class="path" style="transform: scale(0.91); transform-origin: 115.885px -9.81088px; animation: 1s linear -0.1375s infinite normal forwards running breath-9bd3241e-d489-466a-a232-c5ba8dedf28b;"><path d="M261.15-17.95L261.15-17.95L261.15-17.95Q260.37-18.72 260.37-19.83L260.37-19.83L260.37-19.83Q260.37-20.94 261.15-21.74L261.15-21.74L261.15-21.74Q261.92-22.53 263.03-22.53L263.03-22.53L263.03-22.53Q264.14-22.53 264.94-21.74L264.94-21.74L264.94-21.74Q265.73-20.94 265.73-19.83L265.73-19.83L265.73-19.83Q265.73-18.72 264.94-17.95L264.94-17.95L264.94-17.95Q264.14-17.17 263.03-17.17L263.03-17.17L263.03-17.17Q261.92-17.17 261.15-17.95" fill="#619649" stroke="none" stroke-width="none" transform="translate(-147.16497802734375,10.039120941162109)" style="fill: rgb(182, 210, 80);"></path></g><g class="path" style="transform: scale(0.91); transform-origin: 126.82px 6.24912px; animation: 1s linear -0.11s infinite normal forwards running breath-9bd3241e-d489-466a-a232-c5ba8dedf28b;"><path d="M278.68 4.03L278.68 4.03L278.68 4.03Q280.02 4.03 280.98 3.00L280.98 3.00L281.50 3.44L281.50 3.44Q280.61 4.70 278.68 4.70L278.68 4.70L278.68 4.70Q277.87 4.70 277.02 4.51L277.02 4.51L277.02 4.51Q274.50 6.81 270.58 6.81L270.58 6.81L270.58 6.81Q268.25 6.81 266.97 6.01L266.97 6.01L266.97 6.01Q265.70 5.22 265.70 3.94L265.70 3.94L265.70 3.94Q265.70 2.66 266.49 1.91L266.49 1.91L266.49 1.91Q267.29 1.15 269.32 1.15L269.32 1.15L269.32 1.15Q271.36 1.15 274.69 2.81L274.69 2.81L275.83-3.33L275.83-3.33Q274.17-0.26 271.54-0.26L271.54-0.26L271.54-0.26Q266.51-0.26 266.51-5.22L266.51-5.22L266.51-5.22Q266.51-9.36 268.60-11.88L268.60-11.88L268.60-11.88Q270.69-14.39 273.95-14.39L273.95-14.39L273.95-14.39Q275.83-14.39 276.87-13.25L276.87-13.25L276.87-13.25Q277.17-12.91 277.46-12.25L277.46-12.25L277.80-14.06L277.80-14.06Q280.53-14.06 281.79-14.28L281.79-14.28L282.27-14.39L279.83-0.74L279.83-0.74Q279.28 2.15 277.61 3.92L277.61 3.92L277.61 3.92Q278.09 4.03 278.68 4.03zM270.69-4.07L270.69-4.07Q270.69-2.37 271.02-1.79L271.02-1.79L271.02-1.79Q271.36-1.22 272.28-1.22L272.28-1.22L272.28-1.22Q273.21-1.22 274.17-2.22L274.17-2.22L274.17-2.22Q275.13-3.22 275.56-4.09L275.56-4.09L275.56-4.09Q275.98-4.96 276.28-5.77L276.28-5.77L277.06-10.03L277.06-10.29L277.06-10.29Q277.06-13.69 273.95-13.69L273.95-13.69L273.95-13.69Q272.76-13.69 271.73-10.47L271.73-10.47L271.73-10.47Q270.69-7.25 270.69-4.07L270.69-4.07zM270.43 6.07L270.43 6.07L270.43 6.07Q273.39 6.07 274.43 3.51L274.43 3.51L273.91 3.26L273.91 3.26Q273.47 3.03 273.37 2.98L273.37 2.98L273.37 2.98Q273.28 2.92 272.87 2.74L272.87 2.74L272.87 2.74Q272.47 2.55 272.28 2.50L272.28 2.50L272.28 2.50Q272.10 2.44 271.71 2.29L271.71 2.29L271.71 2.29Q271.32 2.15 271.06 2.09L271.06 2.09L271.06 2.09Q270.80 2.03 270.47 1.96L270.47 1.96L270.47 1.96Q269.91 1.85 268.84 1.85L268.84 1.85L268.84 1.85Q267.77 1.85 267.12 2.37L267.12 2.37L267.12 2.37Q266.47 2.89 266.47 3.88L266.47 3.88L266.47 3.88Q266.47 4.88 267.55 5.48L267.55 5.48L267.55 5.48Q268.62 6.07 270.43 6.07" fill="#619649" stroke="none" stroke-width="none" transform="translate(-147.16497802734375,10.039120941162109)" style="fill: rgb(142, 167, 34);"></path></g><g class="path" style="transform: scale(0.91); transform-origin: 138.27px 8.46912px; animation: 1s linear -0.0825s infinite normal forwards running breath-9bd3241e-d489-466a-a232-c5ba8dedf28b;"><path d="M284.10-0.24L284.10-0.24L284.10-0.24Q283.57-0.78 283.57-1.55L283.57-1.55L283.57-1.55Q283.57-2.33 284.10-2.89L284.10-2.89L284.10-2.89Q284.64-3.44 285.42-3.44L285.42-3.44L285.42-3.44Q286.19-3.44 286.75-2.89L286.75-2.89L286.75-2.89Q287.30-2.33 287.30-1.55L287.30-1.55L287.30-1.55Q287.30-0.78 286.75-0.24L286.75-0.24L286.75-0.24Q286.19 0.30 285.42 0.30L285.42 0.30L285.42 0.30Q284.64 0.30 284.10-0.24" fill="#619649" stroke="none" stroke-width="none" transform="translate(-147.16497802734375,10.039120941162109)" style="fill: rgb(97, 150, 73);"></path></g><g class="path" style="transform: scale(0.91); transform-origin: 140.62px -3.57588px; animation: 1s linear -0.055s infinite normal forwards running breath-9bd3241e-d489-466a-a232-c5ba8dedf28b;"><path d="M286.64-4.51L285.64-4.63L288.86-22.72L289.93-22.57L286.64-4.51" fill="#619649" stroke="none" stroke-width="none" transform="translate(-147.16497802734375,10.039120941162109)" style="fill: rgb(133, 223, 111);"></path></g><g class="path" style="transform: scale(0.91); transform-origin: 145.82px 8.46912px; animation: 1s linear -0.0275s infinite normal forwards running breath-9bd3241e-d489-466a-a232-c5ba8dedf28b;"><path d="M291.65-0.24L291.65-0.24L291.65-0.24Q291.12-0.78 291.12-1.55L291.12-1.55L291.12-1.55Q291.12-2.33 291.65-2.89L291.65-2.89L291.65-2.89Q292.19-3.44 292.97-3.44L292.97-3.44L292.97-3.44Q293.74-3.44 294.30-2.89L294.30-2.89L294.30-2.89Q294.85-2.33 294.85-1.55L294.85-1.55L294.85-1.55Q294.85-0.78 294.30-0.24L294.30-0.24L294.30-0.24Q293.74 0.30 292.97 0.30L292.97 0.30L292.97 0.30Q292.19 0.30 291.65-0.24" fill="#619649" stroke="none" stroke-width="none" transform="translate(-147.16497802734375,10.039120941162109)" style="fill: rgb(117, 179, 76);"></path></g><g class="path" style="transform: scale(0.91); transform-origin: 148.17px -3.57588px; animation: 1s linear 0s infinite normal forwards running breath-9bd3241e-d489-466a-a232-c5ba8dedf28b;"><path d="M294.19-4.51L293.19-4.63L296.41-22.72L297.48-22.57L294.19-4.51" fill="#619649" stroke="none" stroke-width="none" transform="translate(-147.16497802734375,10.039120941162109)" style="fill: rgb(182, 210, 80);"></path></g></g>
</g>
</g>
<style id="breath-9bd3241e-d489-466a-a232-c5ba8dedf28b" data-anikit="">@keyframes breath-9bd3241e-d489-466a-a232-c5ba8dedf28b
{
  0% {
    animation-timing-function: cubic-bezier(0.9647,0.2413,-0.0705,0.7911);
    transform: scale(0.9099999999999999);
  }
  51% {
    animation-timing-function: cubic-bezier(0.9226,0.2631,-0.0308,0.7628);
    transform: scale(1.02994);
  }
  100% {
    transform: scale(0.9099999999999999);
  }
}</style></svg>